<?xml version="1.0" encoding="UTF-8" standalone="no"?>
<svg width="100px" height="100px" viewBox="0 0 100 100" version="1.1" xmlns="http://www.w3.org/2000/svg" xmlns:xlink="http://www.w3.org/1999/xlink" xmlns:sketch="http://www.bohemiancoding.com/sketch/ns">
    <!-- Generator: Sketch 3.4 (15575) - http://www.bohemiancoding.com/sketch -->
    <title>1.01</title>
    <desc>Created with Sketch.</desc>
    <defs>
        <path id="path-1" d="M0,0 L90,0 L90,90 L0,90 L0,0 Z"></path>
    </defs>
    <g id="Page-1" stroke="none" stroke-width="1" fill="none" fill-rule="evenodd" sketch:type="MSPage">
        <g id="1.01" sketch:type="MSArtboardGroup">
            <g id="Page-1" sketch:type="MSLayerGroup" transform="translate(5.000000, 5.000000)">
                <path d="M90,45 C90,69.8538462 69.8538462,90 45,90 C20.1461538,90 0,69.8538462 0,45 C0,20.1461538 20.1461538,0 45,0 C69.8538462,0 90,20.1461538 90,45" id="Fill-1" fill="#F2F2F2" sketch:type="MSShapeGroup"></path>
                <path d="M68.1111692,57.0640154 C68.1111692,68.5424769 58.8107077,77.8436308 47.3315538,77.8436308 C35.8600154,77.8436308 26.5588615,68.5424769 26.5588615,57.0640154 C26.5588615,45.5924769 35.8600154,36.2913231 47.3315538,36.2913231 C58.8107077,36.2913231 68.1111692,45.5924769 68.1111692,57.0640154" id="Fill-3" fill="#353F49" sketch:type="MSShapeGroup"></path>
                <path d="M63.4414846,57.0640154 C63.4414846,68.5424769 54.1396385,77.8436308 42.6674077,77.8436308 C31.1896385,77.8436308 21.8891769,68.5424769 21.8891769,57.0640154 C21.8891769,45.5924769 31.1896385,36.2913231 42.6674077,36.2913231 C54.1396385,36.2913231 63.4414846,45.5924769 63.4414846,57.0640154" id="Fill-5" fill="#353F49" sketch:type="MSShapeGroup"></path>
                <path d="M64.6347462,56.3541231 C64.6347462,70.0818923 56.6122846,81.9328154 45.0009,87.4823538 C33.3881308,81.9328154 25.3656692,70.0818923 25.3656692,56.3541231 C25.3656692,45.5181231 34.1552077,36.7265077 45.0009,36.7265077 C55.8459,36.7265077 64.6347462,45.5181231 64.6347462,56.3541231" id="Fill-7" fill="#474F59" sketch:type="MSShapeGroup"></path>
                <path d="M59.3464846,63.0391846 C59.3464846,73.0686462 53.4826385,81.7342615 45.0004846,85.7835692 C36.5162538,81.7342615 30.6544846,73.0686462 30.6544846,63.0391846 C30.6544846,55.1150308 37.0770231,48.6931846 45.0004846,48.6931846 C52.9239462,48.6931846 59.3464846,55.1150308 59.3464846,63.0391846" id="Fill-9" fill="#FFFFFF" sketch:type="MSShapeGroup"></path>
                <path d="M45.0006923,31.8806308 C45.0006923,37.8746308 40.1386154,42.7284 34.1466923,42.7284 C28.1575385,42.7284 23.2961538,37.8746308 23.2961538,31.8806308 C23.2961538,25.8852462 28.1575385,21.0238615 34.1466923,21.0238615 C40.1386154,21.0238615 45.0006923,25.8852462 45.0006923,31.8806308" id="Fill-11" fill="#353F49" sketch:type="MSShapeGroup"></path>
                <path d="M45.0006923,31.8806308 C45.0006923,37.0272462 40.8260769,41.2060154 35.6746154,41.2060154 C30.528,41.2060154 26.3492308,37.0272462 26.3492308,31.8806308 C26.3492308,26.7264 30.528,22.5538615 35.6746154,22.5538615 C40.8260769,22.5538615 45.0006923,26.7264 45.0006923,31.8806308" id="Fill-13" fill="#FFFFFF" sketch:type="MSShapeGroup"></path>
                <path d="M66.7042615,31.8806308 C66.7042615,37.8746308 61.8435692,42.7284 55.8523385,42.7284 C49.8618,42.7284 45.0004154,37.8746308 45.0004154,31.8806308 C45.0004154,25.8852462 49.8618,21.0238615 55.8523385,21.0238615 C61.8435692,21.0238615 66.7042615,25.8852462 66.7042615,31.8806308" id="Fill-15" fill="#353F49" sketch:type="MSShapeGroup"></path>
                <path d="M63.6517385,31.8806308 C63.6517385,37.0272462 59.4729692,41.2060154 54.3256615,41.2060154 C49.1742,41.2060154 45.0009692,37.0272462 45.0009692,31.8806308 C45.0009692,26.7264 49.1742,22.5538615 54.3256615,22.5538615 C59.4729692,22.5538615 63.6517385,26.7264 63.6517385,31.8806308" id="Fill-17" fill="#FFFFFF" sketch:type="MSShapeGroup"></path>
                <path d="M42.1300385,30.0755077 C42.1300385,32.9195077 39.8253462,35.2242 36.9820385,35.2242 C34.1449615,35.2242 31.8402692,32.9195077 31.8402692,30.0755077 C31.8402692,27.2391231 34.1449615,24.9344308 36.9820385,24.9344308 C39.8253462,24.9344308 42.1300385,27.2391231 42.1300385,30.0755077" id="Fill-19" fill="#FDCA5C" sketch:type="MSShapeGroup"></path>
                <path d="M39.3615,30.0755077 C39.3615,31.3888154 38.2953462,32.4556615 36.9820385,32.4556615 C35.6680385,32.4556615 34.6011923,31.3888154 34.6011923,30.0755077 C34.6011923,28.7615077 35.6680385,27.6953538 36.9820385,27.6953538 C38.2953462,27.6953538 39.3615,28.7615077 39.3615,30.0755077" id="Fill-21" fill="#353F49" sketch:type="MSShapeGroup"></path>
                <path d="M36.5030308,28.5644769 C36.5030308,29.1342462 36.0405692,29.5974 35.4694154,29.5974 C34.9038,29.5974 34.4420308,29.1342462 34.4420308,28.5644769 C34.4420308,27.9988615 34.9038,27.5364 35.4694154,27.5364 C36.0405692,27.5364 36.5030308,27.9988615 36.5030308,28.5644769" id="Fill-23" fill="#FFFFFF" sketch:type="MSShapeGroup"></path>
                <path d="M35.9946,30.6245077 C35.9946,30.8017385 35.8526769,30.9436615 35.6747538,30.9436615 C35.4968308,30.9436615 35.3556,30.8017385 35.3556,30.6245077 C35.3556,30.4458923 35.4968308,30.3053538 35.6747538,30.3053538 C35.8526769,30.3053538 35.9946,30.4458923 35.9946,30.6245077" id="Fill-25" fill="#FFFFFF" sketch:type="MSShapeGroup"></path>
                <path d="M47.8706538,30.0755077 C47.8706538,32.9195077 50.1760385,35.2242 53.0200385,35.2242 C55.8564231,35.2242 58.1604231,32.9195077 58.1604231,30.0755077 C58.1604231,27.2391231 55.8564231,24.9344308 53.0200385,24.9344308 C50.1760385,24.9344308 47.8706538,27.2391231 47.8706538,30.0755077" id="Fill-27" fill="#FDCA5C" sketch:type="MSShapeGroup"></path>
                <path d="M50.6391923,30.0755077 C50.6391923,31.3888154 51.7060385,32.4556615 53.0200385,32.4556615 C54.3326538,32.4556615 55.3995,31.3888154 55.3995,30.0755077 C55.3995,28.7615077 54.3326538,27.6953538 53.0200385,27.6953538 C51.7060385,27.6953538 50.6391923,28.7615077 50.6391923,30.0755077" id="Fill-29" fill="#353F49" sketch:type="MSShapeGroup"></path>
                <path d="M53.4976615,28.5644769 C53.4976615,29.1342462 53.9608154,29.5974 54.5312769,29.5974 C55.0968923,29.5974 55.5586615,29.1342462 55.5586615,28.5644769 C55.5586615,27.9988615 55.0968923,27.5364 54.5312769,27.5364 C53.9608154,27.5364 53.4976615,27.9988615 53.4976615,28.5644769" id="Fill-31" fill="#FFFFFF" sketch:type="MSShapeGroup"></path>
                <path d="M54.0067846,30.6245077 C54.0067846,30.8017385 54.1480154,30.9436615 54.3259385,30.9436615 C54.5038615,30.9436615 54.6450923,30.8017385 54.6450923,30.6245077 C54.6450923,30.4458923 54.5038615,30.3053538 54.3259385,30.3053538 C54.1480154,30.3053538 54.0067846,30.4458923 54.0067846,30.6245077" id="Fill-33" fill="#FFFFFF" sketch:type="MSShapeGroup"></path>
                <path d="M62.6978077,20.4027923 C63.3195,16.7841 64.7816538,13.4485615 66.8793462,10.6177154 C54.0917308,15.4742538 44.9968846,27.8513308 44.9968846,42.3475615 C44.9968846,31.5766385 52.5811154,22.5849462 62.6978077,20.4027923" id="Fill-35" fill="#353F49" sketch:type="MSShapeGroup"></path>
                <path d="M27.3028846,20.4027923 C26.6818846,16.7841 25.2190385,13.4485615 23.1213462,10.6177154 C35.9089615,15.4742538 45.0038077,27.8513308 45.0038077,42.3475615 C45.0038077,31.5766385 37.4195769,22.5849462 27.3028846,20.4027923" id="Fill-37" fill="#353F49" sketch:type="MSShapeGroup"></path>
                <path d="M57.0843,16.3760538 C49.8012231,22.5043615 45.1336846,31.6442077 44.9979923,41.8785923 C44.8623,31.6442077 40.1968385,22.5085154 32.9158385,16.3788231 C36.8183769,17.1652846 40.8573,17.5799769 44.9938385,17.5799769 C49.1352231,17.5799769 53.1783,17.1652846 57.0843,16.3760538" id="Fill-39" fill="#F2F2F2" sketch:type="MSShapeGroup"></path>
                <path d="M47.4460615,38.7482538 C47.2321385,38.4824077 47.0244462,38.2041 46.8312923,37.9167923 C45.6709846,36.1936385 44.9980615,34.1118692 44.9980615,31.8805615 C44.9980615,34.1091 44.3272154,36.1881 43.1689846,37.9098692 C42.9779077,38.1985615 42.7695231,38.4761769 42.5549077,38.7427154 C44.0627538,41.6822538 44.9378308,45.0032538 45.0008308,48.5229462 C44.9994462,48.5845615 44.9994462,48.6385615 44.9994462,48.6932538 C44.9994462,48.6551769 45.0008308,48.6087923 45.0022154,48.5714077 C45.0022154,48.6087923 45.0036,48.6551769 45.0036,48.6932538 C45.0036,48.6385615 45.0036,48.5845615 45.0022154,48.5229462 C45.0645231,45.0053308 45.9389077,41.6871 47.4460615,38.7482538" id="Fill-41" fill="#FDCA5C" sketch:type="MSShapeGroup"></path>
                <path d="M55.6097538,9.64903846 L34.3919077,9.64903846 L34.3919077,16.6662692 L45.0008308,21.8066538 L55.6097538,16.6662692 L55.6097538,9.64903846 Z" id="Fill-43" fill="#353F49" sketch:type="MSShapeGroup"></path>
                <mask id="mask-2" sketch:name="Clip 46" fill="white">
                    <use xlink:href="#path-1"></use>
                </mask>
                <g id="Clip-46"></g>
                <path d="M45.0006923,8.05638462 L21.1174615,8.05638462 L21.1174615,9.64938462 L45.0006923,9.64938462 L45.0006923,8.05638462 Z" id="Fill-45" fill="#474F59" sketch:type="MSShapeGroup" mask="url(#mask-2)"></path>
                <path d="M68.8832308,8.05638462 L45.0006923,8.05638462 L45.0006923,9.64938462 L68.8832308,9.64938462 L68.8832308,8.05638462 Z" id="Fill-47" fill="#232E38" sketch:type="MSShapeGroup" mask="url(#mask-2)"></path>
                <path d="M67.6370769,17.6926154 L68.2276154,17.6926154 L68.2276154,9.64938462 L67.6370769,9.64938462 L67.6370769,17.6926154 Z" id="Fill-48" fill="#353F49" sketch:type="MSShapeGroup" mask="url(#mask-2)"></path>
                <path d="M68.7074538,23.0185385 L68.2276846,17.6926154 L67.6371462,17.6926154 L67.1587615,23.0185385 L67.4169923,22.4896154 L67.6710692,23.0185385 L67.9306846,22.4896154 L68.1896077,23.0185385 L68.4478385,22.4896154 L68.7074538,23.0185385 Z" id="Fill-49" fill="#353F49" sketch:type="MSShapeGroup" mask="url(#mask-2)"></path>
                <path d="M68.7271154,17.6924077 C68.7271154,18.1327154 68.3719615,18.4906385 67.9302692,18.4906385 C67.4927308,18.4906385 67.1320385,18.1327154 67.1320385,17.6924077 C67.1320385,17.2534846 67.4927308,16.8983308 67.9302692,16.8983308 C68.3719615,16.8983308 68.7271154,17.2534846 68.7271154,17.6924077" id="Fill-50" fill="#232E38" sketch:type="MSShapeGroup" mask="url(#mask-2)"></path>
                <path d="M68.9549538,20.6624077 C69.7095692,20.6624077 70.4475692,20.6984077 71.1828,20.7579462 C69.1301077,19.8821769 66.9264923,19.4079462 64.6287231,19.4079462 C55.8440308,19.4079462 48.4051846,26.3628692 45.9253385,35.9409462 C49.1231077,27.0704077 58.2283385,20.6624077 68.9549538,20.6624077" id="Fill-51" fill="#CCCBCA" sketch:type="MSShapeGroup" mask="url(#mask-2)"></path>
                <path d="M21.0450462,20.6624077 C20.2911231,20.6624077 19.5524308,20.6984077 18.8178923,20.7579462 C20.8692,19.8821769 23.0728154,19.4079462 25.3719692,19.4079462 C34.1566615,19.4079462 41.5955077,26.3628692 44.0753538,35.9409462 C40.8782769,27.0704077 31.7716615,20.6624077 21.0450462,20.6624077" id="Fill-52" fill="#CCCBCA" sketch:type="MSShapeGroup" mask="url(#mask-2)"></path>
                <path d="M9.55509231,80.5781077 L-0.000138461538,77.6662615 L9.55509231,74.7551077 L9.55509231,80.5781077 Z" id="Fill-53" fill="#FFFFFF" sketch:type="MSShapeGroup" mask="url(#mask-2)"></path>
                <path d="M0,77.6662615 L9.55523077,80.5781077 L9.55523077,78.7511077 L0,77.6662615 Z" id="Fill-54" fill="#CCCBCA" sketch:type="MSShapeGroup" mask="url(#mask-2)"></path>
                <path d="M9.55523077,80.5783846 L80.4454615,80.5783846 L80.4454615,74.7553846 L9.55523077,74.7553846 L9.55523077,80.5783846 Z" id="Fill-55" fill="#FFDB79" sketch:type="MSShapeGroup" mask="url(#mask-2)"></path>
                <path d="M9.55523077,80.5783846 L80.4454615,80.5783846 L80.4454615,78.7513846 L9.55523077,78.7513846 L9.55523077,80.5783846 Z" id="Fill-56" fill="#FAB83E" sketch:type="MSShapeGroup" mask="url(#mask-2)"></path>
                <path d="M3.74005385,78.8000538 L0.000207692308,77.6660538 L3.74005385,76.5251308 L3.74005385,78.8000538 Z" id="Fill-57" fill="#353F49" sketch:type="MSShapeGroup" mask="url(#mask-2)"></path>
                <path d="M3.74005385,78.8000538 L0.000207692308,77.6660538 L3.74005385,78.0904385 L3.74005385,78.8000538 Z" id="Fill-58" fill="#232E38" sketch:type="MSShapeGroup" mask="url(#mask-2)"></path>
                <path d="M83.817,80.5783846 L80.4454615,80.5783846 L80.4454615,74.7553846 L83.817,74.7553846 L83.817,80.5783846 Z" id="Fill-59" fill="#FFFFFF" sketch:type="MSShapeGroup" mask="url(#mask-2)"></path>
                <path d="M83.817,80.5783846 L80.4454615,80.5783846 L80.4454615,78.7513846 L83.817,78.7513846 L83.817,80.5783846 Z" id="Fill-60" fill="#CCCBCA" sketch:type="MSShapeGroup" mask="url(#mask-2)"></path>
                <path d="M87.0874615,80.5781077 C87.8365385,80.5781077 88.5759231,80.2859538 89.1505385,79.7196462 C89.7182308,79.1512615 90,78.4070308 90,77.6662615 C90,76.9206462 89.7182308,76.1791846 89.1505385,75.6052615 C88.5759231,75.0458769 87.8365385,74.7551077 87.0874615,74.7551077 L83.817,74.7551077 L83.817,80.5781077 L87.0874615,80.5781077 Z" id="Fill-61" fill="#474F59" sketch:type="MSShapeGroup" mask="url(#mask-2)"></path>
                <path d="M89.1508154,75.6055385 C88.8150462,75.285 88.4225077,75.0606923 88.0168154,74.9222308 C88.1116615,75.2178462 88.1698154,75.528 88.1698154,75.8395385 C88.1698154,76.5761538 87.8894308,77.3245385 87.3189692,77.8929231 C86.7471231,78.4689231 86.0015077,78.7513846 85.2593538,78.7513846 L83.8172769,78.7513846 L83.8172769,80.5783846 L87.0877385,80.5783846 C87.8368154,80.5783846 88.5762,80.2862308 89.1508154,79.7192308 C89.7178154,79.1515385 90.0002769,78.4073077 90.0002769,77.6665385 C90.0002769,76.9202308 89.7178154,76.1794615 89.1508154,75.6055385" id="Fill-62" fill="#232E38" sketch:type="MSShapeGroup" mask="url(#mask-2)"></path>
                <path d="M33.6147923,73.5644769 C32.9557154,73.5644769 32.4233308,74.1010154 32.4233308,74.7552462 C32.4233308,75.9577846 33.6147923,79.4276308 33.6147923,79.4276308 C33.6147923,79.4276308 34.8000231,75.9577846 34.8000231,74.7552462 C34.8000231,74.0934 34.2669462,73.5644769 33.6147923,73.5644769" id="Fill-63" fill="#474F59" sketch:type="MSShapeGroup" mask="url(#mask-2)"></path>
                <path d="M35.9892,73.5644769 C35.3328923,73.5644769 34.7998154,74.1010154 34.7998154,74.7552462 C34.7998154,75.9577846 35.9892,79.4276308 35.9892,79.4276308 C35.9892,79.4276308 37.1765077,75.9577846 37.1765077,74.7552462 C37.1765077,74.0934 36.6441231,73.5644769 35.9892,73.5644769" id="Fill-64" fill="#474F59" sketch:type="MSShapeGroup" mask="url(#mask-2)"></path>
                <path d="M38.3649231,73.5644769 C37.7086154,73.5644769 37.1762308,74.1010154 37.1762308,74.7552462 C37.1762308,75.9577846 38.3649231,79.4276308 38.3649231,79.4276308 C38.3649231,79.4276308 39.5529231,75.9577846 39.5529231,74.7552462 C39.5529231,74.0934 39.0198462,73.5644769 38.3649231,73.5644769" id="Fill-65" fill="#474F59" sketch:type="MSShapeGroup" mask="url(#mask-2)"></path>
                <path d="M51.6350769,73.5644769 C50.9808462,73.5644769 50.4477692,74.1010154 50.4477692,74.7552462 C50.4477692,75.9577846 51.6350769,79.4276308 51.6350769,79.4276308 C51.6350769,79.4276308 52.8244615,75.9577846 52.8244615,74.7552462 C52.8244615,74.0934 52.2920769,73.5644769 51.6350769,73.5644769" id="Fill-66" fill="#474F59" sketch:type="MSShapeGroup" mask="url(#mask-2)"></path>
                <path d="M54.0114923,73.5644769 C53.3572615,73.5644769 52.8241846,74.1010154 52.8241846,74.7552462 C52.8241846,75.9577846 54.0114923,79.4276308 54.0114923,79.4276308 C54.0114923,79.4276308 55.2008769,75.9577846 55.2008769,74.7552462 C55.2008769,74.0934 54.6684923,73.5644769 54.0114923,73.5644769" id="Fill-67" fill="#474F59" sketch:type="MSShapeGroup" mask="url(#mask-2)"></path>
                <path d="M56.3852077,73.5644769 C55.7337462,73.5644769 55.2006692,74.1010154 55.2006692,74.7552462 C55.2006692,75.9577846 56.3852077,79.4276308 56.3852077,79.4276308 C56.3852077,79.4276308 57.5773615,75.9577846 57.5773615,74.7552462 C57.5773615,74.0934 57.0449769,73.5644769 56.3852077,73.5644769" id="Fill-68" fill="#474F59" sketch:type="MSShapeGroup" mask="url(#mask-2)"></path>
            </g>
        </g>
    </g>
</svg>