<?xml version="1.0" encoding="UTF-8" standalone="no"?>
<svg width="100px" height="100px" viewBox="0 0 100 100" version="1.1" xmlns="http://www.w3.org/2000/svg" xmlns:xlink="http://www.w3.org/1999/xlink" xmlns:sketch="http://www.bohemiancoding.com/sketch/ns">
    <!-- Generator: Sketch 3.4 (15575) - http://www.bohemiancoding.com/sketch -->
    <title>1.02</title>
    <desc>Created with Sketch.</desc>
    <defs>
        <path id="path-1" d="M44.7682119,0.309371951 C20.0423841,0.309371951 0,20.3599817 0,45.0959573 L0,45.0959573 C0,69.8319329 20.0423841,89.8825427 44.7682119,89.8825427 L44.7682119,89.8825427 C69.4947285,89.8825427 89.5364238,69.8319329 89.5364238,45.0959573 L89.5364238,45.0959573 C89.5364238,20.3599817 69.4947285,0.309371951 44.7682119,0.309371951 L44.7682119,0.309371951 Z"></path>
    </defs>
    <g id="Page-1" stroke="none" stroke-width="1" fill="none" fill-rule="evenodd" sketch:type="MSPage">
        <g id="1.02" sketch:type="MSArtboardGroup">
            <g id="Page-1" sketch:type="MSLayerGroup" transform="translate(5.000000, 5.000000)">
                <path d="M89.5364238,45.0960951 C89.5364238,69.8320707 69.4940397,89.8826805 44.7682119,89.8826805 C20.0423841,89.8826805 0,69.8320707 0,45.0960951 C0,20.3601195 20.0423841,0.309509756 44.7682119,0.309509756 C69.4940397,0.309509756 89.5364238,20.3601195 89.5364238,45.0960951" id="Fill-1" fill="#FFDB79" sketch:type="MSShapeGroup"></path>
                <g id="Group-40">
                    <mask id="mask-2" sketch:name="Clip 4" fill="white">
                        <use xlink:href="#path-1"></use>
                    </mask>
                    <g id="Clip-4"></g>
                    <path d="M33.9956026,113 L103.776159,113 L103.776159,14.2696951 L33.9956026,14.2696951 L33.9956026,113 Z" id="Fill-3" fill="#FFFFFF" sketch:type="MSShapeGroup" mask="url(#mask-2)"></path>
                    <path d="M103.776848,6.07995122 L33.9962914,6.07995122 L33.9962914,14.2696951 L103.776848,14.2696951 L103.776848,6.07995122 Z" id="Fill-5" fill="#353F49" sketch:type="MSShapeGroup" mask="url(#mask-2)"></path>
                    <path d="M93.3369007,29.832689 L44.4362384,29.832689 L44.4362384,27.9923049 L93.3369007,27.9923049 L93.3369007,29.832689 Z" id="Fill-6" fill="#CCCBCA" sketch:type="MSShapeGroup" mask="url(#mask-2)"></path>
                    <path d="M93.3369007,25.2362073 L44.4362384,25.2362073 L44.4362384,23.3958232 L93.3369007,23.3958232 L93.3369007,25.2362073 Z" id="Fill-7" fill="#CCCBCA" sketch:type="MSShapeGroup" mask="url(#mask-2)"></path>
                    <path d="M93.3369007,34.4284817 L44.4362384,34.4284817 L44.4362384,32.5887866 L93.3369007,32.5887866 L93.3369007,34.4284817 Z" id="Fill-8" fill="#CCCBCA" sketch:type="MSShapeGroup" mask="url(#mask-2)"></path>
                    <path d="M93.3369007,39.0242744 L44.4362384,39.0242744 L44.4362384,37.1873354 L93.3369007,37.1873354 L93.3369007,39.0242744 Z" id="Fill-9" fill="#CCCBCA" sketch:type="MSShapeGroup" mask="url(#mask-2)"></path>
                    <path d="M93.3369007,43.6228232 L44.4362384,43.6228232 L44.4362384,41.7838171 L93.3369007,41.7838171 L93.3369007,43.6228232 Z" id="Fill-10" fill="#CCCBCA" sketch:type="MSShapeGroup" mask="url(#mask-2)"></path>
                    <path d="M93.3369007,48.223439 L44.4362384,48.223439 L44.4362384,46.3830549 L93.3369007,46.3830549 L93.3369007,48.223439 Z" id="Fill-11" fill="#CCCBCA" sketch:type="MSShapeGroup" mask="url(#mask-2)"></path>
                    <path d="M93.3369007,52.8240549 L44.4362384,52.8240549 L44.4362384,50.9836707 L93.3369007,50.9836707 L93.3369007,52.8240549 Z" id="Fill-12" fill="#CCCBCA" sketch:type="MSShapeGroup" mask="url(#mask-2)"></path>
                    <path d="M93.3369007,57.4246707 L44.4362384,57.4246707 L44.4362384,55.5842866 L93.3369007,55.5842866 L93.3369007,57.4246707 Z" id="Fill-13" fill="#CCCBCA" sketch:type="MSShapeGroup" mask="url(#mask-2)"></path>
                    <path d="M93.3369007,62.0259756 L44.4362384,62.0259756 L44.4362384,60.1855915 L93.3369007,60.1855915 L93.3369007,62.0259756 Z" id="Fill-14" fill="#CCCBCA" sketch:type="MSShapeGroup" mask="url(#mask-2)"></path>
                    <path d="M93.3369007,66.6259024 L44.4362384,66.6259024 L44.4362384,64.7862073 L93.3369007,64.7862073 L93.3369007,66.6259024 Z" id="Fill-15" fill="#CCCBCA" sketch:type="MSShapeGroup" mask="url(#mask-2)"></path>
                    <path d="M93.3369007,71.2265183 L44.4362384,71.2265183 L44.4362384,69.3868232 L93.3369007,69.3868232 L93.3369007,71.2265183 Z" id="Fill-16" fill="#CCCBCA" sketch:type="MSShapeGroup" mask="url(#mask-2)"></path>
                    <path d="M93.3369007,75.8271341 L44.4362384,75.8271341 L44.4362384,73.98675 L93.3369007,73.98675 L93.3369007,75.8271341 Z" id="Fill-17" fill="#CCCBCA" sketch:type="MSShapeGroup" mask="url(#mask-2)"></path>
                    <path d="M93.3369007,80.42775 L44.4362384,80.42775 L44.4362384,78.5880549 L93.3369007,78.5880549 L93.3369007,80.42775 Z" id="Fill-18" fill="#CCCBCA" sketch:type="MSShapeGroup" mask="url(#mask-2)"></path>
                    <path d="M93.3369007,85.0283659 L44.4362384,85.0283659 L44.4362384,83.1886707 L93.3369007,83.1886707 L93.3369007,85.0283659 Z" id="Fill-19" fill="#CCCBCA" sketch:type="MSShapeGroup" mask="url(#mask-2)"></path>
                    <path d="M93.3369007,89.6289817 L44.4362384,89.6289817 L44.4362384,87.7885976 L93.3369007,87.7885976 L93.3369007,89.6289817 Z" id="Fill-20" fill="#CCCBCA" sketch:type="MSShapeGroup" mask="url(#mask-2)"></path>
                    <path d="M36.0997086,71.6385549 L31.8970066,71.6385549 L31.8970066,66.6210793 L36.0997086,66.6210793 L36.0997086,71.6385549 Z" id="Fill-21" fill="#474F59" sketch:type="MSShapeGroup" mask="url(#mask-2)"></path>
                    <path d="M55.8418702,45.2468537 C55.8418702,57.319939 46.0596715,67.1020183 33.9956715,67.1020183 C21.9309828,67.1020183 12.1536053,57.319939 12.1536053,45.2468537 C12.1536053,33.1785915 21.9309828,23.3965122 33.9956715,23.3965122 C46.0596715,23.3965122 55.8418702,33.1785915 55.8418702,45.2468537" id="Fill-22" fill="#353F49" sketch:type="MSShapeGroup" mask="url(#mask-2)"></path>
                    <path d="M51.4780715,45.2468537 C51.4780715,54.9049085 43.6491444,62.7280915 33.9957404,62.7280915 C24.3464689,62.7280915 16.5216742,54.9049085 16.5216742,45.2468537 C16.5216742,35.5887988 24.3464689,27.7669939 33.9957404,27.7669939 C43.6491444,27.7669939 51.4780715,35.5887988 51.4780715,45.2468537" id="Fill-23" fill="#FFFFFF" sketch:type="MSShapeGroup" mask="url(#mask-2)"></path>
                    <path d="M34.8625219,33.8782268 L33.1365351,33.8782268 L32.6337536,36.3883427 L35.3659921,36.3883427 L34.8625219,33.8782268 Z" id="Fill-24" fill="#474F59" sketch:type="MSShapeGroup" mask="url(#mask-2)"></path>
                    <path d="M29.0633854,34.9696415 L27.5701934,35.832989 L28.3870411,38.2583549 L30.7535576,36.8933976 L29.0633854,34.9696415 Z" id="Fill-25" fill="#474F59" sketch:type="MSShapeGroup" mask="url(#mask-2)"></path>
                    <path d="M24.5882172,38.8155 L23.7252238,40.3093049 L25.6488795,42.0001707 L27.0160318,39.636128 L24.5882172,38.8155 Z" id="Fill-26" fill="#474F59" sketch:type="MSShapeGroup" mask="url(#mask-2)"></path>
                    <path d="M22.6352901,44.3852287 L22.6352901,46.1105457 L25.1450649,46.6142226 L25.1450649,43.8822409 L22.6352901,44.3852287 Z" id="Fill-27" fill="#474F59" sketch:type="MSShapeGroup" mask="url(#mask-2)"></path>
                    <path d="M23.7249483,50.1860561 L24.5879417,51.679172 L27.016445,50.860611 L25.648604,48.4938122 L23.7249483,50.1860561 Z" id="Fill-28" fill="#474F59" sketch:type="MSShapeGroup" mask="url(#mask-2)"></path>
                    <path d="M27.569849,54.6616829 L29.0630411,55.5250305 L30.753902,53.6026524 L28.3866967,52.2376951 L27.569849,54.6616829 Z" id="Fill-29" fill="#474F59" sketch:type="MSShapeGroup" mask="url(#mask-2)"></path>
                    <path d="M33.1396344,56.6167207 L34.8621775,56.6167207 L35.3656477,54.108672 L32.6361642,54.108672 L33.1396344,56.6167207 Z" id="Fill-30" fill="#474F59" sketch:type="MSShapeGroup" mask="url(#mask-2)"></path>
                    <path d="M38.9351205,55.5253061 L40.4296901,54.6619585 L39.6107762,52.2379707 L37.2456371,53.602239 L38.9351205,55.5253061 Z" id="Fill-31" fill="#474F59" sketch:type="MSShapeGroup" mask="url(#mask-2)"></path>
                    <path d="M43.412906,51.6795165 L44.2731444,50.1864006 L42.3522437,48.4934677 L40.9844026,50.8609555 L43.412906,51.6795165 Z" id="Fill-32" fill="#474F59" sketch:type="MSShapeGroup" mask="url(#mask-2)"></path>
                    <path d="M45.3637669,46.1104768 L45.3637669,44.3851598 L42.8574358,43.882172 L42.8574358,46.6141537 L45.3637669,46.1104768 Z" id="Fill-33" fill="#474F59" sketch:type="MSShapeGroup" mask="url(#mask-2)"></path>
                    <path d="M44.2734887,40.3095805 L43.4132503,38.8157756 L40.9840583,39.6364037 L42.3518993,41.9983793 L44.2734887,40.3095805 Z" id="Fill-34" fill="#474F59" sketch:type="MSShapeGroup" mask="url(#mask-2)"></path>
                    <path d="M40.4299656,35.8332646 L38.935396,34.9712951 L37.2459126,36.8936732 L39.6110517,38.2579415 L40.4299656,35.8332646 Z" id="Fill-35" fill="#474F59" sketch:type="MSShapeGroup" mask="url(#mask-2)"></path>
                    <path d="M34.0025589,47.7294085 C32.6305854,47.7294085 31.5203338,46.6173232 31.5203338,45.2482317 C31.5203338,43.8784512 32.6305854,42.7656768 34.0025589,42.7656768 C35.367645,42.7656768 36.4799629,43.8784512 36.4799629,45.2482317 C36.4799629,46.6173232 35.367645,47.7294085 34.0025589,47.7294085 M34.0025589,36.2860915 C29.0484397,36.2860915 25.0399629,40.2975915 25.0399629,45.2482317 C25.0399629,50.1974939 29.0484397,54.2089939 34.0025589,54.2089939 C38.9504795,54.2089939 42.9624,50.1974939 42.9624,45.2482317 C42.9624,40.2975915 38.9504795,36.2860915 34.0025589,36.2860915" id="Fill-36" fill="#353F49" sketch:type="MSShapeGroup" mask="url(#mask-2)"></path>
                    <path d="M34.0025589,47.4003305 C32.8144795,47.4003305 31.8495523,46.4363854 31.8495523,45.2478183 C31.8495523,44.0606293 32.8144795,43.0987512 34.0025589,43.0987512 C35.183751,43.0987512 36.1500556,44.0606293 36.1500556,45.2478183 C36.1500556,46.4363854 35.183751,47.4003305 34.0025589,47.4003305 M34.0025589,40.944172 C31.623645,40.944172 29.6999894,42.8686171 29.6999894,45.2478183 C29.6999894,47.6263305 31.623645,49.5487085 34.0025589,49.5487085 C36.3759629,49.5487085 38.3003073,47.6263305 38.3003073,45.2478183 C38.3003073,42.8686171 36.3759629,40.944172 34.0025589,40.944172" id="Fill-37" fill="#F87B55" sketch:type="MSShapeGroup" mask="url(#mask-2)"></path>
                    <path d="M29.8631523,98.8805122 L38.1259868,98.8805122 L38.1259868,76.0124817 L29.8631523,76.0124817 L29.8631523,98.8805122 Z" id="Fill-38" fill="#474F59" sketch:type="MSShapeGroup" mask="url(#mask-2)"></path>
                    <path d="M38.8181722,76.0124817 L29.1695894,76.0124817 L29.1695894,71.6378659 L38.8181722,71.6378659 L38.8181722,76.0124817 Z" id="Fill-39" fill="#353F49" sketch:type="MSShapeGroup" mask="url(#mask-2)"></path>
                </g>
                <g id="Group-45" sketch:type="MSShapeGroup">
                    <path d="M82.386596,69.3868232 L23.6465695,69.3868232 L23.6465695,80.42775 L82.386596,80.42775 L82.386596,69.3868232 Z" id="Fill-41" fill="#F87B55"></path>
                    <path d="M26.4015364,72.1429207 L70.2516556,72.1429207 L70.2516556,77.6716524 L26.4015364,77.6716524 L26.4015364,72.1429207 Z" id="Fill-43" fill="#FFFFFF"></path>
                    <path d="M93.4236821,69.3868232 L82.3872848,69.3868232 L82.3872848,80.42775 L93.4236821,80.42775 L93.4236821,69.3868232 Z" id="Fill-44" fill="#353F49"></path>
                </g>
            </g>
        </g>
    </g>
</svg>