<?xml version="1.0" encoding="UTF-8" standalone="no"?>
<svg width="100px" height="100px" viewBox="0 0 100 100" version="1.1" xmlns="http://www.w3.org/2000/svg" xmlns:xlink="http://www.w3.org/1999/xlink" xmlns:sketch="http://www.bohemiancoding.com/sketch/ns">
    <!-- Generator: Sketch 3.4 (15575) - http://www.bohemiancoding.com/sketch -->
    <title>1.03</title>
    <desc>Created with Sketch.</desc>
    <defs>
        <path id="path-1" d="M0,0 L90,0 L90,90 L0,90 L0,0 Z"></path>
    </defs>
    <g id="Page-1" stroke="none" stroke-width="1" fill="none" fill-rule="evenodd" sketch:type="MSPage">
        <g id="1.03" sketch:type="MSArtboardGroup">
            <g id="Page-1" sketch:type="MSLayerGroup" transform="translate(5.000000, 5.000000)">
                <path d="M90,45 C90,69.8538462 69.8538462,90 45,90 C20.1461538,90 0,69.8538462 0,45 C0,20.1461538 20.1461538,0 45,0 C69.8538462,0 90,20.1461538 90,45" id="Fill-1" fill="#ADECF8" sketch:type="MSShapeGroup"></path>
                <mask id="mask-2" sketch:name="Clip 4" fill="white">
                    <use xlink:href="#path-1"></use>
                </mask>
                <g id="Clip-4"></g>
                <path d="M79.8957692,57.9828462 L7.20346154,57.9828462 L7.20346154,67.5311538 L79.8957692,67.5311538 L79.8957692,57.9828462 Z" id="Fill-3" fill="#656A73" sketch:type="MSShapeGroup" mask="url(#mask-2)"></path>
                <path d="M78.6233077,57.9828462 L8.11246154,57.9828462 L8.11246154,67.5311538 L78.6233077,67.5311538 L78.6233077,57.9828462 Z" id="Fill-5" fill="#CCCBCA" sketch:type="MSShapeGroup" mask="url(#mask-2)"></path>
                <path d="M78.6233077,57.9828462 L8.11246154,57.9828462 L8.11246154,58.4086154 L78.6233077,58.4086154 L78.6233077,57.9828462 Z" id="Fill-6" fill="#F2F2F2" sketch:type="MSShapeGroup" mask="url(#mask-2)"></path>
                <path d="M78.6233077,58.896 L8.11246154,58.896 L8.11246154,59.3231538 L78.6233077,59.3231538 L78.6233077,58.896 Z" id="Fill-7" fill="#F2F2F2" sketch:type="MSShapeGroup" mask="url(#mask-2)"></path>
                <path d="M78.6233077,59.8098462 L8.11246154,59.8098462 L8.11246154,60.2307692 L78.6233077,60.2307692 L78.6233077,59.8098462 Z" id="Fill-8" fill="#F2F2F2" sketch:type="MSShapeGroup" mask="url(#mask-2)"></path>
                <path d="M78.6233077,60.7209231 L8.11246154,60.7209231 L8.11246154,61.1425385 L78.6233077,61.1425385 L78.6233077,60.7209231 Z" id="Fill-9" fill="#F2F2F2" sketch:type="MSShapeGroup" mask="url(#mask-2)"></path>
                <path d="M78.6233077,61.6326923 L8.11246154,61.6326923 L8.11246154,62.0556923 L78.6233077,62.0556923 L78.6233077,61.6326923 Z" id="Fill-10" fill="#F2F2F2" sketch:type="MSShapeGroup" mask="url(#mask-2)"></path>
                <path d="M78.6233077,62.5451538 L8.11246154,62.5451538 L8.11246154,62.9695385 L78.6233077,62.9695385 L78.6233077,62.5451538 Z" id="Fill-11" fill="#F2F2F2" sketch:type="MSShapeGroup" mask="url(#mask-2)"></path>
                <path d="M78.6233077,63.4569231 L8.11246154,63.4569231 L8.11246154,63.882 L78.6233077,63.882 L78.6233077,63.4569231 Z" id="Fill-12" fill="#F2F2F2" sketch:type="MSShapeGroup" mask="url(#mask-2)"></path>
                <path d="M78.6233077,64.3686923 L8.11246154,64.3686923 L8.11246154,64.7944615 L78.6233077,64.7944615 L78.6233077,64.3686923 Z" id="Fill-13" fill="#F2F2F2" sketch:type="MSShapeGroup" mask="url(#mask-2)"></path>
                <path d="M78.6233077,65.2825385 L8.11246154,65.2825385 L8.11246154,65.7076154 L78.6233077,65.7076154 L78.6233077,65.2825385 Z" id="Fill-14" fill="#F2F2F2" sketch:type="MSShapeGroup" mask="url(#mask-2)"></path>
                <path d="M78.6233077,66.1936154 L8.11246154,66.1936154 L8.11246154,66.618 L78.6233077,66.618 L78.6233077,66.1936154 Z" id="Fill-15" fill="#F2F2F2" sketch:type="MSShapeGroup" mask="url(#mask-2)"></path>
                <path d="M78.6233077,67.1074615 L8.11246154,67.1074615 L8.11246154,67.5311538 L78.6233077,67.5311538 L78.6233077,67.1074615 Z" id="Fill-16" fill="#F2F2F2" sketch:type="MSShapeGroup" mask="url(#mask-2)"></path>
                <path d="M79.8957692,12.1936154 L7.20346154,12.1936154 L7.20346154,56.1641538 L79.8957692,56.1641538 L79.8957692,12.1936154 Z" id="Fill-17" fill="#656A73" sketch:type="MSShapeGroup" mask="url(#mask-2)"></path>
                <path d="M79.8957692,57.9828462 L7.20346154,57.9828462 L7.20346154,56.1641538 L79.8957692,56.1641538 L79.8957692,57.9828462 Z" id="Fill-18" fill="#474F59" sketch:type="MSShapeGroup" mask="url(#mask-2)"></path>
                <path d="M79.8957692,69.3498462 L7.20346154,69.3498462 L7.20346154,67.5311538 L79.8957692,67.5311538 L79.8957692,69.3498462 Z" id="Fill-19" fill="#353F49" sketch:type="MSShapeGroup" mask="url(#mask-2)"></path>
                <path d="M7.20366923,24.6810462 C7.5069,25.1871231 7.86620769,25.6641231 8.29474615,26.0912769 C9.65305385,27.4509692 11.4606692,28.1972769 13.3825154,28.1972769 L73.7171308,28.1972769 C75.6389769,28.1972769 77.4459,27.4509692 78.8055923,26.0912769 C79.2327462,25.6641231 79.5934385,25.1871231 79.8959769,24.6810462 L79.8959769,12.1938923 L7.20366923,12.1938923 L7.20366923,24.6810462 Z" id="Fill-20" fill="#CCCBCA" sketch:type="MSShapeGroup" mask="url(#mask-2)"></path>
                <path d="M79.8959769,21.0024692 C79.8959769,22.5823154 79.2922846,24.1628538 78.0862846,25.3702385 C76.8795923,26.5762385 75.2976692,27.1813154 73.7171308,27.1813154 L13.3825154,27.1813154 C11.8019769,27.1813154 10.2200538,26.5762385 9.01336154,25.3702385 C7.80736154,24.1628538 7.20366923,22.5823154 7.20366923,21.0024692 L7.20366923,12.1935462 L79.8959769,12.1935462 L79.8959769,21.0024692 Z" id="Fill-21" fill="#656A73" sketch:type="MSShapeGroup" mask="url(#mask-2)"></path>
                <path d="M34.4637692,11.6446154 L14.8326923,11.6446154 L14.8326923,12.1936154 L34.4637692,12.1936154 L34.4637692,11.6446154 Z" id="Fill-22" fill="#353F49" sketch:type="MSShapeGroup" mask="url(#mask-2)"></path>
                <path d="M72.2658462,11.6446154 L52.6361538,11.6446154 L52.6361538,12.1936154 L72.2658462,12.1936154 L72.2658462,11.6446154 Z" id="Fill-23" fill="#353F49" sketch:type="MSShapeGroup" mask="url(#mask-2)"></path>
                <path d="M21.7394308,11.0958231 L21.7394308,56.1643615 L24.6443538,59.0713615 L27.5513538,56.1643615 L27.5513538,11.0958231 L21.7394308,11.0958231 Z" id="Fill-24" fill="#353F49" sketch:type="MSShapeGroup" mask="url(#mask-2)"></path>
                <path d="M59.5462154,11.0958231 L59.5462154,56.1643615 L62.4532154,59.0713615 L65.3581385,56.1643615 L65.3602154,56.1643615 L65.3602154,11.0958231 L59.5462154,11.0958231 Z" id="Fill-25" fill="#353F49" sketch:type="MSShapeGroup" mask="url(#mask-2)"></path>
                <path d="M28.1023615,39.9963462 C27.6849,39.5878846 27.1324385,39.3559615 26.5495154,39.3559615 L22.7432077,39.3559615 C22.1568231,39.3559615 21.6112846,39.5878846 21.2042077,39.9963462 C20.7915923,40.4131154 20.5631308,40.9593462 20.5631308,41.5450385 L20.5631308,46.8045 L21.7393615,46.8045 L21.7393615,45.9051923 L21.4693615,45.9051923 L21.4693615,41.5450385 C21.4693615,41.1961154 21.5974385,40.8811154 21.8466692,40.6415769 C22.0785923,40.3992692 22.4067462,40.2670385 22.7432077,40.2670385 L26.5495154,40.2670385 C26.8998231,40.2670385 27.2127462,40.3992692 27.4619769,40.6415769 C27.6911308,40.8811154 27.8275154,41.1961154 27.8275154,41.5450385 L27.8275154,45.9051923 L27.5512846,45.9051923 L27.5512846,46.8045 L28.7427462,46.8045 L28.7427462,41.5450385 C28.7427462,40.9593462 28.5135923,40.4131154 28.1023615,39.9963462" id="Fill-26" fill="#FFFFFF" sketch:type="MSShapeGroup" mask="url(#mask-2)"></path>
                <path d="M24.1993385,42.3375923 L25.1048769,42.3375923 L25.1048769,39.8099769 C25.1048769,39.7227462 25.0633385,39.6292846 24.9906462,39.5579769 C24.9193385,39.4845923 24.8404154,39.4534385 24.7428,39.4534385 L24.5614154,39.4534385 C24.4700308,39.4534385 24.3696462,39.4845923 24.2962615,39.5579769 C24.2270308,39.6292846 24.1993385,39.7227462 24.1993385,39.8099769 L24.1993385,42.3375923 Z" id="Fill-27" fill="#CCCBCA" sketch:type="MSShapeGroup" mask="url(#mask-2)"></path>
                <path d="M65.8949538,39.9963462 C65.4830308,39.5878846 64.9402615,39.3559615 64.3545692,39.3559615 L60.5482615,39.3559615 C59.9639538,39.3559615 59.4135692,39.5878846 58.9940308,39.9963462 C58.5834923,40.4131154 58.3536462,40.9593462 58.3536462,41.5450385 L58.3536462,46.8045 L59.5464923,46.8045 L59.5464923,45.9051923 L59.2716462,45.9051923 L59.2716462,41.5450385 C59.2716462,41.1961154 59.4052615,40.8811154 59.6392615,40.6415769 C59.8843385,40.3992692 60.1979538,40.2670385 60.5482615,40.2670385 L64.3545692,40.2670385 C64.6903385,40.2670385 65.0198769,40.3992692 65.2518,40.6415769 C65.4996462,40.8811154 65.6325692,41.1961154 65.6325692,41.5450385 L65.6325692,45.9051923 L65.3604923,45.9051923 L65.3604923,46.8045 L66.5339538,46.8045 L66.5339538,41.5450385 C66.5339538,40.9593462 66.3041077,40.4131154 65.8949538,39.9963462" id="Fill-28" fill="#FFFFFF" sketch:type="MSShapeGroup" mask="url(#mask-2)"></path>
                <path d="M61.9906154,42.3375923 L62.8968462,42.3375923 L62.8968462,39.8099769 C62.8968462,39.7227462 62.8705385,39.6292846 62.7992308,39.5579769 C62.7286154,39.4845923 62.631,39.4534385 62.5368462,39.4534385 L62.3589231,39.4534385 C62.2599231,39.4534385 62.1747692,39.4845923 62.1055385,39.5579769 C62.0349231,39.6292846 61.9906154,39.7227462 61.9906154,39.8099769 L61.9906154,42.3375923 Z" id="Fill-29" fill="#CCCBCA" sketch:type="MSShapeGroup" mask="url(#mask-2)"></path>
                <path d="M54.8163692,11.6448231 L52.6362923,11.6448231 L52.6362923,8.0109 C52.6362923,7.5249 52.4479846,7.07005385 52.1039077,6.72597692 C51.7605231,6.3819 51.3036,6.19220769 50.8196769,6.19220769 L36.2812154,6.19220769 C35.7966,6.19220769 35.3396769,6.3819 34.9962923,6.72597692 C34.6522154,7.06936154 34.4639077,7.5249 34.4639077,8.0109 L34.4639077,11.6448231 L32.2838308,11.6448231 L32.2838308,8.0109 C32.2838308,6.94336154 32.6985231,5.94020769 33.4545231,5.18282308 C34.2098308,4.42613077 35.2136769,4.01282308 36.2812154,4.01282308 L50.8196769,4.01282308 C51.8879077,4.01282308 52.8910615,4.42682308 53.6449846,5.18282308 C54.4016769,5.93951538 54.8163692,6.94266923 54.8163692,8.0109 L54.8163692,11.6448231 Z" id="Fill-30" fill="#353F49" sketch:type="MSShapeGroup" mask="url(#mask-2)"></path>
                <path d="M21.7394308,62.5375385 L15.1285846,62.5375385 L15.1285846,72.6528462 L18.4288154,69.3498462 L21.7394308,72.6528462 L21.7394308,62.5375385 Z" id="Fill-31" fill="#F87B55" sketch:type="MSShapeGroup" mask="url(#mask-2)"></path>
                <path d="M32.2643077,81.5097462 L26.2405385,79.6751308 L32.2643077,77.8398231 L32.2643077,81.5097462 Z" id="Fill-32" fill="#F2F2F2" sketch:type="MSShapeGroup" mask="url(#mask-2)"></path>
                <path d="M26.2407462,79.6748538 L32.2645154,81.5094692 L32.2645154,80.3567769 L26.2407462,79.6748538 Z" id="Fill-33" fill="#CCCBCA" sketch:type="MSShapeGroup" mask="url(#mask-2)"></path>
                <path d="M32.2643077,81.5095385 L83.9762308,81.5095385 L83.9762308,77.8396154 L32.2643077,77.8396154 L32.2643077,81.5095385 Z" id="Fill-34" fill="#FFDB79" sketch:type="MSShapeGroup" mask="url(#mask-2)"></path>
                <path d="M32.2643077,81.5095385 L83.9762308,81.5095385 L83.9762308,80.3568462 L32.2643077,80.3568462 L32.2643077,81.5095385 Z" id="Fill-35" fill="#FAB83E" sketch:type="MSShapeGroup" mask="url(#mask-2)"></path>
                <path d="M28.5999231,80.3901462 L26.2405385,79.6749923 L28.5999231,78.9556846 L28.5999231,80.3901462 Z" id="Fill-36" fill="#353F49" sketch:type="MSShapeGroup" mask="url(#mask-2)"></path>
                <path d="M28.5999231,80.3901462 L26.2405385,79.6749923 L28.5999231,79.9429154 L28.5999231,80.3901462 Z" id="Fill-37" fill="#232E38" sketch:type="MSShapeGroup" mask="url(#mask-2)"></path>
                <path d="M86.1043846,81.5095385 L83.9769231,81.5095385 L83.9769231,77.8396154 L86.1043846,77.8396154 L86.1043846,81.5095385 Z" id="Fill-38" fill="#FFFFFF" sketch:type="MSShapeGroup" mask="url(#mask-2)"></path>
                <path d="M86.1043846,81.5095385 L83.9769231,81.5095385 L83.9769231,80.3568462 L86.1043846,80.3568462 L86.1043846,81.5095385 Z" id="Fill-39" fill="#CCCBCA" sketch:type="MSShapeGroup" mask="url(#mask-2)"></path>
                <path d="M88.1647615,81.5097462 C88.6341462,81.5097462 89.1035308,81.3262846 89.4628385,80.9718231 C89.8228385,80.6111308 90.0000692,80.1438231 90.0000692,79.6751308 C90.0000692,79.2064385 89.8228385,78.7370538 89.4628385,78.3784385 C89.1035308,78.0219 88.6341462,77.8398231 88.1647615,77.8398231 L86.1037615,77.8398231 L86.1037615,81.5097462 L88.1647615,81.5097462 Z" id="Fill-40" fill="#F87B55" sketch:type="MSShapeGroup" mask="url(#mask-2)"></path>
                <path d="M89.4628385,78.3781615 C89.2537615,78.1739308 89.0052231,78.0320077 88.7483769,77.9461615 C88.8106846,78.1310077 88.8453,78.3283154 88.8453,78.5221615 C88.8453,78.9894692 88.6694538,79.4588538 88.3101462,79.8188538 C87.9501462,80.1795462 87.4807615,80.3567769 87.0113769,80.3567769 L86.1044538,80.3567769 L86.1044538,81.5094692 L88.1647615,81.5094692 C88.6341462,81.5094692 89.1035308,81.3267 89.4628385,80.9715462 C89.8235308,80.6115462 90.0000692,80.1442385 90.0000692,79.6748538 C90.0000692,79.2061615 89.8235308,78.7367769 89.4628385,78.3781615" id="Fill-41" fill="#EE643C" sketch:type="MSShapeGroup" mask="url(#mask-2)"></path>
            </g>
        </g>
    </g>
</svg>