<?xml version="1.0" encoding="UTF-8" standalone="no"?>
<svg width="100px" height="100px" viewBox="0 0 100 100" version="1.1" xmlns="http://www.w3.org/2000/svg" xmlns:xlink="http://www.w3.org/1999/xlink" xmlns:sketch="http://www.bohemiancoding.com/sketch/ns">
    <!-- Generator: Sketch 3.4 (15575) - http://www.bohemiancoding.com/sketch -->
    <title>1.04</title>
    <desc>Created with Sketch.</desc>
    <defs>
        <path id="path-1" d="M0,0 L91,0 L91,91 L0,91 L0,0 Z"></path>
    </defs>
    <g id="Page-1" stroke="none" stroke-width="1" fill="none" fill-rule="evenodd" sketch:type="MSPage">
        <g id="1.04" sketch:type="MSArtboardGroup">
            <g id="Page-1" sketch:type="MSLayerGroup" transform="translate(4.000000, 5.000000)">
                <path d="M91,45.5 C91,70.63 70.63,91 45.5,91 C20.37,91 0,70.63 0,45.5 C0,20.37 20.37,0 45.5,0 C70.63,0 91,20.37 91,45.5" id="Fill-1" fill="#FF916E" sketch:type="MSShapeGroup"></path>
                <path d="M15.78934,6.32632 L15.09564,5.63262 C15.52264,5.20562 16.05604,4.88642 16.68114,4.68272 L16.98494,5.61582 C16.50754,5.77052 16.10574,6.00992 15.78934,6.32632" id="Fill-3" fill="#474F59" sketch:type="MSShapeGroup"></path>
                <path d="M23.09216,6.32464 C21.96726,5.92774 20.92986,5.65404 20.00936,5.51054 L20.16056,4.54174 C21.14056,4.69364 22.23676,4.98274 23.41836,5.39994 L23.09216,6.32464 Z M28.96586,9.05604 C27.96696,8.50024 26.99536,7.99904 26.07696,7.56644 L26.49556,6.67884 C27.43356,7.12124 28.42476,7.63294 29.44326,8.19924 L28.96586,9.05604 Z M34.50636,12.49864 C33.57956,11.86864 32.65976,11.26804 31.77216,10.71434 L32.29086,9.88204 C33.18966,10.44274 34.12066,11.04964 35.05796,11.68734 L34.50636,12.49864 Z M39.78786,16.35004 C38.91426,15.67244 38.03576,15.01024 37.17616,14.38304 L37.75436,13.59064 C38.62166,14.22344 39.50786,14.89124 40.38916,15.57514 L39.78786,16.35004 Z M44.85096,20.49334 C44.01026,19.77024 43.17446,19.06884 42.34496,18.38914 L42.96656,17.63034 C43.80166,18.31494 44.64376,19.02124 45.49076,19.74924 L44.85096,20.49334 Z M49.71806,24.87184 C48.91376,24.11514 48.10946,23.37664 47.30866,22.65564 L47.96526,21.92624 C48.77096,22.65214 49.58016,23.39554 50.39006,24.15644 L49.71806,24.87184 Z M54.39476,29.45264 C54.01536,29.06554 53.63176,28.67844 53.24466,28.29134 C52.85686,27.90284 52.46836,27.51854 52.08056,27.13774 L52.76656,26.43704 C53.15786,26.82064 53.54846,27.20704 53.93836,27.59764 C54.32756,27.98684 54.71396,28.37674 55.09546,28.76664 L54.39476,29.45264 Z M58.87756,34.22384 C58.15726,33.42304 57.41806,32.61944 56.66136,31.81444 L57.37676,31.14244 C58.13766,31.95304 58.88176,32.76154 59.60696,33.56794 L58.87756,34.22384 Z M63.14476,39.18754 C62.46506,38.35804 61.76366,37.52224 61.04056,36.68154 L61.78466,36.04174 C62.51266,36.88874 63.21966,37.73084 63.90356,38.56594 L63.14476,39.18754 Z M67.15156,44.35704 C66.52996,43.50514 65.86776,42.62664 65.18456,41.74604 L65.95946,41.14404 C66.64896,42.03304 67.31676,42.91924 67.94396,43.77884 L67.15156,44.35704 Z M70.82096,49.76104 C70.26446,48.86924 69.66386,47.94944 69.03596,47.02684 L69.84656,46.47524 C70.48216,47.40834 71.08976,48.33934 71.65256,49.24094 L70.82096,49.76104 Z M73.96956,55.45624 C73.53626,54.53644 73.03436,53.56484 72.47926,52.56734 L73.33606,52.08994 C73.90236,53.10634 74.41406,54.09824 74.85646,55.03764 L73.96956,55.45624 Z M76.02616,61.52244 C75.88266,60.60194 75.60826,59.56524 75.21136,58.44104 L76.13606,58.11414 C76.55396,59.29574 76.84306,60.39124 76.99566,61.37194 L76.02616,61.52244 Z" id="Fill-5" fill="#474F59" sketch:type="MSShapeGroup"></path>
                <path d="M75.9059,66.44225 L75.2122,65.74855 C75.5286,65.43215 75.7673,65.02965 75.922,64.55295 L76.8551,64.85605 C76.6521,65.48115 76.3329,66.01525 75.9059,66.44225" id="Fill-7" fill="#474F59" sketch:type="MSShapeGroup"></path>
                <path d="M15.09578,66.4412 C10.36378,61.7085 20.01188,44.646 37.06108,27.5968 C45.12088,19.5377 53.54748,12.803 60.78898,8.6331 C68.20408,4.3652 73.57308,3.2984 75.90618,5.6315 L75.21178,6.3252 C73.25178,4.3645 68.17188,5.5153 61.27828,9.4836 C54.10888,13.6108 45.75508,20.2902 37.75548,28.2905 C21.64988,44.3954 11.59088,61.5482 15.78948,65.7475 L15.09578,66.4412 Z" id="Fill-9" fill="#474F59" sketch:type="MSShapeGroup"></path>
                <path d="M45.5014,10.3824 C31.3334,10.3859 19.8499,21.8687 19.8499,36.0374 C19.8499,43.5442 23.0783,50.2929 28.2128,54.9836 C28.4578,55.1964 28.7021,55.4043 28.9478,55.6199 C32.9588,59.276 35.4774,64.533 35.4774,70.3857 L35.4774,75.0295 L45.5014,75.0295 L55.5226,75.0295 L55.5226,70.3857 C55.5226,64.533 58.0419,59.276 62.0529,55.6199 C62.2979,55.4043 62.5422,55.1964 62.7872,54.9836 C67.9224,50.2929 71.1501,43.5442 71.1501,36.0374 C71.1501,21.8687 59.6673,10.3859 45.5014,10.3824" id="Fill-11" fill="#FFDB79" sketch:type="MSShapeGroup"></path>
                <path d="M47.32861,46.36541 L43.67391,34.18471 L42.33411,38.65281 L35.69181,38.65281 L35.69181,37.34521 L41.36111,37.34521 L43.67321,29.63191 L47.32861,41.81331 L48.66841,37.34521 L55.30861,37.34521 L55.30861,38.65281 L49.64211,38.65281 L47.32861,46.36541 Z" id="Fill-13" fill="#FFFFFF" sketch:type="MSShapeGroup"></path>
                <path d="M42.33838,75.60105 L35.11858,37.60925 L36.08178,37.42585 L43.30228,75.41765 L42.33838,75.60105 Z" id="Fill-15" fill="#353F49" sketch:type="MSShapeGroup"></path>
                <path d="M48.66022,75.60105 L47.69632,75.41765 L54.91892,37.42585 L55.88212,37.60925 L48.66022,75.60105 Z" id="Fill-17" fill="#353F49" sketch:type="MSShapeGroup"></path>
                <path d="M57.27218,37.99929 C57.27218,39.08359 56.39298,39.96069 55.30868,39.96069 C54.22578,39.96069 53.34658,39.08359 53.34658,37.99929 C53.34658,36.91499 54.22578,36.03719 55.30868,36.03719 C56.39298,36.03719 57.27218,36.91499 57.27218,37.99929" id="Fill-19" fill="#353F49" sketch:type="MSShapeGroup"></path>
                <path d="M37.65335,37.99929 C37.65335,39.08359 36.77415,39.96069 35.69195,39.96069 C34.60695,39.96069 33.73055,39.08359 33.73055,37.99929 C33.73055,36.91499 34.60695,36.03719 35.69195,36.03719 C36.77415,36.03719 37.65335,36.91499 37.65335,37.99929" id="Fill-21" fill="#353F49" sketch:type="MSShapeGroup"></path>
                <mask id="mask-2" sketch:name="Clip 24" fill="white">
                    <use xlink:href="#path-1"></use>
                </mask>
                <g id="Clip-24"></g>
                <path d="M56.6972,86.8616 L34.3035,86.8616 L34.3035,75.0274 L56.6972,75.0274 L56.6972,86.8616 Z" id="Fill-23" fill="#353F49" sketch:type="MSShapeGroup" mask="url(#mask-2)"></path>
                <path d="M57.7115,78.407 L33.2808,78.407 L33.2808,76.7228 L57.7115,76.7228 L57.7115,78.407 Z" id="Fill-25" fill="#474F59" sketch:type="MSShapeGroup" mask="url(#mask-2)"></path>
                <path d="M57.7115,81.7971 L33.2808,81.7971 L33.2808,80.1052 L57.7115,80.1052 L57.7115,81.7971 Z" id="Fill-26" fill="#474F59" sketch:type="MSShapeGroup" mask="url(#mask-2)"></path>
                <path d="M57.7115,85.1781 L33.2808,85.1781 L33.2808,83.4841 L57.7115,83.4841 L57.7115,85.1781 Z" id="Fill-27" fill="#474F59" sketch:type="MSShapeGroup" mask="url(#mask-2)"></path>
                <path d="M52.7779,91 L38.2221,91 L38.2221,86.8616 L52.7779,86.8616 L52.7779,91 Z" id="Fill-28" fill="#FFFFFF" sketch:type="MSShapeGroup" mask="url(#mask-2)"></path>
                <path d="M72.43978,67.64331 C65.31378,67.64331 51.18288,58.60001 37.06108,44.47751 C20.01258,27.42691 10.36448,10.36441 15.09508,5.63241 L15.78948,6.32611 C11.59228,10.52401 21.65058,27.67751 37.75478,43.78381 C53.85968,59.88871 71.01318,69.94911 75.21178,65.74841 L75.90618,66.44211 C75.09278,67.25481 73.91678,67.64331 72.43978,67.64331" id="Fill-29" fill="#474F59" sketch:type="MSShapeGroup" mask="url(#mask-2)"></path>
                <path d="M75.922,7.52059 C75.7673,7.04389 75.5286,6.64139 75.2122,6.32499 L75.9059,5.63129 C76.3329,6.05829 76.6521,6.59239 76.8551,7.21749 L75.922,7.52059 Z" id="Fill-30" fill="#474F59" sketch:type="MSShapeGroup" mask="url(#mask-2)"></path>
                <path d="M76.1383,13.95387 L75.2136,13.62767 C75.6105,12.50137 75.8842,11.46397 76.027,10.54557 L76.9965,10.69677 C76.8439,11.67467 76.5555,12.77087 76.1383,13.95387 M73.3383,19.97877 L72.4815,19.50207 C73.0373,18.50317 73.5385,17.53087 73.9711,16.61317 L74.8587,17.03107 C74.4163,17.96907 73.9053,18.96097 73.3383,19.97877 M69.8502,25.59347 L69.0382,25.04187 C69.6689,24.11507 70.2688,23.19527 70.8225,22.30767 L71.6555,22.82637 C71.0948,23.72587 70.4872,24.65617 69.8502,25.59347 M65.9631,30.92467 L65.1882,30.32337 C65.8679,29.44697 66.5294,28.56847 67.1552,27.71167 L67.9476,28.28987 C67.3162,29.15437 66.6484,30.04057 65.9631,30.92467 M61.7883,36.02697 L61.0449,35.38787 C61.7673,34.54647 62.4694,33.71067 63.1484,32.88117 L63.9072,33.50277 C63.2233,34.33857 62.517,35.18067 61.7883,36.02697 M57.3825,40.92627 L56.6671,40.25497 C57.4231,39.44927 58.1623,38.64567 58.8833,37.84487 L59.6127,38.50077 C58.8868,39.30717 58.1427,40.11567 57.3825,40.92627 M52.7723,45.63237 L52.0856,44.93167 C52.472,44.55227 52.8591,44.16937 53.2455,43.78297 C53.6347,43.39447 54.0197,43.00527 54.4005,42.61677 L55.1012,43.30277 C54.7176,43.69477 54.3305,44.08607 53.9392,44.47667 C53.55,44.86587 53.1615,45.25087 52.7723,45.63237 M47.9703,50.14317 L47.3137,49.41377 C48.1152,48.69347 48.9188,47.95427 49.7238,47.19827 L50.3958,47.91297 C49.5852,48.67457 48.7767,49.41797 47.9703,50.14317 M42.9723,54.43977 L42.3507,53.68097 C43.1802,53.00197 44.016,52.29987 44.8567,51.57677 L45.4965,52.32087 C44.6502,53.04957 43.8074,53.75587 42.9723,54.43977 M37.7601,58.48017 L37.1819,57.68777 C38.0408,57.06057 38.9193,56.39837 39.7929,55.72077 L40.3942,56.49567 C39.5136,57.17957 38.6274,57.84737 37.7601,58.48017 M32.2973,62.18877 L31.7772,61.35717 C32.669,60.80067 33.5888,60.20007 34.5114,59.57217 L35.063,60.38347 C34.1299,61.01837 33.1989,61.62597 32.2973,62.18877 M26.5006,65.39197 L26.0827,64.50507 C27.0018,64.07177 27.9734,63.56987 28.9716,63.01477 L29.4483,63.87227 C28.4319,64.43787 27.44,64.94957 26.5006,65.39197 M20.167,67.53117 L20.0158,66.56167 C20.9363,66.41817 21.973,66.14447 23.0979,65.74687 L23.4241,66.67227 C22.2425,67.08947 21.147,67.37857 20.167,67.53117" id="Fill-31" fill="#474F59" sketch:type="MSShapeGroup" mask="url(#mask-2)"></path>
                <path d="M16.68205,67.3904 C16.05695,67.1874 15.52285,66.8682 15.09585,66.4412 L15.78955,65.7475 C16.10595,66.0639 16.50845,66.3026 16.98515,66.4573 L16.68205,67.3904 Z" id="Fill-32" fill="#474F59" sketch:type="MSShapeGroup" mask="url(#mask-2)"></path>
                <path d="M79.55941,8.59824 C79.55941,10.22154 78.24341,11.54034 76.62011,11.54034 C74.99401,11.54034 73.67521,10.22154 73.67521,8.59824 C73.67521,6.97284 74.99401,5.65544 76.62011,5.65544 C78.24341,5.65544 79.55941,6.97284 79.55941,8.59824" id="Fill-33" fill="#474F59" sketch:type="MSShapeGroup" mask="url(#mask-2)"></path>
                <path d="M77.74753,5.88098 C78.12133,6.34928 78.34673,6.93868 78.34673,7.58758 C78.34673,9.09958 77.11893,10.32668 75.60903,10.32668 C74.96083,10.32668 74.37213,10.10128 73.90103,9.72538 C74.34413,10.79008 75.39063,11.53978 76.61983,11.53978 C78.24313,11.53978 79.55913,10.22168 79.55913,8.59838 C79.55913,7.37268 78.81433,6.32268 77.74753,5.88098" id="Fill-34" fill="#232E38" sketch:type="MSShapeGroup" mask="url(#mask-2)"></path>
                <path d="M65.24903,63.72772 C65.24903,65.35172 63.93163,66.66982 62.30903,66.66982 C60.68293,66.66982 59.36413,65.35172 59.36413,63.72772 C59.36413,62.10162 60.68293,60.78422 62.30903,60.78422 C63.93163,60.78422 65.24903,62.10162 65.24903,63.72772" id="Fill-35" fill="#474F59" sketch:type="MSShapeGroup" mask="url(#mask-2)"></path>
                <path d="M63.43582,61.01074 C63.80962,61.47904 64.03642,62.06844 64.03642,62.71594 C64.03642,64.22864 62.80792,65.45714 61.29662,65.45714 C60.64982,65.45714 60.06112,65.23174 59.59072,64.85514 C60.03242,65.91914 61.08032,66.66954 62.30952,66.66954 C63.93142,66.66954 65.24882,65.35144 65.24882,63.72744 C65.24882,62.50314 64.50332,61.45174 63.43582,61.01074" id="Fill-36" fill="#232E38" sketch:type="MSShapeGroup" mask="url(#mask-2)"></path>
            </g>
        </g>
    </g>
</svg>