<?xml version="1.0" encoding="UTF-8" standalone="no"?>
<svg width="100px" height="100px" viewBox="0 0 100 100" version="1.1" xmlns="http://www.w3.org/2000/svg" xmlns:xlink="http://www.w3.org/1999/xlink" xmlns:sketch="http://www.bohemiancoding.com/sketch/ns">
    <!-- Generator: Sketch 3.4 (15575) - http://www.bohemiancoding.com/sketch -->
    <title>1.05</title>
    <desc>Created with Sketch.</desc>
    <defs>
        <path id="path-1" d="M0,0.413118056 L100.400312,0.413118056 L100.400312,98.1944444 L0,98.1944444 L0,0.413118056 Z"></path>
    </defs>
    <g id="Page-1" stroke="none" stroke-width="1" fill="none" fill-rule="evenodd" sketch:type="MSPage">
        <g id="1.05" sketch:type="MSArtboardGroup">
            <g id="Page-1" sketch:type="MSLayerGroup" transform="translate(0.000000, -1.000000)">
                <path d="M96.2567174,51.3089118 C96.2567174,76.4887729 75.8463007,96.8991896 50.6664396,96.8991896 C25.4865785,96.8991896 5.07616181,76.4887729 5.07616181,51.3089118 C5.07616181,26.1290507 25.4865785,5.71863403 50.6664396,5.71863403 C75.8463007,5.71863403 96.2567174,26.1290507 96.2567174,51.3089118" id="Fill-1" fill="#FFDB79" sketch:type="MSShapeGroup"></path>
                <mask id="mask-2" sketch:name="Clip 4" fill="white">
                    <use xlink:href="#path-1"></use>
                </mask>
                <g id="Clip-4"></g>
                <path d="M51.2462778,51.3087014 L50.0875833,51.3087014 L50.0875833,49.8603333 L51.2462778,49.8603333 L51.2462778,51.3087014 Z" id="Fill-3" fill="#FFFFFF" sketch:type="MSShapeGroup" mask="url(#mask-2)"></path>
                <path d="M51.2462778,24.8600278 L50.0875833,24.8600278 L50.0875833,22.0818264 L51.2462778,22.0818264 L51.2462778,24.8600278 Z M51.2462778,30.4157292 L50.0875833,30.4157292 L50.0875833,27.6375278 L51.2462778,27.6375278 L51.2462778,30.4157292 Z M51.2462778,35.9714306 L50.0875833,35.9714306 L50.0875833,33.1932292 L51.2462778,33.1932292 L51.2462778,35.9714306 Z M51.2462778,41.5271319 L50.0875833,41.5271319 L50.0875833,38.7489306 L51.2462778,38.7489306 L51.2462778,41.5271319 Z M51.2462778,47.0828333 L50.0875833,47.0828333 L50.0875833,44.3046319 L51.2462778,44.3046319 L51.2462778,47.0828333 Z" id="Fill-5" fill="#FFFFFF" sketch:type="MSShapeGroup" mask="url(#mask-2)"></path>
                <path d="M51.2462778,19.3043264 L50.0875833,19.3043264 L50.0875833,17.8559583 L51.2462778,17.8559583 L51.2462778,19.3043264 Z" id="Fill-6" fill="#FFFFFF" sketch:type="MSShapeGroup" mask="url(#mask-2)"></path>
                <path d="M51.2462778,52.7577708 L50.0875833,52.7577708 L50.0875833,51.3094028 L51.2462778,51.3094028 L51.2462778,52.7577708 Z" id="Fill-7" fill="#FFFFFF" sketch:type="MSShapeGroup" mask="url(#mask-2)"></path>
                <path d="M51.2462778,58.3127708 L50.0875833,58.3127708 L50.0875833,55.5352708 L51.2462778,55.5352708 L51.2462778,58.3127708 Z M51.2455764,63.8684722 L50.0868819,63.8684722 L50.0868819,61.0909722 L51.2462778,61.0909722 L51.2455764,63.8684722 Z M51.2455764,69.4234722 L50.0868819,69.4234722 L50.0868819,66.6452708 L51.2455764,66.6452708 L51.2455764,69.4234722 Z M51.2455764,74.9784722 L50.0868819,74.9784722 L50.0868819,72.2009722 L51.2455764,72.2009722 L51.2455764,74.9784722 Z M51.2455764,80.5341736 L50.0868819,80.5341736 L50.0868819,77.7566736 L51.2455764,77.7566736 L51.2455764,80.5341736 Z" id="Fill-8" fill="#FFFFFF" sketch:type="MSShapeGroup" mask="url(#mask-2)"></path>
                <path d="M51.2455764,84.7607431 L50.0868819,84.7607431 L50.0868819,83.3116736 L51.2455764,83.3116736 L51.2455764,84.7607431 Z" id="Fill-9" fill="#FFFFFF" sketch:type="MSShapeGroup" mask="url(#mask-2)"></path>
                <path d="M21.9862271,68.536075 L21.4068799,67.5316861 L22.6609632,66.8078528 L23.2403104,67.8122417 L21.9862271,68.536075 Z" id="Fill-10" fill="#FFFFFF" sketch:type="MSShapeGroup" mask="url(#mask-2)"></path>
                <path d="M44.8912736,55.3124396 L44.3119264,54.3080507 L46.7176903,52.9200021 L47.2970375,53.924391 L44.8912736,55.3124396 Z M40.0797458,58.090641 L39.5003986,57.0862521 L41.9061625,55.6975021 L42.4855097,56.7011896 L40.0797458,58.090641 Z M35.2689194,60.868141 L34.6895722,59.8637521 L37.0946347,58.4750021 L37.6739819,59.4786896 L35.2689194,60.868141 Z M30.4573917,63.645641 L29.8780444,62.6412521 L32.2838083,61.2525021 L32.8631556,62.2561896 L30.4573917,63.645641 Z M25.6458639,66.423141 L25.0665167,65.4187521 L27.4722806,64.0300021 L28.0516278,65.0336896 L25.6458639,66.423141 Z" id="Fill-11" fill="#FFFFFF" sketch:type="MSShapeGroup" mask="url(#mask-2)"></path>
                <path d="M49.7023806,52.5349396 L49.1230333,51.5305507 L49.5080958,51.3089118 L49.1230333,51.0872729 L49.7023806,50.082884 L51.8261861,51.3089118 L49.7023806,52.5349396 Z" id="Fill-12" fill="#FFFFFF" sketch:type="MSShapeGroup" mask="url(#mask-2)"></path>
                <path d="M27.4723507,38.5873306 L25.0665868,37.1985806 L25.645934,36.1941917 L28.0516979,37.5829417 L27.4723507,38.5873306 Z M32.2838785,41.3648306 L29.8781146,39.9760806 L30.4574618,38.9716917 L32.8632257,40.3604417 L32.2838785,41.3648306 Z M37.0947049,44.1423306 L34.688941,42.7535806 L35.2689896,41.7498931 L37.6740521,43.1379417 L37.0947049,44.1423306 Z M41.9062326,46.9205319 L39.5004687,45.5310806 L40.079816,44.5273931 L42.4855799,45.9161431 L41.9062326,46.9205319 Z M46.717059,49.6980319 L44.3119965,48.3085806 L44.8913437,47.3048931 L47.2971076,48.6936431 L46.717059,49.6980319 Z" id="Fill-13" fill="#FFFFFF" sketch:type="MSShapeGroup" mask="url(#mask-2)"></path>
                <path d="M22.6612438,35.8091993 L21.406459,35.085366 L21.9865076,34.0809771 L23.240591,34.8048104 L22.6612438,35.8091993 Z" id="Fill-14" fill="#FFFFFF" sketch:type="MSShapeGroup" mask="url(#mask-2)"></path>
                <path d="M78.6712847,35.8091993 L78.0919375,34.8048104 L79.3460208,34.0809771 L79.9253681,35.085366 L78.6712847,35.8091993 Z" id="Fill-15" fill="#FFFFFF" sketch:type="MSShapeGroup" mask="url(#mask-2)"></path>
                <path d="M73.8602479,38.5873306 L73.2809007,37.5829417 L75.6866646,36.1941917 L76.2660118,37.1985806 L73.8602479,38.5873306 Z M69.0494215,41.3648306 L68.4693729,40.3604417 L70.8751368,38.9716917 L71.454484,39.9760806 L69.0494215,41.3648306 Z M64.2385951,44.1423306 L63.6592479,43.1379417 L66.0650118,41.7498931 L66.644359,42.7535806 L64.2385951,44.1423306 Z M59.4277687,46.9205319 L58.8484215,45.9161431 L61.253484,44.5273931 L61.8335326,45.5310806 L59.4277687,46.9205319 Z M54.616241,49.6980319 L54.0368937,48.6936431 L56.4426576,47.3048931 L57.0220049,48.3085806 L54.616241,49.6980319 Z" id="Fill-16" fill="#FFFFFF" sketch:type="MSShapeGroup" mask="url(#mask-2)"></path>
                <path d="M51.6315507,52.5349396 L49.5084465,51.3089118 L51.6315507,50.082884 L52.2108979,51.0872729 L51.8258354,51.3089118 L52.2108979,51.5305507 L51.6315507,52.5349396 Z" id="Fill-17" fill="#FFFFFF" sketch:type="MSShapeGroup" mask="url(#mask-2)"></path>
                <path d="M56.4426576,55.313141 L54.0368937,53.924391 L54.616241,52.9200021 L57.0220049,54.3087521 L56.4426576,55.313141 Z M61.253484,58.090641 L58.8484215,56.7011896 L59.4277687,55.6975021 L61.8335326,57.0862521 L61.253484,58.090641 Z M66.0643104,60.868141 L63.6585465,59.4786896 L64.2378938,58.4750021 L66.6436576,59.8637521 L66.0643104,60.868141 Z M70.8751368,63.645641 L68.4693729,62.2561896 L69.0494215,61.2525021 L71.454484,62.6412521 L70.8751368,63.645641 Z M75.6859632,66.423141 L73.2809007,65.0336896 L73.8602479,64.0300021 L76.2660118,65.4187521 L75.6859632,66.423141 Z" id="Fill-18" fill="#FFFFFF" sketch:type="MSShapeGroup" mask="url(#mask-2)"></path>
                <path d="M79.3459507,68.536075 L78.0918674,67.8122417 L78.6712146,66.8078528 L79.9252979,67.5316861 L79.3459507,68.536075 Z" id="Fill-19" fill="#FFFFFF" sketch:type="MSShapeGroup" mask="url(#mask-2)"></path>
                <path d="M50.6657382,85.4297278 L49.1212799,84.5389639 L49.7006271,83.534575 L50.6657382,84.0914778 L51.6301479,83.534575 L52.2094951,84.5389639 L50.6657382,85.4297278 Z" id="Fill-20" fill="#FFFFFF" sketch:type="MSShapeGroup" mask="url(#mask-2)"></path>
                <path d="M27.4726312,72.03825 L25.0668674,70.6495 L25.6462146,69.6451111 L28.0519785,71.0338611 L27.4726312,72.03825 Z M32.2834576,74.81575 L29.8783951,73.427 L30.4577424,72.4233125 L32.8635062,73.8113611 L32.2834576,74.81575 Z M37.094284,77.5939514 L34.6892215,76.2045 L35.2685688,75.2008125 L37.6736312,76.5895625 L37.094284,77.5939514 Z M41.9058118,80.3714514 L39.5000479,78.9827014 L40.0793951,77.9790139 L42.485159,79.3670625 L41.9058118,80.3714514 Z M46.7166382,83.1496528 L44.3108743,81.7602014 L44.8902215,80.7565139 L47.2959854,82.1452639 L46.7166382,83.1496528 Z" id="Fill-21" fill="#FFFFFF" sketch:type="MSShapeGroup" mask="url(#mask-2)"></path>
                <path d="M22.6615944,69.2601188 L21.1171361,68.3686535 L21.1171361,66.5850215 L22.2765319,66.5850215 L22.2765319,67.6995285 L23.2409417,68.2557299 L22.6615944,69.2601188 Z" id="Fill-22" fill="#FFFFFF" sketch:type="MSShapeGroup" mask="url(#mask-2)"></path>
                <path d="M22.2761111,41.58675 L21.1174167,41.58675 L21.1174167,38.80925 L22.2761111,38.80925 L22.2761111,41.58675 Z M22.2761111,47.1424514 L21.1174167,47.1424514 L21.1174167,44.36425 L22.2761111,44.36425 L22.2761111,47.1424514 Z M21.1174167,52.6974514 L21.1167153,49.9199514 L22.2761111,49.9199514 L22.2761111,52.6974514 L21.1174167,52.6974514 Z M22.2761111,58.2531528 L21.1174167,58.2531528 L21.1174167,55.4749514 L22.2761111,55.4749514 L22.2761111,58.2531528 Z M22.2761111,63.8081528 L21.1174167,63.8081528 L21.1174167,61.0306528 L22.2761111,61.0306528 L22.2761111,63.8081528 Z" id="Fill-23" fill="#FFFFFF" sketch:type="MSShapeGroup" mask="url(#mask-2)"></path>
                <path d="M22.2759708,36.0318201 L21.1172764,36.0318201 L21.1172764,34.2488896 L22.6610333,33.3567229 L23.2403806,34.3611118 L22.2759708,34.9173132 L22.2759708,36.0318201 Z" id="Fill-24" fill="#FFFFFF" sketch:type="MSShapeGroup" mask="url(#mask-2)"></path>
                <path d="M44.8905722,21.8601875 L44.311225,20.8557986 L46.7169889,19.4670486 L47.2963361,20.4714375 L44.8905722,21.8601875 Z M40.0797458,24.6383889 L39.4996972,23.634 L41.9054611,22.24525 L42.4848083,23.2489375 L40.0797458,24.6383889 Z M35.2682181,27.4158889 L34.6888708,26.4115 L37.0946347,25.0234514 L37.6739819,26.0271389 L35.2682181,27.4158889 Z M30.4573917,30.1940903 L29.8780444,29.1897014 L32.2831069,27.8009514 L32.8631556,28.8046389 L30.4573917,30.1940903 Z M25.6465653,32.9722917 L25.0665167,31.9679028 L27.4722806,30.5791528 L28.0516278,31.5828403 L25.6465653,32.9722917 Z" id="Fill-25" fill="#FFFFFF" sketch:type="MSShapeGroup" mask="url(#mask-2)"></path>
                <path d="M49.7016792,19.0819861 L49.1223319,18.0775972 L50.6667903,17.1868333 L52.2105472,18.0775972 L51.6312,19.0819861 L50.6667903,18.5250833 L49.7016792,19.0819861 Z" id="Fill-26" fill="#FFFFFF" sketch:type="MSShapeGroup" mask="url(#mask-2)"></path>
                <path d="M56.4419562,21.8601875 L54.0361924,20.4714375 L54.6155396,19.4670486 L57.0213035,20.8557986 L56.4419562,21.8601875 Z M61.2527826,24.6383889 L58.8477201,23.2489375 L59.4270674,22.24525 L61.8328312,23.634 L61.2527826,24.6383889 Z M66.0643104,27.4158889 L63.6585465,26.0264375 L64.2378937,25.02275 L66.6436576,26.4115 L66.0643104,27.4158889 Z M70.8744354,30.1933889 L68.4693729,28.8039375 L69.0494215,27.8016528 L71.4537826,29.1904028 L70.8744354,30.1933889 Z M75.6859632,32.9722917 L73.2801993,31.5828403 L73.8595465,30.5791528 L76.2653104,31.9679028 L75.6859632,32.9722917 Z" id="Fill-27" fill="#FFFFFF" sketch:type="MSShapeGroup" mask="url(#mask-2)"></path>
                <path d="M80.2151819,36.0318201 L79.0564875,36.0318201 L79.0564875,34.9173132 L78.0920778,34.3611118 L78.671425,33.3567229 L80.2151819,34.2488896 L80.2151819,36.0318201 Z" id="Fill-28" fill="#FFFFFF" sketch:type="MSShapeGroup" mask="url(#mask-2)"></path>
                <path d="M80.2150417,41.58675 L79.0563472,41.58675 L79.0563472,38.80925 L80.2150417,38.80925 L80.2150417,41.58675 Z M80.2150417,47.1424514 L79.0563472,47.1424514 L79.0563472,44.36425 L80.2150417,44.36425 L80.2150417,47.1424514 Z M80.2150417,52.6974514 L79.0563472,52.6974514 L79.0563472,49.9199514 L80.2150417,49.9199514 L80.2150417,52.6974514 Z M80.2150417,58.2531528 L79.0563472,58.2531528 L79.0563472,55.4749514 L80.2150417,55.4749514 L80.2150417,58.2531528 Z M80.2150417,63.8081528 L79.0563472,63.8081528 L79.0563472,61.0306528 L80.2150417,61.0306528 L80.2150417,63.8081528 Z" id="Fill-29" fill="#FFFFFF" sketch:type="MSShapeGroup" mask="url(#mask-2)"></path>
                <path d="M78.6712847,69.2601188 L78.0919375,68.2557299 L79.0563472,67.6995285 L79.0563472,66.5850215 L80.2150417,66.5850215 L80.2150417,68.3686535 L78.6712847,69.2601188 Z" id="Fill-30" fill="#FFFFFF" sketch:type="MSShapeGroup" mask="url(#mask-2)"></path>
                <path d="M73.8602479,72.03825 L73.2809007,71.0338611 L75.6866646,69.6451111 L76.2660118,70.6495 L73.8602479,72.03825 Z M69.0494215,74.81575 L68.4693729,73.8113611 L70.8751368,72.4226111 L71.454484,73.427 L69.0494215,74.81575 Z M64.2378938,77.5939514 L63.6585465,76.5895625 L66.0643104,75.2008125 L66.6436576,76.2045 L64.2378938,77.5939514 Z M59.4270674,80.3714514 L58.8477201,79.3670625 L61.2527826,77.9783125 L61.8328313,78.982 L59.4270674,80.3714514 Z M54.616241,83.1496528 L54.0361924,82.1452639 L56.4419563,80.7565139 L57.0213035,81.7602014 L54.616241,83.1496528 Z" id="Fill-31" fill="#FFFFFF" sketch:type="MSShapeGroup" mask="url(#mask-2)"></path>
                <path d="M54.4289,49.1362194 C55.6296778,51.2144347 54.9177681,53.8741014 52.8395528,55.0720736 C50.7599347,56.2735528 48.1023722,55.5609417 46.9029972,53.4827264 C45.7029208,51.4045111 46.4148306,48.7448444 48.4937472,47.5461708 C50.5719625,46.3453931 53.2302264,47.0573028 54.4289,49.1362194" id="Fill-32" fill="#92DEEC" sketch:type="MSShapeGroup" mask="url(#mask-2)"></path>
                <path d="M25.4599257,32.4104792 C26.6593007,34.4886944 25.947391,37.1476597 23.8691757,38.3456319 C21.7909604,39.5478125 19.1333979,38.8337986 17.9333215,36.7562847 C16.7332451,34.6780694 17.4451549,32.0205069 19.5240715,30.8190278 C21.6022868,29.6189514 24.2598493,30.3315625 25.4599257,32.4104792" id="Fill-33" fill="#92DEEC" sketch:type="MSShapeGroup" mask="url(#mask-2)"></path>
                <path d="M54.4289,15.6839674 C55.6296778,17.7635854 54.9177681,20.4211479 52.8402542,21.6198215 C50.7606361,22.8205993 48.1030736,22.1086896 46.9036986,20.0297729 C45.7029208,17.952259 46.4155319,15.2939951 48.4944486,14.0939188 C50.5719625,12.8945438 53.2302264,13.6071549 54.4289,15.6839674" id="Fill-34" fill="#FFFFFF" sketch:type="MSShapeGroup" mask="url(#mask-2)"></path>
                <path d="M83.3994875,32.4104792 C84.5988625,34.4886944 83.8869528,37.1469583 81.8073347,38.3456319 C79.7305222,39.5471111 77.0722583,38.8337986 75.8742861,36.7562847 C74.6721056,34.6780694 75.3847167,32.0198056 77.4622306,30.8190278 C79.5411472,29.6189514 82.1980083,30.3315625 83.3994875,32.4104792" id="Fill-35" fill="#92DEEC" sketch:type="MSShapeGroup" mask="url(#mask-2)"></path>
                <path d="M83.3994875,65.8606972 C84.5988625,67.9396139 83.8869528,70.5971764 81.8073347,71.7972528 C79.7291194,72.9987319 77.0722583,72.2861208 75.8742861,70.2065028 C74.6721056,68.1275861 75.3833139,65.4700236 77.4622306,64.2706486 C79.5411472,63.0705722 82.1980083,63.7824819 83.3994875,65.8606972" id="Fill-36" fill="#FFFFFF" sketch:type="MSShapeGroup" mask="url(#mask-2)"></path>
                <path d="M54.4289,82.5865076 C55.6296778,84.6654243 54.9177681,87.3222854 52.8388514,88.5237646 C50.7606361,89.7224382 48.1023722,89.0105285 46.9036986,86.9323132 C45.7029208,84.8540979 46.4155319,82.195834 48.4930458,80.9971604 C50.5719625,79.7963826 53.2302264,80.5089938 54.4289,82.5865076" id="Fill-37" fill="#92DEEC" sketch:type="MSShapeGroup" mask="url(#mask-2)"></path>
                <path d="M25.4599257,65.8606972 C26.6593007,67.9396139 25.947391,70.5971764 23.8684743,71.7979542 C21.790259,72.9987319 19.1333979,72.2861208 17.9333215,70.2065028 C16.7332451,68.1282875 17.4444535,65.4700236 19.5240715,64.27135 C21.6022868,63.0705722 24.2598493,63.7831833 25.4599257,65.8606972" id="Fill-38" fill="#FFFFFF" sketch:type="MSShapeGroup" mask="url(#mask-2)"></path>
                <path d="M91.1661771,42.4367632 C90.197559,42.4367632 89.4127049,41.6512076 89.4127049,40.683291 C89.4127049,39.7146729 90.197559,38.9298188 91.1661771,38.9298188 C92.1347951,38.9298188 92.9196493,39.7146729 92.9196493,40.683291 C92.9196493,41.6512076 92.1347951,42.4367632 91.1661771,42.4367632" id="Fill-39" fill="#D9D8D7" sketch:type="MSShapeGroup" mask="url(#mask-2)"></path>
                <path d="M63.5524264,6.02408889 C62.0030583,6.02408889 60.7468708,4.76790139 60.7468708,3.21923472 C60.7468708,1.67056806 62.0030583,0.412977778 63.5524264,0.412977778 C65.1017944,0.412977778 66.3579819,1.67056806 66.3579819,3.21923472 C66.3579819,4.76790139 65.1017944,6.02408889 63.5524264,6.02408889" id="Fill-40" fill="#92DEEC" sketch:type="MSShapeGroup" mask="url(#mask-2)"></path>
                <path d="M1.66102917,52.0965715 C0.7436125,52.0965715 0.000140277778,51.3523979 0.000140277778,50.4356826 C0.000140277778,49.5175646 0.7436125,48.7740924 1.66102917,48.7740924 C2.57914722,48.7740924 3.32261944,49.5175646 3.32261944,50.4356826 C3.32261944,51.3523979 2.57914722,52.0965715 1.66102917,52.0965715" id="Fill-41" fill="#92DEEC" sketch:type="MSShapeGroup" mask="url(#mask-2)"></path>
                <path d="M76.6274375,98.1944444 C75.3228542,98.1944444 74.2651597,97.1360486 74.2651597,95.8321667 C74.2651597,94.5261806 75.3228542,93.4691875 76.6274375,93.4691875 C77.9320208,93.4691875 78.9897153,94.5261806 78.9897153,95.8321667 C78.9897153,97.1360486 77.9320208,98.1944444 76.6274375,98.1944444" id="Fill-42" fill="#D9D8D7" sketch:type="MSShapeGroup" mask="url(#mask-2)"></path>
                <path d="M96.8944201,74.4971792 C94.957184,74.4971792 93.3874757,72.9253667 93.3874757,70.9902347 C93.3874757,69.0544014 94.957184,67.4832903 96.8944201,67.4832903 C98.8302535,67.4832903 100.400663,69.0544014 100.400663,70.9902347 C100.400663,72.9253667 98.8302535,74.4971792 96.8944201,74.4971792" id="Fill-43" fill="#92DEEC" sketch:type="MSShapeGroup" mask="url(#mask-2)"></path>
                <path d="M18.0953424,92.6292042 C15.4454951,92.6292042 13.2957382,90.4794472 13.2957382,87.8288986 C13.2957382,85.1769472 15.4454951,83.0285931 18.0953424,83.0285931 C20.745891,83.0285931 22.8956479,85.1769472 22.8956479,87.8288986 C22.8956479,90.4794472 20.745891,92.6292042 18.0953424,92.6292042" id="Fill-44" fill="#D9D8D7" sketch:type="MSShapeGroup" mask="url(#mask-2)"></path>
                <path d="M21.5591514,20.5978278 C19.2347486,20.5978278 17.3501167,18.7138972 17.3501167,16.3901958 C17.3501167,14.0643903 19.2347486,12.1811611 21.5591514,12.1811611 C23.8835542,12.1811611 25.7681861,14.0643903 25.7681861,16.3901958 C25.7681861,18.7138972 23.8835542,20.5978278 21.5591514,20.5978278" id="Fill-45" fill="#D9D8D7" sketch:type="MSShapeGroup" mask="url(#mask-2)"></path>
            </g>
        </g>
    </g>
</svg>