<?xml version="1.0" encoding="UTF-8" standalone="no"?>
<svg width="100px" height="100px" viewBox="0 0 100 100" version="1.1" xmlns="http://www.w3.org/2000/svg" xmlns:xlink="http://www.w3.org/1999/xlink" xmlns:sketch="http://www.bohemiancoding.com/sketch/ns">
    <!-- Generator: Sketch 3.4 (15575) - http://www.bohemiancoding.com/sketch -->
    <title>1.06</title>
    <desc>Created with Sketch.</desc>
    <defs>
        <path id="path-1" d="M0,0.0910828025 L109.810828,0.0910828025 L109.810828,92.4840764 L0,92.4840764 L0,0.0910828025 Z"></path>
    </defs>
    <g id="Page-1" stroke="none" stroke-width="1" fill="none" fill-rule="evenodd" sketch:type="MSPage">
        <g id="1.06" sketch:type="MSArtboardGroup">
            <g id="Page-1" sketch:type="MSLayerGroup" transform="translate(-3.000000, 3.000000)">
                <path d="M98.0693439,46.9426752 C98.0693439,72.0955414 77.6808089,92.4840764 52.5279427,92.4840764 C27.3750764,92.4840764 6.9865414,72.0955414 6.9865414,46.9426752 C6.9865414,21.7898089 27.3750764,1.40127389 52.5279427,1.40127389 C77.6808089,1.40127389 98.0693439,21.7898089 98.0693439,46.9426752" id="Fill-1" fill="#ADECF8" sketch:type="MSShapeGroup"></path>
                <mask id="mask-2" sketch:name="Clip 4" fill="white">
                    <use xlink:href="#path-1"></use>
                </mask>
                <g id="Clip-4"></g>
                <path d="M87.9978981,70.9282803 L17.0584076,70.9282803 L17.0584076,22.1695541 L87.9978981,22.1695541 L87.9978981,70.9282803 Z" id="Fill-3" fill="#FFFFFF" sketch:type="MSShapeGroup" mask="url(#mask-2)"></path>
                <path d="M87.9978981,15.8638217 L17.0584076,15.8638217 L17.0584076,22.1695541 L87.9978981,22.1695541 L87.9978981,15.8638217 Z" id="Fill-5" fill="#353F49" sketch:type="MSShapeGroup" mask="url(#mask-2)"></path>
                <path d="M33.0763694,45.7466879 L31.3086624,45.7466879 C30.5701911,45.7466879 29.8751592,45.4580255 29.3559873,44.9325478 C28.835414,44.4224841 28.5467516,43.7274522 28.5467516,42.9840764 C28.5467516,42.2442038 28.8340127,41.5519745 29.3580892,41.03 C29.8681529,40.5143312 30.5624841,40.2305732 31.3086624,40.2305732 L35.1369427,40.2305732 L35.1369427,41.6178344 L31.3086624,41.6178344 C30.9373248,41.6178344 30.5912102,41.7600637 30.3410828,42.0129936 C30.0825478,42.2729299 29.9375159,42.6176433 29.9375159,42.9840764 C29.9375159,43.3533121 30.0804459,43.6952229 30.3361783,43.9488535 C30.5989172,44.2136943 30.9422293,44.3566242 31.3086624,44.3566242 L33.0763694,44.3566242 L33.0763694,45.7466879 Z" id="Fill-6" fill="#353F49" sketch:type="MSShapeGroup" mask="url(#mask-2)"></path>
                <path d="M33.0763694,49.8738599 L29.2431847,49.8738599 L29.2431847,48.4851975 L33.0763694,48.4851975 C33.44,48.4851975 33.7861146,48.3408662 34.0495541,48.0809299 C34.3024841,47.8294013 34.4440127,47.4867898 34.4440127,47.1175541 C34.4440127,46.7469172 34.3038854,46.4071083 34.0509554,46.1534777 C33.7861146,45.8893376 33.44,45.7464076 33.0763694,45.7464076 L31.3086624,45.7464076 L31.3086624,44.3563439 L33.0763694,44.3563439 C33.8120382,44.3563439 34.5070701,44.6443057 35.0248408,45.1676815 C35.5489172,45.6770446 35.8361783,46.3734777 35.8361783,47.1175541 C35.8361783,47.8581274 35.5496178,48.5531592 35.0220382,49.0716306 C34.5021656,49.5908025 33.8078344,49.8738599 33.0763694,49.8738599" id="Fill-7" fill="#353F49" sketch:type="MSShapeGroup" mask="url(#mask-2)"></path>
                <path d="M32.8857962,50.3582803 L31.498535,50.3582803 L31.498535,39.7450318 L32.8857962,39.7450318 L32.8857962,50.3582803 Z" id="Fill-8" fill="#353F49" sketch:type="MSShapeGroup" mask="url(#mask-2)"></path>
                <path d="M40.5411656,45.0518662 C40.5411656,47.3576624 39.6065159,49.4455605 38.0938408,50.9561338 L40.5523758,53.4139682 C42.692121,51.272121 44.0149236,48.3168344 44.0149236,45.0518662 L40.5411656,45.0518662 Z" id="Fill-9" fill="#D9D8D7" sketch:type="MSShapeGroup" mask="url(#mask-2)"></path>
                <path d="M32.1909745,36.7016752 C36.800465,36.7016752 40.5411656,40.4395732 40.5411656,45.0511656 L40.5411656,45.0518662 L44.0149236,45.0518662 C44.0149236,38.5226306 38.7202102,33.2286178 32.1895732,33.2286178 L32.1895732,36.7016752 L32.1909745,36.7016752 Z" id="Fill-10" fill="#353F49" sketch:type="MSShapeGroup" mask="url(#mask-2)"></path>
                <path d="M32.188242,36.7016752 L32.188242,33.2279172 C30.5886879,33.2279172 29.0598981,33.5474076 27.6691338,34.1303376 L28.9975414,37.3378535 C29.9812357,36.9293822 31.0560127,36.7030764 32.188242,36.7016752" id="Fill-11" fill="#FFDB79" sketch:type="MSShapeGroup" mask="url(#mask-2)"></path>
                <path d="M38.0909682,50.9576752 C36.5803949,52.4682484 34.4945987,53.4014968 32.1909045,53.4014968 C27.5800127,53.4014968 23.8407134,49.6628981 23.8407134,45.0506051 C23.8407134,41.5726433 25.9706497,38.5921338 28.9981019,37.337293 L27.6689936,34.1304777 C23.3824968,35.9009873 20.3683567,40.1272293 20.3683567,45.0534076 C20.3683567,51.5791401 25.6644713,56.8745541 32.1881019,56.8745541 C35.455172,56.8745541 38.4132611,55.5538535 40.5523057,53.4183121 L38.0909682,50.9576752 Z" id="Fill-12" fill="#F87B55" sketch:type="MSShapeGroup" mask="url(#mask-2)"></path>
                <path d="M55.6705096,53.8887898 L52.6843949,53.8887898 L52.6843949,56.8749045 L55.6705096,56.8749045 L55.6705096,53.8887898 Z" id="Fill-13" fill="#F87B55" sketch:type="MSShapeGroup" mask="url(#mask-2)"></path>
                <path d="M62.0932484,53.8887898 L59.1071338,53.8887898 L59.1071338,56.8749045 L62.0932484,56.8749045 L62.0932484,53.8887898 Z" id="Fill-14" fill="#353F49" sketch:type="MSShapeGroup" mask="url(#mask-2)"></path>
                <path d="M68.5159873,53.8887898 L65.5298726,53.8887898 L65.5298726,56.8749045 L68.5159873,56.8749045 L68.5159873,53.8887898 Z" id="Fill-15" fill="#D9D8D7" sketch:type="MSShapeGroup" mask="url(#mask-2)"></path>
                <path d="M74.9387261,53.8887898 L71.9526115,53.8887898 L71.9526115,56.8749045 L74.9387261,56.8749045 L74.9387261,53.8887898 Z" id="Fill-16" fill="#FFDB79" sketch:type="MSShapeGroup" mask="url(#mask-2)"></path>
                <path d="M84.6873885,43.6321656 L52.6843949,43.6321656 L52.6843949,42.1461146 L84.6873885,42.1461146 L84.6873885,43.6321656 Z" id="Fill-17" fill="#D9D8D7" sketch:type="MSShapeGroup" mask="url(#mask-2)"></path>
                <path d="M84.6873885,40.6593631 L52.6843949,40.6593631 L52.6843949,39.1726115 L84.6873885,39.1726115 L84.6873885,40.6593631 Z" id="Fill-18" fill="#D9D8D7" sketch:type="MSShapeGroup" mask="url(#mask-2)"></path>
                <path d="M84.6873885,37.6865605 L52.6843949,37.6865605 L52.6843949,36.2012102 L84.6873885,36.2012102 L84.6873885,37.6865605 Z" id="Fill-19" fill="#D9D8D7" sketch:type="MSShapeGroup" mask="url(#mask-2)"></path>
                <path d="M73.5731847,34.7144586 L52.6850955,34.7144586 L52.6850955,33.2284076 L73.5731847,33.2284076 L73.5731847,34.7144586 Z" id="Fill-20" fill="#D9D8D7" sketch:type="MSShapeGroup" mask="url(#mask-2)"></path>
                <path d="M68.686242,46.6056688 L52.6843949,46.6056688 L52.6843949,45.1182166 L68.686242,45.1182166 L68.686242,46.6056688 Z" id="Fill-21" fill="#D9D8D7" sketch:type="MSShapeGroup" mask="url(#mask-2)"></path>
                <path d="M84.6873885,61.671465 L20.3682166,61.671465 L20.3682166,60.185414 L84.6873885,60.185414 L84.6873885,61.671465 Z" id="Fill-22" fill="#D9D8D7" sketch:type="MSShapeGroup" mask="url(#mask-2)"></path>
                <path d="M84.6873885,64.6449682 L20.3682166,64.6449682 L20.3682166,63.1575159 L84.6873885,63.1575159 L84.6873885,64.6449682 Z" id="Fill-23" fill="#D9D8D7" sketch:type="MSShapeGroup" mask="url(#mask-2)"></path>
                <path d="M52.5288535,67.6184713 L20.3689172,67.6184713 L20.3689172,66.1310191 L52.5288535,66.1310191 L52.5288535,67.6184713 Z" id="Fill-24" fill="#D9D8D7" sketch:type="MSShapeGroup" mask="url(#mask-2)"></path>
                <path d="M63.4041401,26.965414 L41.651465,26.965414 L41.651465,25.4793631 L63.4041401,25.4793631 L63.4041401,26.965414 Z" id="Fill-25" fill="#474F59" sketch:type="MSShapeGroup" mask="url(#mask-2)"></path>
                <path d="M73.5731847,29.9382166 L31.483121,29.9382166 L31.483121,28.4528662 L73.5731847,28.4528662 L73.5731847,29.9382166 Z" id="Fill-26" fill="#D9D8D7" sketch:type="MSShapeGroup" mask="url(#mask-2)"></path>
                <path d="M8.76496815,76.0849682 L96.2913376,76.0849682 L96.2913376,78.0215287 L8.76496815,78.0215287 L8.76496815,76.0849682 Z" id="Fill-27" fill="#232E38" sketch:type="MSShapeGroup" mask="url(#mask-2)"></path>
                <path d="M5.23515924,70.9282803 L99.8211465,70.9282803 L99.8211465,76.0842675 L5.23515924,76.0842675 L5.23515924,70.9282803 Z" id="Fill-28" fill="#474F59" sketch:type="MSShapeGroup" mask="url(#mask-2)"></path>
                <path d="M100.192688,34.4831083 C99.8963185,34.4831083 99.6125605,34.5314522 99.3470191,34.6246369 C99.4233885,34.2273758 99.4661274,33.8196051 99.4661274,33.4006242 C99.4661274,29.9128535 96.6404586,27.0899873 93.1533885,27.0899873 C89.6628153,27.0899873 86.8357452,29.9142548 86.8357452,33.4006242 C86.8357452,33.4489682 86.839949,33.4931083 86.839949,33.5407516 C86.4412866,33.3648917 85.9998854,33.2647006 85.5339618,33.2647006 C83.7487389,33.2647006 82.3061274,34.7080127 82.3061274,36.4904331 C82.3061274,38.2721529 83.7494395,39.7182675 85.5339618,39.7182675 L100.192688,39.7161656 C101.638102,39.7161656 102.810968,38.544 102.810968,37.0992866 C102.810968,35.6538726 101.638102,34.4831083 100.192688,34.4831083" id="Fill-29" fill="#F2F2F2" sketch:type="MSShapeGroup" mask="url(#mask-2)"></path>
                <path d="M4.94111465,56.7064013 C5.16111465,56.7064013 5.37130573,56.7414331 5.56888535,56.8114968 C5.51143312,56.5172293 5.47990446,56.2145541 5.47990446,55.904172 C5.47990446,53.318121 7.57410828,51.2260191 10.158758,51.2260191 C12.7469108,51.2260191 14.8418153,53.3195223 14.8418153,55.904172 C14.8418153,55.9399045 14.8390127,55.9728344 14.8390127,56.0071656 C15.1346815,55.8782484 15.461879,55.8032803 15.807293,55.8032803 C17.1307962,55.8032803 18.1999682,56.8731529 18.1999682,58.1945541 C18.1999682,59.5159554 17.1300955,60.5865287 15.807293,60.5865287 L4.94111465,60.585828 C3.8705414,60.585828 3.00035032,59.7163376 3.00035032,58.6457643 C3.00035032,57.5744904 3.8705414,56.7064013 4.94111465,56.7064013" id="Fill-30" fill="#F2F2F2" sketch:type="MSShapeGroup" mask="url(#mask-2)"></path>
                <path d="M30.4600637,8.98019108 L30.4530573,8.98019108 C30.4530573,8.89681529 30.4600637,8.81484076 30.4600637,8.73006369 C30.4600637,3.90477707 26.5442038,-0.00898089172 21.7182166,-0.00898089172 C17.7736306,-0.00898089172 14.4385987,2.60859873 13.3547134,6.19936306 C12.695414,5.88898089 11.9604459,5.71452229 11.1848408,5.71452229 C8.37178344,5.71452229 6.09050955,7.99509554 6.09050955,10.8088535 C6.09050955,11.4569427 6.21242038,12.0756051 6.43242038,12.6459236 C6.37566879,12.6417197 6.32171975,12.6375159 6.26496815,12.6375159 C4.46152866,12.6375159 3,14.0990446 3,15.9031847 C3,17.7059236 4.46152866,19.1695541 6.26496815,19.1695541 L30.4600637,19.1695541 C33.2717197,19.1695541 35.5515924,16.8889809 35.5515924,14.0745223 C35.5515924,11.2600637 33.2717197,8.98019108 30.4600637,8.98019108" id="Fill-31" fill="#F2F2F2" sketch:type="MSShapeGroup" mask="url(#mask-2)"></path>
            </g>
        </g>
    </g>
</svg>