<?xml version="1.0" encoding="UTF-8" standalone="no"?>
<svg width="100px" height="100px" viewBox="0 0 100 100" version="1.1" xmlns="http://www.w3.org/2000/svg" xmlns:xlink="http://www.w3.org/1999/xlink" xmlns:sketch="http://www.bohemiancoding.com/sketch/ns">
    <!-- Generator: Sketch 3.4 (15575) - http://www.bohemiancoding.com/sketch -->
    <title>1.08</title>
    <desc>Created with Sketch.</desc>
    <defs></defs>
    <g id="Page-1" stroke="none" stroke-width="1" fill="none" fill-rule="evenodd" sketch:type="MSPage">
        <g id="1.08" sketch:type="MSArtboardGroup">
            <g id="Page-1" sketch:type="MSLayerGroup" transform="translate(5.000000, 1.000000)">
                <path d="M90,49.3614 C90,74.2152462 69.8538462,94.3614 45,94.3614 C20.1461538,94.3614 0,74.2152462 0,49.3614 C0,24.5075538 20.1461538,4.3614 45,4.3614 C69.8538462,4.3614 90,24.5075538 90,49.3614" id="Fill-1" fill="#FFDB79" sketch:type="MSShapeGroup"></path>
                <path d="M2.61304615,73.8355846 C2.31396923,73.3170462 2.16304615,72.7147385 2.16373846,72.0452769 L3.13296923,72.0466615 C3.13227692,72.5437385 3.23958462,72.9826615 3.45281538,73.3516615 L2.61304615,73.8355846 Z" id="Fill-3" fill="#474F59" sketch:type="MSShapeGroup"></path>
                <path d="M79.5457385,23.8362923 L79.4418923,22.8726 C80.6679692,22.7403692 81.7756615,22.7022923 82.7414308,22.7618308 L82.6832769,23.7296769 C81.7652769,23.6742923 80.7171231,23.7096 79.5457385,23.8362923 M73.2935077,25.0623692 L73.0456615,24.1256769 C74.1498923,23.8342154 75.2153538,23.5842923 76.2129692,23.3835231 L76.4047385,24.3333692 C75.4258154,24.5306769 74.3790462,24.7757538 73.2935077,25.0623692 M67.1693538,26.9613692 L66.8488154,26.0468308 C67.8983538,25.6799077 68.9333538,25.3365231 69.9268154,25.0270615 L70.2148154,25.9526769 C69.2324308,26.2586769 68.2078154,26.5979077 67.1693538,26.9613692 M61.1684308,29.2536 L60.7994308,28.3570615 C61.8212769,27.9368308 62.8258154,27.5380615 63.8088923,27.1621385 L64.1550462,28.0669846 C63.1782,28.4401385 62.1826615,28.8361385 61.1684308,29.2536 M55.2762,31.8276 L54.8705077,30.9469846 C55.8667385,30.4872923 56.8512,30.0456 57.8218154,29.6205231 L58.2102,30.5094462 C57.2444308,30.9310615 56.2668923,31.3706769 55.2762,31.8276 M49.4857385,34.6272923 L49.0488923,33.7626 C50.0229692,33.2696769 50.9901231,32.7919846 51.9475846,32.3288308 L52.3692,33.2011385 C51.4172769,33.6615231 50.4556615,34.1371385 49.4857385,34.6272923 M43.7915077,37.6242923 L43.3269692,36.7734462 C44.2809692,36.2521385 45.2322,35.7419077 46.1751231,35.2455231 L46.6265077,36.1026 C45.6877385,36.5976 44.7427385,37.1043692 43.7915077,37.6242923 M38.1942,40.7985231 L37.7033538,39.9629077 C38.1665077,39.6901385 38.6324308,39.4187538 39.1025077,39.1480615 C39.5698154,38.8780615 40.0371231,38.6115231 40.5030462,38.3470615 L40.9807385,39.1902923 C40.5168923,39.4533692 40.0523538,39.7192154 39.5864308,39.9878308 C39.1191231,40.2571385 38.6552769,40.5271385 38.1942,40.7985231 M32.6965846,44.1444462 L32.1801231,43.3240615 C33.0822,42.7556769 33.9981231,42.1872923 34.9292769,41.6216769 L35.4318923,42.4496769 C34.5062769,43.0132154 33.5945077,43.5781385 32.6965846,44.1444462 M27.3138923,47.6662154 L26.7690462,46.8645231 C27.6489692,46.2670615 28.5462,45.6696 29.4586615,45.0714462 L29.9903538,45.8828308 C29.0813538,46.4775231 28.1882769,47.0722154 27.3138923,47.6662154 M22.0613538,51.3790615 L21.4867385,50.5988308 C22.3389692,49.9709077 23.2133538,49.3395231 24.1092,48.7060615 L24.6685846,49.4973692 C23.7782769,50.1273692 22.9080462,50.7546 22.0613538,51.3790615 M16.9735846,55.3079077 L16.3622769,54.5546769 C17.1798923,53.8914462 18.0265846,53.2219846 18.9016615,52.5462923 L19.4942769,53.3147538 C18.6254308,53.9842154 17.7842769,54.6488308 16.9735846,55.3079077 M12.1122,59.4991385 L11.4545077,58.7867538 C12.2118923,58.0882154 13.0267385,57.3626769 13.8762,56.6316 L14.5089692,57.3654462 C13.6678154,58.0902923 12.8612769,58.8075231 12.1122,59.4991385 M7.61704615,64.0503692 L6.88943077,63.4099846 C7.5582,62.6498308 8.30727692,61.8516 9.1152,61.0374462 L9.80335385,61.7200615 C9.00858462,62.5203692 8.27335385,63.3047538 7.61704615,64.0503692 M3.95750769,69.1866 L3.08935385,68.7552923 C3.52066154,67.8892154 4.10704615,66.9462923 4.83396923,65.9507538 L5.61696923,66.5226 C4.92189231,67.4738308 4.36389231,68.3703692 3.95750769,69.1866" id="Fill-5" fill="#474F59" sketch:type="MSShapeGroup"></path>
                <path d="M86.5499538,25.3737 C86.3367231,25.0047 86.0113385,24.6924692 85.5807231,24.4453154 L86.0632615,23.6048538 C86.6441077,23.9385462 87.0899538,24.3705462 87.3897231,24.8897769 L86.5499538,25.3737 Z" id="Fill-7" fill="#474F59" sketch:type="MSShapeGroup"></path>
                <path d="M86.0604923,75.1200923 L85.5779538,74.2803231 C86.0085692,74.0324769 86.3346462,73.7202462 86.5471846,73.3519385 L87.3869538,73.8358615 C87.0871846,74.3550923 86.6413385,74.7870923 86.0604923,75.1200923" id="Fill-9" fill="#474F59" sketch:type="MSShapeGroup"></path>
                <path d="M4.83874615,32.7777923 C4.11113077,31.7829462 3.52405385,30.8400231 3.09274615,29.9753308 L3.96020769,29.5426385 C4.36659231,30.3588692 4.92597692,31.2547154 5.62174615,32.2059462 L4.83874615,32.7777923 Z M9.12205385,37.6904077 C8.31620769,36.8790231 7.56643846,36.0807923 6.89559231,35.3178692 L7.62251538,34.6774846 C8.28228462,35.4258692 9.01751538,36.2095615 9.81020769,37.0071 L9.12205385,37.6904077 Z M13.8830538,42.0955615 C13.0398231,41.3693308 12.2242846,40.6437923 11.4613615,39.9411 L12.1190538,39.2280231 C12.8729769,39.9237923 13.6802077,40.6417154 14.5165154,41.3617154 L13.8830538,42.0955615 Z M18.9092077,46.1801769 C18.0348231,45.5051769 17.1881308,44.8357154 16.3698231,44.1717923 L16.9811308,43.4199462 C17.7925154,44.0776385 18.6336692,44.7429462 19.5018231,45.4124077 L18.9092077,46.1801769 Z M24.1181308,50.0197154 C23.2215923,49.3869462 22.3465154,48.7555615 21.4942846,48.1276385 L22.0689,47.3474077 C22.9155923,47.9711769 23.7851308,48.5991 24.6761308,49.2284077 L24.1181308,50.0197154 Z M29.4669,53.6543308 C28.5530538,53.0568692 27.6558231,52.4587154 26.7759,51.8612538 L27.3214385,51.0595615 C28.1951308,51.6542538 29.0882077,52.2482538 29.9972077,52.8429462 L29.4669,53.6543308 Z M34.9354385,57.1041 C34.0056692,56.5377923 33.0897462,55.9701 32.1869769,55.4010231 L32.7034385,54.5813308 C33.6020538,55.1483308 34.5138231,55.7132538 35.4394385,56.2761 L34.9354385,57.1041 Z M40.5085154,60.3780231 C40.0412077,60.1128692 39.5718231,59.8449462 39.1024385,59.5735615 C38.6351308,59.3035615 38.1712846,59.0335615 37.7102077,58.7628692 L38.1996692,57.9272538 C38.6600538,58.1965615 39.1225154,58.4651769 39.5870538,58.7337923 C40.0543615,59.0037923 40.5209769,59.2710231 40.9875923,59.5354846 L40.5085154,60.3780231 Z M46.1819769,63.4795615 C45.2383615,62.9831769 44.2871308,62.4736385 43.3338231,61.9516385 L43.7983615,61.1007923 C44.7482077,61.6200231 45.6939,62.1274846 46.6333615,62.6217923 L46.1819769,63.4795615 Z M51.9537462,66.3955615 C50.9962846,65.9331 50.0298231,65.4547154 49.0550538,64.9624846 L49.4919,64.0971 C50.4611308,64.5865615 51.4234385,65.0621769 52.3753615,65.5232538 L51.9537462,66.3955615 Z M57.8279769,69.1031769 C56.8580538,68.6787923 55.8735923,68.2371 54.8773615,67.7781 L55.2830538,66.8974846 C56.2737462,67.3537154 57.2512846,67.7933308 58.2163615,68.2142538 L57.8279769,69.1031769 Z M63.8150538,71.5622538 C62.8312846,71.1863308 61.8274385,70.7875615 60.8055923,70.3673308 L61.1745923,69.4707923 C62.1888231,69.8882538 63.1850538,70.2842538 64.1612077,70.6567154 L63.8150538,71.5622538 Z M69.9322846,73.6959462 C68.9436692,73.3885615 67.9079769,73.0451769 66.8549769,72.6761769 L67.1755154,71.7616385 C68.2181308,72.1271769 69.2420538,72.4664077 70.2202846,72.7717154 L69.9322846,73.6959462 Z M76.2184385,75.3387923 C75.2284385,75.1394077 74.1629769,74.8894846 73.0511308,74.5966385 L73.2989769,73.6599462 C74.3914385,73.9479462 75.4389,74.1930231 76.4102077,74.3882538 L76.2184385,75.3387923 Z M81.8115923,75.9874846 C81.0860538,75.9874846 80.2899,75.9411 79.4466692,75.8497154 L79.5505154,74.8853308 C80.7156692,75.0120231 81.7700538,75.0494077 82.6880538,74.9926385 L82.7462077,75.9597923 C82.4471308,75.9777923 82.1349,75.9874846 81.8115923,75.9874846 L81.8115923,75.9874846 Z" id="Fill-11" fill="#474F59" sketch:type="MSShapeGroup"></path>
                <path d="M2.16207692,26.6815385 C2.16,26.0127692 2.31092308,25.4097692 2.61,24.8905385 L3.44976923,25.3744615 C3.23723077,25.7441538 3.12923077,26.1823846 3.13130769,26.6780769 L2.16207692,26.6815385 Z" id="Fill-13" fill="#474F59" sketch:type="MSShapeGroup"></path>
                <path d="M44.9966077,98.3076923 L44.9966077,97.3384615 C50.2242231,97.3384615 55.8215308,78.0597692 55.8222231,49.3608462 C55.8222231,20.6626154 50.2249154,1.38461538 44.9966077,1.38461538 L44.9966077,0.415384615 C51.6109154,0.415384615 56.7914538,21.9143077 56.7914538,49.3608462 C56.7907615,76.8073846 51.6102231,98.3076923 44.9966077,98.3076923" id="Fill-15" fill="#474F59" sketch:type="MSShapeGroup"></path>
                <path d="M69.2273769,49.3600154 C69.2273769,62.7381692 58.3893,73.5880154 44.9986846,73.5880154 C31.6198385,73.5880154 20.7713769,62.7381692 20.7713769,49.3600154 C20.7713769,35.9742462 31.6198385,25.1306308 44.9986846,25.1306308 C58.3893,25.1306308 69.2273769,35.9742462 69.2273769,49.3600154" id="Fill-17" fill="#92DEEC" sketch:type="MSShapeGroup"></path>
                <path d="M53.5091538,26.6683846 C57.9274615,30.708 60.6987692,36.5199231 60.6987692,42.975 C60.6987692,55.1686154 50.8119231,65.0575385 38.6134615,65.0575385 C32.157,65.0575385 26.3471538,62.2869231 22.3103077,57.8623846 C25.7545385,67.0493077 34.614,73.5881538 44.9986154,73.5881538 C58.3892308,73.5881538 69.2273077,62.7383077 69.2273077,49.3601538 C69.2273077,38.9720769 62.6988462,30.1153846 53.5091538,26.6683846" id="Fill-19" fill="#76D0DE" sketch:type="MSShapeGroup"></path>
                <path d="M32.6189077,30.4114846 C32.5559077,30.3671769 32.5697538,30.3235615 32.6625231,30.2764846 C32.7372923,30.3048692 32.7234462,30.3526385 32.6189077,30.4114846 C32.5856769,30.4080231 32.6680615,30.3955615 32.6189077,30.4114846 L32.6189077,30.4114846 Z M34.0339846,32.3804077 C34.0450615,32.3762538 34.2700615,32.3506385 34.1904462,32.4385615 C34.1032154,32.4842538 34.0526769,32.4641769 34.0339846,32.3804077 C34.0575231,32.3762538 34.0353692,32.4295615 34.0339846,32.3804077 L34.0339846,32.3804077 Z M53.3929846,72.0531 C53.3929846,72.0524077 53.3902154,72.0524077 53.3929846,72.0524077 L53.3929846,72.0531 Z M53.4075231,72.0468692 C53.4012923,72.0524077 53.3985231,72.0524077 53.3929846,72.0524077 C53.3964462,72.0413308 53.3985231,72.0337154 53.4075231,72.0385615 L53.4075231,72.0468692 Z M41.8861385,49.5344077 C41.8086,49.4721 41.9436,49.4880231 41.8861385,49.5344077 C41.8778308,49.5288692 41.9027538,49.5171 41.8861385,49.5344077 L41.8861385,49.5344077 Z M61.1219077,33.9097154 L61.1219077,33.9090231 L61.1260615,33.9117923 L61.1219077,33.9097154 Z M39.0435231,26.4224077 C39.0559846,26.4168692 39.0732923,26.4168692 39.0885231,26.4147923 C39.0691385,26.4466385 39.0490615,26.4501 39.0435231,26.4224077 C39.0559846,26.4168692 39.0462923,26.4258692 39.0435231,26.4224077 L39.0435231,26.4224077 Z M39.0885231,26.4134077 L39.0947538,26.4134077 C39.0947538,26.4161769 39.0940615,26.4161769 39.0885231,26.4147923 L39.0885231,26.4134077 Z M52.4237538,29.1944077 C52.4223692,29.1944077 52.4223692,29.1909462 52.4223692,29.1909462 C52.4355231,29.1944077 52.4396769,29.2027154 52.4355231,29.2248692 C52.4341385,29.2124077 52.4306769,29.2027154 52.4237538,29.1944077 C52.4223692,29.1944077 52.4306769,29.2027154 52.4237538,29.1944077 L52.4237538,29.1944077 Z M56.1698308,28.2736385 C56.3138308,28.3158692 56.1753692,28.3082538 56.1698308,28.2736385 C56.1698308,28.2736385 56.1739846,28.3020231 56.1698308,28.2736385 L56.1698308,28.2736385 Z M30.2532923,51.1959462 C30.2013692,51.1551 30.2872154,51.2271 30.2532923,51.1959462 C30.2311385,51.1807154 30.2802923,51.2208692 30.2532923,51.1959462 L30.2532923,51.1959462 Z M39.1688308,26.3739462 C39.1619077,26.4175615 39.1272923,26.4134077 39.0947538,26.4134077 C39.1106769,26.3739462 39.1356,26.3697923 39.1688308,26.3739462 L39.1688308,26.3739462 Z M39.1688308,26.3718692 L39.1736769,26.3718692 C39.1722923,26.3739462 39.1688308,26.3753308 39.1688308,26.3718692 L39.1688308,26.3718692 Z M38.3996769,26.3324077 C38.4294462,26.2950231 38.4675231,26.3026385 38.5090615,26.3005615 C38.4792923,26.3421 38.4439846,26.3469462 38.3996769,26.3324077 L38.3996769,26.3324077 Z M38.3996769,26.3324077 L38.3948308,26.3358692 C38.3920615,26.3324077 38.3948308,26.3324077 38.3996769,26.3324077 L38.3996769,26.3324077 Z M38.5152923,26.3005615 C38.4938308,26.3005615 38.5242923,26.2950231 38.5298308,26.2950231 C38.5242923,26.2957154 38.5166769,26.2957154 38.5152923,26.3005615 L38.5152923,26.3005615 Z M38.6101385,26.2825615 C38.5838308,26.2887923 38.5519846,26.2915615 38.5298308,26.2950231 C38.5499077,26.2735615 38.5810615,26.2714846 38.6101385,26.2825615 L38.6101385,26.2825615 Z M39.6936,28.5955615 C39.7012154,28.5907154 39.7150615,28.5976385 39.7233692,28.5997154 C39.6936,28.6170231 39.6402923,28.6170231 39.6936,28.5955615 L39.6936,28.5955615 Z M27.1178308,50.1595615 C27.0970615,50.4018692 27.0458308,49.9241769 27.1178308,50.1595615 C27.1164462,50.1927923 27.1067538,50.1353308 27.1178308,50.1595615 L27.1178308,50.1595615 Z M38.0756769,28.1884846 C38.0320615,28.2597923 37.9676769,28.2951 37.8645231,28.3269462 C37.9171385,28.2161769 37.9905231,28.1967923 38.0756769,28.1884846 L38.0756769,28.1884846 Z M38.6274462,66.0916385 C38.6897538,66.1158692 38.7257538,66.1671 38.7347538,66.2335615 C38.7347538,66.4481769 38.3519077,66.1200231 38.6274462,66.0916385 C38.6648308,66.0867923 38.5644462,66.1006385 38.6274462,66.0916385 L38.6274462,66.0916385 Z M30.4692923,40.9317923 C30.4609846,41.0141769 30.4201385,41.0543308 30.3453692,41.0529462 C30.3059077,40.9830231 30.4291385,40.7843308 30.4692923,40.9317923 C30.4817538,40.9809462 30.4589077,40.9006385 30.4692923,40.9317923 L30.4692923,40.9317923 Z M52.3794462,29.0628692 C52.3545231,29.1154846 52.3773692,29.1528692 52.4223692,29.1909462 C52.3746,29.1681 52.2042923,28.9576385 52.3392923,28.9299462 C52.3926,28.9534846 52.4168308,28.9984846 52.3794462,29.0628692 C52.3545231,29.1154846 52.3974462,29.0337923 52.3794462,29.0628692 L52.3794462,29.0628692 Z M37.8416769,28.0645615 C37.7025231,28.1372538 37.5979846,28.1961 37.4512154,28.1829462 C37.5550615,28.0645615 37.6755231,28.0701 37.8416769,28.0645615 L37.8416769,28.0645615 Z M39.5883692,27.2504077 C39.6576,27.1306385 39.7330615,27.0967154 39.9712154,27.0987923 C39.8535231,27.2344846 39.7254462,27.2559462 39.5883692,27.2504077 L39.5883692,27.2504077 Z M64.1867538,35.5491 C64.0739077,35.4944077 64.0247538,35.4154846 64.0600615,35.2797923 C64.1493692,35.3517923 64.1950615,35.4265615 64.1867538,35.5491 L64.1867538,35.5491 Z M58.1325231,34.1631 C57.9421385,34.1388692 58.4925231,33.9623308 58.2959077,34.2198692 C58.2349846,34.2101769 58.1837538,34.1956385 58.1325231,34.1631 C58.1055231,34.1589462 58.1962154,34.1721 58.1325231,34.1631 L58.1325231,34.1631 Z M39.1736769,26.3718692 C39.3398308,26.2403308 39.5336769,26.2147154 39.7399846,26.2292538 C39.5655231,26.3358692 39.3834462,26.3919462 39.1736769,26.3718692 L39.1736769,26.3718692 Z M39.0732923,32.2516385 C39.1224462,32.2654846 39.1736769,32.2495615 39.2505231,32.2426385 C39.0151385,32.5341 38.7368308,32.1291 38.7963692,32.1145615 C38.7513692,32.1242538 39.0559846,32.2502538 39.0732923,32.2516385 C39.1224462,32.2654846 38.9798308,32.2391769 39.0732923,32.2516385 L39.0732923,32.2516385 Z M39.1356,26.2569462 C38.9569846,26.3919462 38.7721385,26.5227923 38.5242923,26.5013308 C38.6897538,26.3247923 38.9196,26.3026385 39.1356,26.2569462 L39.1356,26.2569462 Z M39.8154462,26.1067154 C39.7752923,26.0499462 39.7102154,26.0894077 39.6679846,26.0333308 C39.7794462,25.9135615 39.9303692,25.9544077 40.0674462,25.9170231 C40.0612154,25.9315615 39.9019846,26.2292538 39.8154462,26.1067154 C39.7752923,26.0499462 39.8355231,26.1454846 39.8154462,26.1067154 L39.8154462,26.1067154 Z M63.2154462,35.5096385 C63.1379077,35.4293308 62.9786769,35.4812538 62.9364462,35.3234077 C63.0714462,35.3981769 63.2258308,35.3607923 63.3532154,35.4632538 C63.3116769,35.5034077 63.2562923,35.5518692 63.2154462,35.5096385 C63.1379077,35.4293308 63.2562923,35.5518692 63.2154462,35.5096385 L63.2154462,35.5096385 Z M59.1446769,33.4881 L59.1481385,33.4901769 C59.0879077,33.4673308 58.6946769,33.2264077 58.8490615,33.1004077 C58.9709077,33.0173308 59.1301385,33.4465615 59.1446769,33.4881 L59.1446769,33.4881 Z M39.0816,31.2484846 C39.3100615,31.2422538 39.4914462,31.3094077 39.6887538,31.4582538 C39.4236,31.5094846 39.2505231,31.4077154 39.0816,31.2484846 L39.0816,31.2484846 Z M26.9385231,50.1990231 C26.9350615,50.3028692 26.8852154,50.3451 26.7848308,50.3056385 C26.7509077,50.2793308 26.7308308,49.9241769 26.7931385,49.8521769 C26.8436769,49.9664077 26.8928308,50.0771769 26.9385231,50.1990231 C26.9579077,50.2467923 26.8928308,50.0771769 26.9385231,50.1990231 L26.9385231,50.1990231 Z M32.1896769,40.1771769 C32.1156,39.8877923 32.0041385,39.8836385 32.1979846,39.6309462 C32.2748308,39.9037154 32.2748308,40.0643308 32.1896769,40.1771769 C32.1612923,40.0622538 32.2748308,40.0643308 32.1896769,40.1771769 L32.1896769,40.1771769 Z M39.4734462,25.9717154 C39.2789077,26.1018692 39.0476769,26.0153308 38.8462154,26.0921769 C39.1272923,25.9011 39.2505231,25.9135615 39.4734462,25.9717154 C39.2789077,26.1018692 39.4381385,25.9634077 39.4734462,25.9717154 L39.4734462,25.9717154 Z M37.1784462,45.7544077 C37.1666769,45.7502538 37.2580615,45.4657154 37.4449846,45.4518692 C37.6596,45.5889462 37.2857538,45.7661769 37.1784462,45.7544077 C37.1652923,45.7502538 37.4172923,45.7855615 37.1784462,45.7544077 L37.1784462,45.7544077 Z M37.0787538,45.7772538 L37.0787538,45.7772538 C37.0870615,45.7544077 37.1064462,45.7467923 37.1327538,45.7454077 C37.1140615,45.7544077 37.1036769,45.7599462 37.0787538,45.7772538 L37.0787538,45.7772538 Z M35.9537538,42.3503308 C35.6671385,43.0544077 34.9388308,41.8574077 35.9537538,42.3503308 C35.9094462,42.4507154 35.7862154,42.2651769 35.9537538,42.3503308 L35.9537538,42.3503308 Z M32.0505231,42.3621 C32.1204462,42.3676385 32.1571385,42.4043308 32.1702923,42.4659462 C32.1273692,42.6438692 31.5832154,42.3918692 31.5243692,42.3177923 C31.7119846,42.2097923 31.8857538,42.2721 32.0505231,42.3621 L32.0505231,42.3621 Z M48.3779077,25.5424846 C48.3481385,25.5507923 48.3169846,25.5528692 48.2775231,25.5570231 C48.3169846,25.5224077 48.3481385,25.5189462 48.3779077,25.5424846 C48.3481385,25.5507923 48.3640615,25.5383308 48.3779077,25.5424846 L48.3779077,25.5424846 Z M49.3146,25.7626385 C49.0079077,25.6767923 48.6756,25.6629462 48.3779077,25.5424846 C48.7413692,25.5064846 49.1816769,25.6401 49.4239846,25.7134846 C49.5098308,25.7384077 49.2972923,25.7557154 49.3146,25.7626385 C49.0079077,25.6767923 49.3422923,25.7688692 49.3146,25.7626385 L49.3146,25.7626385 Z M40.0674462,26.1212538 C40.4862923,25.8076385 40.5832154,25.9848692 41.1031385,26.0416385 C40.9342154,26.1925615 40.5354462,26.2216385 40.0674462,26.1212538 C40.1823692,26.0333308 40.5354462,26.2216385 40.0674462,26.1212538 L40.0674462,26.1212538 Z M59.2367538,33.5864077 C59.3842154,33.5864077 59.7282923,34.1361 59.6749846,34.2261 C59.5088308,34.4857154 59.2319077,33.8280231 59.0602154,33.7255615 C59.1232154,33.6854077 59.1876,33.6383308 59.2367538,33.5864077 L59.2367538,33.5864077 Z M48.0234462,27.4941 C47.9992154,27.4117154 48.6160615,27.4470231 48.7185231,27.4304077 C48.8846769,27.3992538 50.1100615,27.5231769 49.6801385,27.7218692 C49.3402154,27.8714077 48.8507538,28.0410231 48.5343692,27.7551 C48.4526769,27.6844846 48.0269077,27.5148692 48.0234462,27.4941 C48.0089077,27.4373308 48.0449077,27.5792538 48.0234462,27.4941 L48.0234462,27.4941 Z M53.3902154,30.0840231 C53.8000615,30.5132538 53.1603692,30.8421 52.8675231,30.5665615 C52.7318308,30.4197923 52.8162923,30.0757154 52.4826,29.9753308 C52.5691385,29.9455615 52.6591385,29.9213308 52.7477538,29.8881 C52.5262154,29.3605615 53.2780615,29.9753308 53.3902154,30.0840231 C53.4732923,30.1823308 53.3535231,30.0507923 53.3902154,30.0840231 L53.3902154,30.0840231 Z M32.8709077,42.3406385 C32.6964462,42.2651769 33.4524462,42.2721 33.5556,42.2298692 C33.4026,41.9986385 33.5417538,41.8747154 33.2489077,41.7840231 C33.5154462,41.4648692 34.3946769,41.8394077 34.6722923,41.9633308 C34.6494462,42.0000231 34.5989077,41.9674846 34.5691385,42.0173308 C34.5940615,42.0346385 35.1749077,42.5144077 34.7830615,42.3544846 C34.3531385,42.1710231 34.1198308,42.4244077 33.8138308,42.5961 C33.5784462,42.2561769 33.1886769,42.4887923 32.8709077,42.3406385 C32.8342154,42.3261 32.9442923,42.3752538 32.8709077,42.3406385 L32.8709077,42.3406385 Z M31.9549846,41.7023308 C31.7216769,41.7293308 32.1100615,41.5202538 32.0775231,41.4434077 C31.9162154,41.0764846 30.8175231,40.9947923 30.7171385,40.7005615 C30.7642154,40.6825615 30.7981385,40.6479462 30.8133692,40.6008692 C30.4346769,40.4478692 30.2415231,40.9054846 29.9057538,40.8798692 C30.6098308,39.6794077 32.3627538,41.0494846 33.0654462,41.6019462 C32.6964462,41.6483308 32.3267538,41.6504077 31.9549846,41.7023308 C31.9259077,41.7044077 32.1612923,41.6767154 31.9549846,41.7023308 L31.9549846,41.7023308 Z M40.3644462,31.5967154 C40.3900615,31.5967154 40.4046,31.5967154 40.4226,31.6126385 C40.4025231,31.6126385 40.3083692,31.6084846 40.3644462,31.5967154 C40.3900615,31.5967154 40.3485231,31.5994846 40.3644462,31.5967154 L40.3644462,31.5967154 Z M41.1329077,30.8199462 L41.1460615,30.8178692 C41.1460615,30.8199462 41.1460615,30.8220231 41.1502154,30.8261769 C41.1460615,30.8220231 41.1460615,30.8220231 41.1329077,30.8199462 L41.1329077,30.8199462 Z M41.7469846,31.8078692 C41.7712154,31.7794846 41.9096769,31.7213308 41.8196769,31.8009462 C41.7926769,31.8563308 41.6680615,31.8964846 41.7469846,31.8078692 C41.7546,31.7954077 41.7310615,31.8300231 41.7469846,31.8078692 L41.7469846,31.8078692 Z M41.9401385,31.8300231 C41.9726769,31.8577154 41.8778308,31.8577154 41.9401385,31.8300231 C41.9484462,31.8355615 41.9304462,31.8334846 41.9401385,31.8300231 L41.9401385,31.8300231 Z M41.0927538,30.9307154 C41.0214462,30.9777923 40.1671385,31.7919462 40.1899846,31.8708692 C40.2072923,31.9428692 41.0796,31.8895615 41.2256769,31.9767923 C41.2152923,32.0757923 41.0989846,32.0252538 41.0830615,32.1131769 C41.1952154,32.1131769 41.5503692,31.8895615 41.6022923,31.9546385 C41.6085231,32.0086385 41.6022923,32.0681769 41.5746,32.1180231 C41.9629846,32.4946385 41.9179846,31.6721769 41.9484462,31.6292538 C41.6749846,31.5891 42.0010615,31.2083308 41.5482923,31.3689462 C41.5746,31.3578692 41.0546769,31.2131769 41.0796,31.2457154 C41.0325231,31.2055615 41.4513692,30.8455615 41.4818308,30.7991769 C41.2346769,30.7347923 41.2042154,30.8455615 41.0927538,30.9307154 C40.9487538,31.0394077 41.1204462,30.9057923 41.0927538,30.9307154 L41.0927538,30.9307154 Z M54.0029077,30.5748692 C54.1122923,30.5631 53.8596,30.2162538 53.8028308,30.1442538 C53.8776,30.1553308 53.9378308,30.1608692 54.0146769,30.1151769 C53.9551385,29.9601 53.2482923,29.5481769 53.2060615,29.5786385 C52.9367538,29.7454846 52.5975231,28.9998692 52.5649846,28.8987923 C53.0246769,28.8378692 53.3085231,29.3259462 53.7190615,29.5267154 C54.0735231,29.6949462 55.3342154,30.3000231 55.3722923,30.6794077 C55.3992923,30.8691 54.4141385,30.7922538 54.2694462,31.0151769 C54.1545231,30.7347923 54.5145231,30.7417154 54.5076,30.6537923 C54.4951385,30.5845615 54.0499846,30.5686385 54.0029077,30.5748692 C53.9800615,30.5783308 54.1510615,30.5541 54.0029077,30.5748692 L54.0029077,30.5748692 Z M41.2519846,25.9544077 C41.1135231,25.9315615 40.9799077,25.9502538 40.8379846,25.9267154 C40.9120615,25.8637154 41.3177538,25.8505615 41.1460615,25.7342538 C41.6992154,25.3915615 42.8692154,25.3237154 43.5144462,25.4040231 C44.2316769,25.4884846 44.9516769,25.2669462 45.6689077,25.3784077 C45.9569077,25.4254846 46.2019846,25.4310231 46.4879077,25.4511 C46.7412923,25.4787923 46.4553692,25.7342538 46.7412923,25.7785615 C46.9046769,25.8007154 47.2432154,26.1780231 47.3927538,26.0984077 C47.3865231,26.3607923 47.2681385,26.1766385 47.3519077,26.4231 C47.3712923,26.4840231 47.6662154,26.6487923 47.6572154,26.6681769 C47.6302154,26.7069462 46.8278308,26.6515615 46.8617538,26.6598692 C46.7952923,26.6515615 46.8728308,26.7872538 46.9309846,26.7651 C47.0853692,26.8066385 47.4363692,26.7540231 47.6136,26.7671769 C47.1996,27.1361769 46.5938308,27.0918692 46.1486769,27.3867923 C45.8710615,27.5695615 45.4563692,27.5501769 45.1489846,27.6630231 C45.1489846,27.9711 44.9170615,28.3484077 44.7121385,28.6675615 C44.5619077,28.8884077 43.5407538,28.3767923 43.4376,28.2487154 C43.2167538,27.9773308 42.7009846,27.2753308 43.2555231,27.0537923 C43.9298308,26.7893308 43.2610615,27.0053308 43.0623692,26.8613308 C43.2243692,26.6370231 43.4043692,26.7124846 43.6542923,26.7498692 C43.5262154,26.5671 43.3600615,26.5227923 43.1662154,26.6169462 C43.1080615,26.4231 43.4479846,26.2521 43.1461385,26.0464846 C43.0180615,25.9557923 42.3036,26.0617154 42.2849077,25.9336385 C42.2447538,25.6269462 43.1475231,25.7924077 43.3109077,25.5369462 C42.6338308,25.3943308 41.9027538,26.0561769 41.2519846,25.9544077 C41.1135231,25.9315615 41.3682923,25.9717154 41.2519846,25.9544077 L41.2519846,25.9544077 Z M67.7445231,57.6766385 C67.7549077,57.6447923 67.7694462,57.6101769 67.7853692,57.5852538 C67.7881385,57.6184846 67.7576769,57.6461769 67.7445231,57.6766385 L67.7445231,57.6766385 Z M67.3429846,58.6777154 C67.4433692,58.4298692 67.5229846,58.1737154 67.6448308,57.9321 C67.5638308,58.1903308 67.4558308,58.4319462 67.3429846,58.6777154 L67.3429846,58.6777154 Z M53.3929846,72.0531 C53.4282923,72.1237154 50.3399077,72.9897923 50.0249077,73.0604077 C48.7448308,73.3276385 47.4467538,73.4986385 46.1320615,73.5616385 C43.6446,73.6814077 41.0387538,73.4571 38.6489077,72.7294846 C38.9569846,72.7641 39.3273692,72.9226385 39.6402923,72.8727923 C39.3412154,72.6872538 38.9749846,72.7495615 38.7098308,72.5190231 C39.7102154,72.6803308 40.6621385,72.6027923 41.5746,72.7232538 C41.4797538,72.5951769 40.6434462,72.3951 40.6476,72.3057923 C40.7715231,72.2967923 41.4084462,72.2801769 41.4409846,72.2566385 C41.7421385,72.0261 40.9598308,72.0531 41.0214462,71.8841769 C41.0532923,71.8405615 41.2644462,71.9111769 41.3412923,71.8121769 C41.4596769,71.6543308 41.3412923,71.5712538 41.3814462,71.4923308 C41.4153692,71.4196385 42.6269077,71.2119462 42.7529077,71.2680231 C42.6082154,71.3524846 42.4462154,71.2534846 42.5036769,71.4895615 C42.3825231,71.4722538 42.0072923,71.4812538 41.9872154,71.6460231 C41.9955231,71.6058692 42.3942923,72.1624846 42.4081385,72.1908692 C42.5514462,72.4061769 43.0395231,72.5411769 43.0727538,72.8007923 C43.1565231,73.2376385 45.4542923,73.2002538 45.7935231,73.1601 C46.6526769,73.0624846 47.4529846,72.7530231 48.3017538,72.6104077 C48.8022923,72.5204077 49.3021385,72.3798692 49.8096,72.3293308 C50.0408308,72.3037154 50.8307538,72.0309462 51.0142154,72.0925615 C51.1353692,72.5010231 52.9623692,71.9665615 53.3929846,72.0531 C53.3964462,72.0593308 53.3209846,72.0413308 53.3929846,72.0531 L53.3929846,72.0531 Z M68.6002154,49.5524077 C68.4901385,50.0121 68.5981385,50.1588692 68.3191385,50.4157154 C68.3191385,50.0695615 68.1952154,49.4118692 68.5441385,49.2083308 C68.5953692,49.3197923 68.6320615,49.4118692 68.6002154,49.5524077 C68.5482923,49.7372538 68.6320615,49.4118692 68.6002154,49.5524077 L68.6002154,49.5524077 Z M68.2990615,53.5061769 C68.2900615,53.8959462 68.2312154,54.9558692 67.9812923,55.2563308 C68.0041385,54.6021 68.2429846,54.0060231 68.2533692,53.3538692 C68.3101385,53.4189462 68.2990615,53.4667154 68.2990615,53.5061769 C68.2990615,53.5511769 68.2990615,53.4667154 68.2990615,53.5061769 L68.2990615,53.5061769 Z M67.9162154,52.1534077 C67.9141385,51.7276385 67.9037538,51.2271 67.9951385,50.8124077 C68.0110615,51.5344846 68.0429077,52.2641769 68.0214462,52.9883308 C67.9086,52.8367154 67.9162154,52.3375615 67.9162154,52.1534077 C67.9162154,52.0004077 67.9162154,52.3008692 67.9162154,52.1534077 L67.9162154,52.1534077 Z M67.6531385,53.3386385 C67.6496769,53.1060231 67.6607538,53.0956385 67.8989077,52.9474846 C67.8462923,53.1087923 67.6808308,53.1863308 67.6531385,53.3386385 L67.6531385,53.3386385 Z M67.5880615,55.8856385 C67.5382154,55.9015615 67.4814462,55.9223308 67.4378308,55.9368692 C67.3485231,55.9368692 67.6026,55.8184846 67.6150615,55.8060231 C67.6012154,55.8503308 67.6012154,55.8690231 67.5880615,55.8856385 C67.5486,55.9382538 67.6012154,55.8690231 67.5880615,55.8856385 L67.5880615,55.8856385 Z M68.0429077,49.6140231 C68.0380615,49.5316385 68.0366769,49.4665615 68.0899846,49.4063308 C68.1273692,49.4859462 68.0934462,49.5420231 68.0429077,49.6140231 L68.0429077,49.6140231 Z M68.1917538,48.8462538 C68.1356769,48.7126385 68.2097538,48.5928692 68.2450615,48.4364077 C68.3032154,48.6018692 68.2132154,48.7195615 68.1917538,48.8462538 L68.1917538,48.8462538 Z M67.0106769,40.2034846 C66.9116769,39.9597923 65.6142923,38.0656385 65.7672923,37.9631769 C65.9438308,37.8551769 68.6992154,42.7414846 68.4036,43.4961 C67.9812923,42.3807923 67.4731385,41.2987154 67.0106769,40.2034846 C67.0051385,40.1944846 67.1055231,40.4257154 67.0106769,40.2034846 L67.0106769,40.2034846 Z M68.8321385,45.0164077 L68.8335231,45.0184846 C68.3592923,43.2704077 68.0110615,41.5458692 67.2820615,39.8566385 C66.4284462,37.8468692 65.2979077,35.9527154 63.9333692,34.2468692 C62.6470615,32.6351769 61.1606769,31.1924077 59.5074462,29.9601 C58.7057538,29.3536385 57.8652923,28.8081 56.9902154,28.3110231 C56.5782923,28.0714846 56.1580615,27.8423308 55.7198308,27.6297923 C55.5322154,27.5397923 54.8772923,27.3687923 54.7789846,27.2047154 C54.7845231,27.2815615 55.1639077,27.4733308 55.2109846,27.5231769 C54.9596769,27.4574077 54.2812154,27.1707923 54.2694462,27.1271769 C54.2860615,27.0946385 54.3359077,27.1271769 54.3289846,27.0759462 C53.9475231,26.8308692 52.5213692,26.3033308 52.2340615,26.6937923 C52.2922154,26.6141769 53.2212923,27.6844846 53.2427538,27.8748692 C53.3064462,28.2916385 53.9523692,28.7354077 54.3732923,28.8662538 C54.9423692,29.0601 54.5145231,28.8011769 54.7526769,28.6675615 C54.9126,28.5907154 55.0628308,28.9320231 55.2061385,28.8524077 C55.2019846,28.8496385 55.2061385,28.8468692 55.2109846,28.8427154 C55.1742923,28.7617154 55.1223692,28.6855615 55.0794462,28.6045615 C55.0344462,28.6045615 56.1241385,29.7274846 56.2619077,29.4824077 C56.1366,29.1784846 55.9427538,28.8357923 55.6242923,28.5491769 C55.3591385,28.2916385 54.9229846,28.2681 54.6287538,28.0112538 C54.4826769,27.8811 53.9274462,27.4761 53.8651385,27.2898692 C54.5989846,27.3161769 55.4449846,28.8586385 56.1739846,28.2618692 C56.0722154,28.1933308 55.9725231,28.1171769 55.8790615,28.0347923 C56.0092154,28.0742538 56.6295231,28.2701769 56.4232154,28.5263308 C55.8361385,28.4238692 56.9071385,29.0171769 56.9320615,29.0857154 C56.8261385,29.0781 56.7513692,28.9929462 56.6530615,28.9853308 C56.6925231,29.1881769 57.2678308,29.3965615 57.3156,29.7413308 C56.9652923,29.7953308 57.1182923,29.5329462 56.8842923,29.8154077 C56.8185231,29.9019462 56.5021385,29.8777154 56.3380615,29.8881 C55.9372154,29.9227154 55.4872154,29.2414846 55.1950615,29.0337923 C55.3169077,29.4090231 55.5252923,29.5931769 55.9524462,29.8631769 C56.1580615,29.9781 55.6644462,30.0286385 55.6713692,30.2024077 C55.6831385,30.2024077 55.8022154,30.2612538 55.7994462,30.2917154 C55.7994462,30.3152538 55.6872923,30.2162538 55.6713692,30.2024077 C55.7094462,30.1747154 55.5972923,30.8670231 55.5889846,30.8573308 C55.9171385,31.2408692 55.1562923,31.1259462 55.1320615,31.1425615 C55.1950615,31.2297923 55.3155231,31.2713308 55.3397538,31.3994077 C55.1182154,31.4111769 54.9340615,31.3814077 54.7208308,31.4582538 C55.0344462,31.5510231 56.7735231,32.3568692 56.3906769,32.9605615 C56.2743692,33.1564846 55.0981385,32.9107154 54.8814462,32.9037923 C54.4238308,32.8705615 54.8454462,33.3378692 54.8627538,33.3918692 C54.9278308,33.7380231 55.1992154,33.8882538 55.1791385,34.2932538 C55.1590615,34.5791769 55.4512154,34.5874846 55.5322154,34.8263308 C55.6146,35.0354077 55.5723692,35.0582538 55.7876769,35.0852538 C56.1753692,35.1344077 56.1843692,35.0762538 56.5097538,35.3296385 C56.7465231,35.5117154 56.8372154,35.1634846 57.1127538,35.1531 C57.8050615,35.1226385 57.2179846,34.9827923 57.5440615,34.8886385 C57.9490615,34.7751 57.4312154,34.1361 57.4526769,34.0114846 C57.4817538,33.8453308 57.4291385,33.6563308 57.6520615,33.5933308 C58.0051385,33.5005615 57.5586,33.1405615 57.5357538,33.0436385 C57.4644462,32.7563308 58.5015231,33.2831769 58.3699846,32.5604077 C58.9709077,32.7480231 59.5787538,33.2804077 60.1222154,33.5905615 C60.4510615,33.7844077 60.7688308,33.9671769 61.0035231,34.2766385 C61.2846,34.6387154 60.6019846,34.4905615 60.5618308,34.5944077 C60.5133692,34.7127923 61.1627538,35.0035615 61.2666,34.9938692 C61.2797538,34.9315615 61.1856,34.5618692 61.1772923,34.4954077 C61.1502923,34.2392538 60.7736769,33.9858692 60.7986,33.7802538 C60.9156,33.7913308 61.0194462,33.8391 61.1219077,33.9097154 C60.7716,33.4853308 60.2066769,33.4431 59.8120615,33.1246385 C59.5787538,32.9294077 59.2776,32.7736385 59.0387538,32.5735615 C59.0387538,32.5714846 58.6219846,32.0363308 58.9141385,32.1387923 C59.3807538,32.2980231 59.8819846,32.7681 60.3562154,33.0131769 C60.7300615,33.2111769 60.8152154,33.3281769 61.0949077,33.6521769 C61.2015231,33.7802538 61.7789077,34.4469462 61.9139077,34.4704846 C61.9076769,34.4656385 62.3763692,34.8886385 62.5681385,34.9557923 C62.4829846,34.7612538 62.4158308,34.5161769 62.3154462,34.3590231 C62.1790615,34.1492538 61.6466769,34.0322538 61.6466769,33.7151769 C61.7657538,33.7290231 61.7789077,33.5995615 62.0440615,33.6085615 C61.9076769,33.6023308 62.2157538,33.4029462 62.1922154,33.4334077 C61.6882154,33.1461 61.0118308,32.3091 60.8359846,31.7393308 C60.9716769,31.7448692 61.0478308,31.9297154 61.1946,31.8355615 C61.1502923,31.7393308 61.1385231,31.6389462 61.1502923,31.5330231 C61.1856,31.5794077 61.6632923,31.9851 61.5670615,32.0681769 C61.4355231,32.0647154 61.3275231,32.0037923 61.2292154,31.9006385 C61.2915231,32.1401769 61.5359077,32.1450231 61.6335231,32.3125615 C61.6418308,32.2426385 61.5926769,32.1893308 61.6536,32.1180231 C62.0648308,32.2890231 62.9170615,32.9522538 63.0271385,33.4140231 C62.8450615,33.4341 62.5009846,33.0477923 62.3715231,33.1426385 C62.3362154,33.2374846 62.3389846,33.3267923 62.3881385,33.4174846 C62.3376,33.4202538 62.2849846,33.4341 62.2413692,33.4597154 C62.3126769,33.5116385 62.3452154,33.5850231 62.3528308,33.6646385 C62.2836,33.6881769 62.2240615,33.7068692 62.1486,33.7290231 C62.2102154,33.9588692 63.4349077,35.1309462 63.5221385,35.0132538 C63.5449846,34.9717154 63.4757538,34.8505615 63.4937538,34.8339462 C63.5519077,34.7612538 63.7450615,35.1011769 63.8475231,35.0319462 C63.9306,34.9800231 63.7720615,34.8727154 63.8648308,34.8277154 C64.0434462,34.7321769 64.7821385,36.1777154 64.8749077,36.3459462 C65.2231385,37.0154077 64.9919077,36.6055615 64.7198308,36.6990231 C64.6831385,36.7710231 64.6575231,36.8388692 64.6512923,36.9219462 C64.2186,36.8229462 63.7450615,36.5744077 63.4023692,36.3258692 C62.8416,35.9215615 63.5809846,37.4162538 63.2542154,37.2286385 C63.0652154,37.1199462 62.9530615,36.9627923 62.7246,36.9413308 C62.3812154,36.9074077 62.2849846,36.5467154 61.9748308,36.4428692 C61.7276769,36.3570231 60.7196769,36.2649462 60.8539846,35.8073308 C60.9585231,35.4141 60.4572923,35.0873308 60.2856,34.9384846 C60.1997538,34.8630231 59.0892923,35.0077154 58.9079077,35.0617154 C58.6039846,35.1600231 58.1186769,35.2604077 57.9442154,35.5463308 C57.6499846,36.0801 56.9708308,35.3753308 56.6952923,35.4847154 C56.5561385,35.5456385 56.6925231,35.9838692 56.6226,36.1202538 C56.5056,36.3334846 56.2390615,36.3459462 56.1698308,36.5924077 C56.0528308,37.0451769 56.3906769,37.4217923 56.2390615,37.8392538 C56.1075231,38.1694846 55.4712923,38.3127923 55.4629846,38.5876385 C55.4574462,38.7337154 55.4235231,38.8943308 55.2912923,38.9732538 C54.9991385,39.1401 55.2982154,39.5243308 55.1161385,39.7167923 C54.1289077,40.7164846 55.4304462,41.6988692 55.2109846,42.8024077 C55.0842923,43.4275615 55.0109077,43.5521769 55.2809077,44.0907923 C55.3397538,44.2257923 55.2947538,45.1957154 55.7862923,44.8038692 C55.8513692,45.3681 56.5755231,45.4857923 56.7001385,46.0216385 C56.8593692,46.6592538 57.4817538,46.9354846 57.9656769,47.3176385 C58.1609077,47.4685615 58.3312154,47.6665615 58.5527538,47.7794077 C58.9501385,47.9871 59.2194462,47.6693308 59.6022923,47.5641 C59.9505231,47.4657923 60.3049846,47.5017923 60.6276,47.6554846 C60.8138308,47.7434077 62.2102154,46.7610231 62.5806,46.9444846 C62.8589077,47.0829462 62.8699846,47.4187154 63.0029077,47.6603308 C63.1870615,48.0009462 63.5629846,47.5551 63.8212154,47.6686385 C64.2802154,47.8714846 64.4117538,49.5378692 64.0261385,49.8480231 C63.7367538,50.0591769 64.3992923,50.9702538 64.4886,51.1544077 C64.7537538,51.6701769 64.9849846,52.5667154 64.9026,53.1392538 C64.8347538,53.6003308 64.9676769,54.3334846 64.7011385,54.7433308 C64.4332154,55.1511 64.2857538,55.5844846 64.0746,56.0462538 C63.5221385,57.2363308 64.0462154,58.5801 63.5809846,59.8151769 C63.2936769,60.4458692 63.3421385,61.1208692 63.1905231,61.7785615 C63.0908308,62.2064077 62.5681385,62.8225615 62.7702923,63.2649462 C63.0846,62.9845615 63.5401385,63.0233308 63.8925231,62.8461 C64.6083692,62.4930231 64.9538308,61.6671 65.4716769,61.1146385 C65.7513692,60.8231769 65.9272154,60.4541769 66.0850615,60.0934846 C66.2449846,59.7528692 66.5592923,59.5313308 66.7129846,59.1990231 C67.0716,58.3509462 67.4080615,57.5077154 67.7694462,56.6624077 C68.5379077,54.8374846 68.6694462,53.0831769 68.9311385,51.1260231 C69.2156769,49.0477154 69.2226,47.0829462 68.8321385,45.0164077 L68.8321385,45.0164077 Z M30.1646769,30.2356385 C30.1646769,30.2391 30.1619077,30.2391 30.1619077,30.2391 L30.1646769,30.2356385 Z M38.3948308,26.3358692 L38.3906769,26.3358692 C38.3920615,26.3358692 38.3920615,26.3324077 38.3920615,26.3324077 L38.3948308,26.3358692 Z M36.2258308,66.6607154 C36.2133692,66.6655615 36.2029846,66.6676385 36.1946769,66.6697154 C36.2237538,66.6510231 36.2306769,66.6475615 36.2258308,66.6607154 L36.2258308,66.6607154 Z M38.0756769,69.1523308 C37.9863692,69.1343308 37.9932923,69.0997154 38.1026769,69.0471 C38.1802154,69.0761769 38.1705231,69.1142538 38.0756769,69.1523308 C38.0389846,69.1523308 38.0985231,69.1440231 38.0756769,69.1523308 L38.0756769,69.1523308 Z M37.2033692,68.7701769 C37.1140615,68.7189462 37.1140615,68.6857154 37.1971385,68.6711769 C37.2954462,68.7106385 37.2989077,68.7473308 37.2033692,68.7701769 C37.1666769,68.7653308 37.2338308,68.7764077 37.2033692,68.7701769 L37.2033692,68.7701769 Z M36.5422154,62.0243308 C36.4176,62.0679462 36.6772154,61.9765615 36.5422154,62.0243308 C36.5096769,62.0374846 36.5609077,62.0174077 36.5422154,62.0243308 L36.5422154,62.0243308 Z M36.4653692,55.7700231 C36.3940615,55.6966385 36.5069077,55.8060231 36.4653692,55.7700231 C36.4556769,55.7589462 36.4785231,55.7804077 36.4653692,55.7700231 L36.4653692,55.7700231 Z M35.9662154,65.8147154 C35.7723692,65.7794077 36.0707538,65.6631 35.9662154,65.8147154 C35.9177538,65.8091769 35.9689846,65.8091769 35.9662154,65.8147154 L35.9662154,65.8147154 Z M34.8426,45.7329462 C34.7262923,45.7128692 34.9817538,45.7454077 34.8426,45.7329462 C34.8329077,45.7329462 34.8612923,45.7371 34.8426,45.7329462 L34.8426,45.7329462 Z M27.9949846,43.4677154 C27.9306,43.4919462 28.1673692,43.4296385 27.9949846,43.4677154 C27.9804462,43.4753308 28.0233692,43.4635615 27.9949846,43.4677154 L27.9949846,43.4677154 Z M25.1869846,41.4517154 C24.9619846,41.4447923 25.3607538,41.4447923 25.1869846,41.4517154 C25.1606769,41.4503308 25.2098308,41.4503308 25.1869846,41.4517154 L25.1869846,41.4517154 Z M32.1419077,30.8767154 C32.1876,30.9951 32.1571385,31.0532538 32.0200615,31.0719462 C32.0719846,30.9951 32.1086769,30.9355615 32.1419077,30.8767154 L32.1419077,30.8767154 Z M32.8259077,31.7898692 C33.3160615,31.6334077 33.4946769,31.3544077 33.7882154,31.7317154 C33.9024462,31.8708692 33.8796,32.2322538 33.6186,32.1450231 C33.6892154,32.1706385 32.8196769,32.0868692 32.9809846,31.9927154 C32.8058308,32.0986385 32.4707538,32.1782538 32.2665231,32.0868692 C32.4576,31.9809462 32.6196,31.8563308 32.8259077,31.7898692 C32.9484462,31.7497154 32.6196,31.8563308 32.8259077,31.7898692 L32.8259077,31.7898692 Z M32.4368308,30.8877923 C32.5164462,30.8241 32.7006,30.5257154 32.6106,30.4114846 C32.6625231,30.4737923 32.2692923,30.3671769 32.4492923,30.3021 C32.5226769,30.2764846 32.9657538,30.0327923 33.0398308,30.1082538 C33.1672154,30.2391 32.4818308,30.9570231 32.3447538,31.0158692 C32.3599846,30.9459462 32.3966769,30.9134077 32.4368308,30.8877923 C32.5503692,30.8019462 32.3966769,30.9134077 32.4368308,30.8877923 L32.4368308,30.8877923 Z M32.8321385,29.5142538 C32.7982154,29.5786385 32.7656769,29.6132538 32.6832923,29.6084077 C32.7158308,29.5412538 32.7656769,29.5350231 32.8321385,29.5142538 L32.8321385,29.5142538 Z M32.9906769,28.9299462 C33.0301385,28.9299462 33.5992154,28.5699462 33.6186,28.7153308 C33.6276,28.7589462 32.9249077,28.9389462 32.9906769,28.9299462 L32.9906769,28.9299462 Z M33.7598308,31.1349462 C33.7577538,31.1522538 33.6186,31.4160231 33.5369077,31.3121769 C33.4649077,31.2408692 33.7362923,31.0124077 33.7598308,31.1349462 C33.7501385,31.2055615 33.7529077,31.1031 33.7598308,31.1349462 L33.7598308,31.1349462 Z M33.6857538,28.2736385 C33.7314462,28.2501 34.0824462,28.0320231 34.1281385,28.0825615 C34.2402923,28.2231 33.5604462,28.3996385 33.5286,28.4024077 C33.5666769,28.3158692 33.6352154,28.3061769 33.6857538,28.2736385 C33.8103692,28.2057923 33.6352154,28.3061769 33.6857538,28.2736385 L33.6857538,28.2736385 Z M34.2956769,32.3492538 C34.6155231,32.4974077 34.4327538,32.9965615 34.1572154,32.6095615 C34.1475231,32.8359462 33.7501385,33.2250231 33.5369077,33.2721 C33.6172154,33.1807154 33.6449077,33.0803308 33.6186,32.9723308 C33.5486769,32.9183308 33.4171385,33.0713308 33.3444462,33.0685615 C33.3714462,33.2091 33.9162923,32.1394846 33.4600615,32.4475615 C33.2946,32.5763308 32.1966,33.7428692 32.1342923,33.6750231 C32.0297538,33.5725615 32.6189077,32.7161769 32.6625231,32.6843308 C33.0398308,32.3755615 33.8242154,32.1291 34.2956769,32.3492538 L34.2956769,32.3492538 Z M34.5532154,32.7999462 C34.5359077,32.7999462 34.4680615,32.7791769 34.5532154,32.7999462 C34.5608308,32.7999462 34.5262154,32.7888692 34.5532154,32.7999462 L34.5532154,32.7999462 Z M34.8128308,32.2737923 C34.7719846,32.3132538 34.7346,32.3125615 34.6999846,32.2724077 C34.7539846,32.2502538 34.8059077,32.2350231 34.8128308,32.2737923 C34.8308308,32.3125615 34.8059077,32.2350231 34.8128308,32.2737923 L34.8128308,32.2737923 Z M34.7650615,27.5321769 C35.0004462,27.3826385 35.2496769,27.2732538 35.5556769,27.2005615 C35.3299846,27.3867923 35.0302154,27.4657154 34.7574462,27.5384077 L34.7650615,27.5321769 Z M34.9090615,32.9861769 C35.7876,33.0713308 34.3870615,33.3399462 34.2368308,33.1807154 C34.4341385,33.0104077 34.6667538,32.9605615 34.9090615,32.9861769 C34.9789846,32.9965615 34.6667538,32.9605615 34.9090615,32.9861769 L34.9090615,32.9861769 Z M34.0575231,33.5116385 C34.0637538,33.5081769 33.0010615,33.9374077 33.0813692,33.6715615 C33.0578308,33.7560231 33.4462154,33.3717923 33.3645231,33.4084846 C33.4524462,33.3704077 34.1648308,33.3267923 34.3732154,33.3281769 C34.2652154,33.4410231 34.1599846,33.4742538 34.0575231,33.5116385 C33.8242154,33.6016385 34.1599846,33.4742538 34.0575231,33.5116385 L34.0575231,33.5116385 Z M37.5938308,27.4851 C37.6686,27.5217923 37.6616769,27.5557154 37.5696,27.5924077 C37.5052154,27.5557154 37.5128308,27.5217923 37.5938308,27.4851 C37.6215231,27.4851 37.5550615,27.4878692 37.5938308,27.4851 L37.5938308,27.4851 Z M37.7122154,27.6235615 C37.7696769,27.5723308 37.8416769,27.5439462 37.9129846,27.5501769 C37.9766769,27.6450231 37.5031385,27.6983308 37.7122154,27.6235615 C37.7426769,27.5730231 37.6872923,27.6318692 37.7122154,27.6235615 L37.7122154,27.6235615 Z M40.4447538,27.3992538 C40.3713692,27.4851 40.2633692,27.4352538 40.1726769,27.4761 C40.2696,27.2877923 40.2882923,27.2850231 40.4447538,27.3992538 L40.4447538,27.3992538 Z M39.9580615,27.7232538 C39.9158308,27.7260231 39.8673692,27.7260231 39.8022923,27.7260231 C40.0162154,27.5439462 39.9795231,27.7232538 39.9580615,27.7232538 C39.9158308,27.7260231 39.9885231,27.7232538 39.9580615,27.7232538 L39.9580615,27.7232538 Z M36.9458308,30.1041 C36.8232923,30.2425615 36.8232923,30.2425615 36.6543692,30.2134846 C36.7436769,30.1539462 36.8648308,30.1747154 36.9458308,30.1041 L36.9458308,30.1041 Z M37.1909077,30.8497154 C36.5207538,31.4824846 37.0434462,30.8573308 36.8468308,31.0532538 C36.8502923,31.0615615 36.8468308,31.0719462 36.8392154,31.0719462 C36.7831385,31.0124077 37.1784462,30.8552538 37.1909077,30.8497154 C37.1092154,30.9307154 37.0759846,30.8691 37.1909077,30.8497154 L37.1909077,30.8497154 Z M36.9859846,31.6514077 C36.7914462,31.6396385 37.1909077,31.6583308 36.9859846,31.6514077 C36.9624462,31.6514077 37.0157538,31.6534846 36.9859846,31.6514077 L36.9859846,31.6514077 Z M37.6803692,29.5814077 C37.7281385,29.5294846 37.7662154,29.5364077 37.7911385,29.6063308 C37.7426769,29.6631 37.7025231,29.6520231 37.6803692,29.5814077 C37.6817538,29.5495615 37.6755231,29.6160231 37.6803692,29.5814077 L37.6803692,29.5814077 Z M38.3796,30.9099462 C38.4876,30.9390231 38.2189846,30.8877923 38.3796,30.9099462 C38.3837538,30.9113308 38.3477538,30.9057923 38.3796,30.9099462 L38.3796,30.9099462 Z M39.6458308,30.0141 C39.7441385,29.9961 39.8223692,30.0258692 39.8756769,30.0923308 C39.8777538,30.1331769 39.3599077,30.1587923 39.2789077,30.2882538 C39.3453692,30.0646385 39.5336769,30.1020231 39.6458308,30.0141 C39.6998308,30.0791769 39.5336769,30.1020231 39.6458308,30.0141 L39.6458308,30.0141 Z M40.9058308,30.1207154 C40.7763692,30.2391 40.6302923,30.2626385 40.4814462,30.3083308 C40.5866769,30.1442538 40.7417538,30.1712538 40.9058308,30.1207154 L40.9058308,30.1207154 Z M39.3273692,69.6127154 C39.4263692,69.6348692 39.6887538,69.5434846 39.7614462,69.5206385 C39.5842154,69.3780231 39.1937538,69.3600231 38.9666769,69.2208692 C38.9832923,69.2319462 38.2376769,68.7764077 38.3948308,69.1523308 C38.4356769,69.2423308 38.5776,69.1592538 38.6399077,69.2056385 C38.5499077,69.3420231 38.5111385,69.2984077 38.6101385,69.3565615 C38.6101385,69.3551769 37.7793692,68.9079462 38.6136,68.8774846 C38.0389846,68.3617154 38.6502923,68.5216385 38.4675231,68.1934846 C38.3449846,67.9712538 38.9569846,67.7552538 38.6274462,67.5621 C38.4682154,67.4741769 38.2958308,67.4901 38.1352154,67.3793308 C37.9067538,67.2117923 38.1213692,66.9182538 38.3394462,66.9487154 C38.3567538,66.9487154 38.4675231,66.4260231 38.5090615,66.3450231 C38.4460615,66.3187154 38.0189077,65.7877154 38.1213692,65.6769462 C38.2501385,65.5412538 38.8046769,66.0203308 38.9410615,65.6679462 C38.9950615,65.5384846 38.7479077,65.1964846 38.7686769,65.0538692 C39.0227538,65.0331 40.6773692,65.0954077 40.3949077,64.3387154 C40.2972923,64.0728692 39.6008308,63.6789462 39.6707538,63.4636385 C39.9158308,63.4954846 40.3146,63.8513308 40.5714462,63.7107923 C40.7881385,63.6014077 40.9598308,63.8305615 41.1799846,63.5827154 C41.2132154,63.5370231 41.5856769,63.1444846 41.4797538,63.0717923 C41.3682923,63.0697154 41.3032154,63.1327154 41.2942154,63.2649462 C41.1668308,63.0863308 41.3897538,62.9644846 41.5060615,62.8336385 C41.5420615,62.8744846 41.5669846,62.9118692 41.5912154,62.9451 C41.7331385,62.7381 42.4919077,61.7439462 42.5230615,61.7190231 C42.9149077,61.2669462 42.5874462,60.6535615 42.9758308,60.2928692 C43.3316769,59.9577923 43.7172923,59.7424846 44.1562154,59.5638692 C44.2967538,59.5098692 44.7834462,59.2544077 44.8838308,59.2800231 C45.6924462,59.5313308 45.5948308,58.5648692 46.1092154,58.1259462 C46.6374462,57.6877154 46.2504462,55.4425615 46.6748308,55.2777923 C46.9046769,55.1864077 47.5928308,54.3334846 47.9542154,53.9444077 C48.3045231,53.5754077 48.3453692,53.0949462 48.2138308,52.6165615 C48.0089077,51.8910231 47.7991385,52.3057154 47.2750615,51.9893308 C46.8576,51.7387154 46.5377538,51.2388692 46.0116,51.1703308 C45.7049077,51.1260231 45.3892154,51.2201769 45.0887538,51.1294846 C44.9537538,51.0893308 44.6103692,50.8788692 44.4822923,51.0540231 C44.5037538,51.0277154 44.2005231,51.1703308 44.2206,51.1772538 C44.1901385,51.1551 44.2157538,50.7805615 44.1160615,50.6877923 C43.9547538,50.5361769 43.4161385,50.3838692 43.2188308,50.3354077 C42.7646769,50.2170231 42.6552923,50.7507923 42.5410615,50.1131769 C42.1672154,50.0121 41.7954462,49.5794077 41.8619077,49.4693308 C41.8944462,49.4257154 41.2831385,48.1317923 41.1966,48.2515615 C41.1896769,47.8161 39.8403692,47.2761 39.5018308,47.4810231 C39.1937538,47.7074077 38.6288308,47.2823308 38.4377538,47.0787923 C38.2231385,46.8503308 38.2314462,46.6004077 37.8700615,46.4515615 C37.7198308,46.3878692 37.4574462,46.4224846 37.5128308,46.1573308 C37.5765231,45.8824846 36.8502923,45.8277923 36.7831385,45.5550231 C36.8862923,45.5723308 36.9742154,45.5217923 37.0697538,45.4975615 C36.7866,45.5958692 36.4452923,45.3916385 36.1649077,45.6159462 C35.7619846,45.9537923 35.5203692,45.4587923 35.0786769,45.5467154 C34.5172154,45.6526385 34.8931385,45.4484077 34.5386769,45.2296385 C34.6868308,45.3203308 33.8830615,44.8647923 34.0706769,44.8786385 C33.9045231,44.8627154 34.0962923,45.1590231 33.9086769,45.2227154 C33.6172154,45.3286385 33.3624462,45.3992538 33.5542154,45.7502538 C33.8761385,46.3927154 32.8792154,46.0901769 33.3499846,45.6526385 C33.4344462,45.5799462 33.4566,44.7394846 33.5486769,44.7706385 C33.4344462,44.7297923 32.5240615,45.3189462 32.4181385,45.4463308 C32.1273692,44.9769462 31.6337538,46.6004077 31.4717538,46.6156385 C31.3879846,46.2168692 31.0072154,46.0514077 30.6756,45.9351 C30.3952154,45.8271 30.1113692,46.4972538 29.7409846,46.1303308 C29.0874462,45.4657154 29.3740615,44.3961 29.7091385,43.6407923 C29.8462154,43.2925615 28.4969077,43.1852538 28.3321385,43.3271769 C28.0019077,43.5951 28.3826769,42.7698692 28.3806,42.7968692 C28.4193692,42.4624846 28.4955231,42.2395615 28.6416,42.2492538 C28.7309077,42.0526385 29.2321385,41.1498692 29.1781385,41.0425615 C28.9766769,40.5690231 28.1244462,41.4060231 28.0462154,41.6185615 C27.9589846,41.8234846 27.7935231,41.9356385 27.7152923,42.1218692 C27.6370615,42.3087923 27.4785231,42.0803308 27.3435231,42.1571769 C26.9772923,42.3634846 26.4504462,42.2561769 26.5314462,41.7231 C26.6117538,41.0806385 26.3701385,39.8123308 27.0908308,39.3713308 C27.3116769,39.2342538 27.3462923,38.5945615 27.5976,38.3661 C27.6322154,38.3418692 28.3612154,37.9181769 28.2899077,37.8323308 C28.3965231,37.9479462 28.9676769,37.7174077 29.0417538,37.8662538 C29.0985231,37.9901769 29.4349846,38.1161769 29.5519846,38.0497154 C29.5471385,38.0628692 29.6142923,37.7658692 29.6142923,37.7624077 C29.6011385,37.7589462 29.3775231,37.7284846 29.3886,37.6585615 C29.4149077,37.5581769 30.0989077,37.6246385 30.1196769,37.6267154 C30.4436769,37.6516385 30.6846,37.9181769 30.9227538,37.7568692 C31.2986769,37.5048692 31.0695231,39.1698692 31.2162923,39.3207923 C31.2993692,39.4121769 31.2391385,39.6122538 31.3969846,39.5935615 C31.6088308,39.5727923 31.6787538,37.4328692 32.2284462,36.9891 C32.6320615,36.6664846 33.0682154,36.3743308 33.5154462,36.1327154 C33.6552923,36.0600231 34.0270615,35.8834846 34.1032154,35.7429462 C34.0852154,35.6723308 34.0201385,35.5920231 33.9419077,35.6633308 C33.9204462,35.5297154 34.1406,35.6127923 34.1800615,35.4736385 C34.2229846,35.3365615 34.0679077,35.2943308 34.0852154,35.2472538 C34.0782923,35.2583308 34.2229846,34.9654846 34.1731385,35.0049462 C34.1800615,35.0132538 34.1800615,35.0257154 34.1828308,35.0326385 C34.4043692,35.0693308 34.1343692,34.8263308 34.1260615,34.7896385 C34.4161385,34.9391769 34.2936,34.4725615 34.5760615,34.4469462 C34.3732154,34.5334846 34.4140615,34.7612538 34.4396769,34.8976385 C34.4978308,35.2050231 34.7671385,34.4774077 34.7346,34.5030231 C35.0073692,34.3936385 35.4296769,34.1644846 35.7218308,33.9602538 C35.6539846,33.9346385 35.5833692,33.9865615 35.5009846,33.9291 C35.7986769,33.8176385 36.1337538,33.8536385 36.4176,33.7068692 C36.4044462,33.4064077 36.5851385,33.0934846 36.9236769,33.0332538 C37.4449846,32.9522538 38.0493692,32.6337923 38.5644462,32.4593308 C38.4876,32.6351769 38.6080615,32.4974077 38.7479077,32.5666385 C38.5796769,32.1291 37.6616769,33.3752538 38.0971385,33.1218692 C38.4654462,32.9107154 39.7116,32.7161769 39.8791385,32.3603308 C39.8756769,32.3367923 39.7981385,32.0986385 39.8009077,32.0986385 C39.4928308,32.0986385 39.4672154,32.4787154 39.0885231,32.4766385 C38.4045231,32.4683308 38.8192154,32.0460231 38.6759077,31.8563308 C38.5519846,31.8867923 38.4488308,31.8514846 38.3650615,31.7566385 C38.4356769,31.7441769 39.2802923,31.5496385 38.8351385,31.4478692 C38.1116769,31.2941769 37.6277538,32.0986385 37.0316769,32.0806385 C37.4747538,31.8078692 38.0839846,31.2297923 38.6253692,31.1557154 C39.1986,31.0747154 40.0002923,31.3578692 40.5063692,31.0027154 C40.9598308,30.6918692 41.2679077,30.9182538 41.5178308,30.4114846 C41.5981385,30.2716385 41.1896769,30.0951 41.0858308,30.0743308 C41.1273692,30.0224077 41.2194462,30.0743308 41.2582154,29.9871 C40.5762923,29.6852538 40.4343692,29.3847923 40.3512923,28.5997154 C40.0079077,28.8517154 38.8462154,29.3910231 39.4672154,28.5131769 C39.2436,28.4176385 38.5395231,27.8298692 38.2681385,28.2341769 C38.1469846,28.4176385 37.9496769,28.7222538 37.7426769,28.8164077 C37.2802154,29.0275615 37.6921385,28.9881 37.5356769,29.2947923 C37.2753692,29.8015615 36.6460615,29.7344077 36.3490615,30.1774846 C36.1593692,30.4592538 36.1012154,30.6565615 35.8083692,30.7832538 C35.5536,30.8981769 35.4566769,30.5984077 35.5833692,30.3581769 C35.6712923,30.4592538 35.7529846,30.4737923 35.8298308,30.4004077 C35.8499077,30.2882538 35.6948308,30.3408692 35.6442923,30.3021 C35.7349846,30.1407923 35.8457538,29.9961 35.9766,29.8673308 C35.9295231,29.8417154 35.2801385,29.7385615 35.3043692,29.5696385 C35.3466,29.2124077 34.9000615,29.4062538 34.8197538,29.3003308 C35.1666,28.8607154 35.1666,28.6599462 35.8499077,28.3158692 C36.0839077,28.2016385 37.3902923,27.5307923 37.6339846,27.6962538 C37.6035231,27.8492538 37.4449846,27.8181 37.3563692,27.8914846 C37.5453692,27.9406385 38.0902154,28.0029462 38.2743692,27.8714077 C38.2376769,27.8354077 38.0161385,27.4733308 38.1303692,27.3867923 C38.1130615,27.4013308 38.5056,27.3944077 38.5346769,27.3840231 C38.7430615,27.3334846 38.9749846,27.3057923 39.0947538,27.0946385 C39.1986,26.9049462 39.8888308,26.6598692 40.0542923,26.7540231 C40.9619077,27.2684077 38.8296,27.8111769 38.8053692,27.7551 C38.8503692,27.9039462 39.4236,27.6477923 39.5696769,28.0410231 C39.6063692,28.1372538 40.2564462,28.3511769 40.3208308,28.2597923 C40.3616769,28.2141 40.1332154,27.9738692 40.1256,27.9171 C40.8109846,28.2501 40.7763692,28.0756385 40.6621385,27.6173308 C40.5541385,27.1797923 41.0643692,27.6450231 41.0906769,27.6602538 C41.2028308,27.7184077 41.6694462,27.4511769 41.7400615,27.3556385 C41.5697538,27.2282538 41.2817538,27.2310231 41.1329077,27.0759462 C40.9986,26.9395615 41.4922154,26.9049462 41.3177538,26.7616385 C41.1114462,26.5927154 40.7853692,26.6356385 40.8996,26.3026385 C40.7812154,26.2673308 40.6676769,26.2825615 40.5617538,26.3462538 C40.5922154,26.4064846 40.6621385,26.3601 40.6877538,26.3947154 C40.5714462,26.4618692 40.4433692,26.4729462 40.3146,26.4694846 C40.3533692,26.4134077 40.4738308,26.4134077 40.4772923,26.3005615 C40.1186769,26.2569462 39.9303692,26.4694846 39.6236769,26.5629462 C39.7116,26.4390231 39.8583692,26.3981769 39.9663692,26.3033308 C39.6292154,26.3469462 39.3079846,26.4694846 39.0407538,26.6924077 C39.0781385,26.7325615 39.1196769,26.7671769 39.1425231,26.8163308 C38.8842923,27.0447923 38.5395231,27.1181769 38.2376769,27.2545615 C38.2889077,27.0517154 38.5090615,27.0987923 38.5796769,26.9492538 C38.4675231,26.9492538 38.3595231,26.9769462 38.2612154,27.0247154 C38.3906769,27.0053308 38.7721385,26.6266385 38.8572923,26.5304077 C38.3082923,26.4632538 38.0756769,27.1791 37.5550615,27.0787154 C37.6637538,26.9492538 37.8825231,27.0143308 37.9566,26.8163308 C37.7662154,26.8398692 37.0358308,27.3362538 36.9160615,27.0787154 C36.9098308,27.0593308 38.2515231,26.5304077 38.3906769,26.3358692 C38.3006769,26.3234077 38.1989077,26.4168692 38.1172154,26.3102538 C38.1822923,26.2382538 38.2902923,26.2292538 38.3650615,26.1517154 C37.9282154,26.1475615 36.6190615,26.6806385 36.7180615,26.9859462 C36.5491385,27.1244077 36.3677538,27.1583308 36.1593692,27.0759462 C36.2389846,26.9471769 36.5269846,26.9444077 36.2950615,26.7609462 C35.8727538,26.9153308 35.4629077,27.0884077 35.0530615,27.2697923 C34.1059846,27.6872538 33.1803692,28.1781 32.3059846,28.7222538 C30.8562923,29.6208692 29.6558308,30.6794077 28.4602154,31.8812538 C27.8260615,32.5257923 25.4050615,35.3517923 25.4154462,35.9416385 C25.4209846,36.3777923 25.1620615,36.7634077 25.0000615,37.1559462 C24.8692154,37.4730231 24.8505231,37.9209462 24.6940615,38.2165615 C24.3416769,38.8451769 24.5022923,39.5700231 24.3437538,40.2927923 C24.5445231,40.1384077 24.9529846,36.8409462 25.3129846,36.9669462 C25.3815231,36.9891 25.0907538,38.3370231 25.0173692,38.5031769 C24.7189846,39.1947923 25.1122154,40.0394077 24.9149077,40.7621769 C24.8934462,40.8348692 24.7944462,41.2011 24.7923692,41.2751769 C24.4572923,41.5306385 24.8782154,41.9127923 24.8754462,42.1911 C24.8754462,42.3607154 25.7249077,43.1042538 25.8924462,43.2018692 C26.2469077,43.4144077 26.3175231,43.0371 26.6429077,43.1042538 C26.9350615,43.1644846 27.0202154,43.6961769 27.1787538,43.9232538 C27.3836769,44.2347923 28.1791385,44.1987923 28.3182923,44.3455615 C28.4089846,44.4611769 28.3307538,45.0662538 28.6928308,45.1521 C28.6914462,45.1112538 28.6831385,44.8966385 28.7350615,44.8647923 C28.8458308,44.7990231 29.0770615,45.2019462 29.0002154,45.2760231 C28.8852923,45.3023308 28.7821385,45.2601 28.6942154,45.1521 C28.6942154,45.2074846 28.6360615,46.0001769 28.8659077,45.8464846 C28.8700615,45.7987154 28.8852923,45.7467923 28.8901385,45.6997154 C29.1961385,45.8319462 29.1712154,46.2764077 29.3851385,46.3380231 C29.6807538,46.4197154 29.9071385,46.7901 30.1259077,46.8960231 C30.3252923,47.0005615 30.2699077,46.1988692 30.6499846,46.1594077 C30.9580615,46.1324077 31.1297538,46.9285615 31.2329077,47.1224077 C31.3956,47.4034846 31.0182923,48.0791769 31.2280615,48.2944846 C31.4378308,48.5194846 30.7026,49.0456385 30.6652154,49.2727154 C30.6423692,49.4437154 30.2671385,49.6077923 30.2802923,49.6714846 C30.3086769,49.8570231 30.2006769,50.1117923 30.1314462,50.2904077 C29.9438308,50.7874846 30.0359077,50.8317923 30.3599077,51.0609462 C30.3696,51.0699462 29.7624462,52.2731769 30.1113692,52.5840231 C30.6610615,53.0361 31.3907538,54.1548692 31.5686769,54.8561769 C31.9272923,55.8233308 32.4769846,56.4166385 33.3977538,56.8950231 C34.1475231,57.2896385 34.6778308,57.9556385 34.6778308,58.8604846 C34.7069077,59.3901 34.6252154,60.0526385 34.8509077,60.5497154 C35.0073692,60.8965615 34.7103692,61.4670231 34.9332923,61.7820231 C35.0786769,61.9765615 34.8882923,62.0894077 34.9748308,62.2687154 C35.0606769,62.4660231 35.2669846,62.7914077 35.2614462,63.0205615 C35.2552154,63.3971769 35.2614462,63.8513308 35.2870615,64.2258692 C35.2953692,64.3532538 35.1749077,64.5706385 35.2386,64.6537154 C35.3251385,64.7575615 35.8367538,66.0161769 35.8367538,66.3817154 C35.8346769,66.4717154 36.2286,66.3602538 35.8727538,66.0030231 C36.2950615,65.7655615 36.2092154,66.7590231 36.2389846,66.7652538 C35.8596,66.6406385 36.1032923,66.7424077 36.1351385,67.2318692 C36.1545231,67.5191769 36.0603692,67.3800231 36.2950615,67.4354077 C36.6716769,67.5191769 36.2950615,67.7704846 36.4369846,67.9712538 C36.7180615,68.3762538 37.1535231,68.7528692 37.4484462,69.0651 C37.9289077,69.5774077 38.7534462,69.4943308 39.3273692,69.6127154 C39.4111385,69.6300231 39.2228308,69.5933308 39.3273692,69.6127154 L39.3273692,69.6127154 Z" id="Fill-21" fill="#FFFFFF" sketch:type="MSShapeGroup"></path>
                <path d="M67.6446923,57.9321 C67.5228462,58.1737154 67.4432308,58.4298692 67.3428462,58.6777154 C67.4556923,58.4319462 67.5636923,58.1903308 67.6446923,57.9321 L67.6446923,57.9321 Z M67.7852308,57.5852538 C67.7693077,57.6101769 67.7547692,57.6447923 67.7443846,57.6766385 C67.7575385,57.6461769 67.788,57.6184846 67.7852308,57.5852538 L67.7852308,57.5852538 Z M53.3928462,72.0517154 C53.3983846,72.0517154 53.4011538,72.0517154 53.4073846,72.0468692 L53.4073846,72.0385615 C53.3983846,72.0337154 53.3963077,72.0413308 53.3928462,72.0517154 L53.3928462,72.0517154 Z M38.6273077,66.0916385 C38.6653846,66.0867923 38.5643077,66.1006385 38.6273077,66.0916385 L38.6273077,66.0916385 Z M53.3603077,72.0503308 C53.3672308,72.0524077 53.3810769,72.0524077 53.3928462,72.0524077 C53.3554615,72.0468692 53.3554615,72.0482538 53.3603077,72.0503308 L53.3603077,72.0503308 Z M53.3603077,72.0503308 C52.9033846,71.9901 51.1331538,72.4941 51.0140769,72.0925615 C50.8306154,72.0309462 50.0406923,72.3037154 49.8094615,72.3293308 C49.302,72.3798692 48.8021538,72.5204077 48.3016154,72.6104077 C47.4528462,72.7530231 46.6532308,73.0617923 45.7933846,73.1601 C45.4541538,73.2002538 43.1563846,73.2376385 43.0726154,72.8007923 C43.0393846,72.5411769 42.5513077,72.4061769 42.408,72.1908692 C42.3941538,72.1624846 41.9953846,71.6058692 41.9870769,71.6460231 C42.0078462,71.4812538 42.3823846,71.4722538 42.5035385,71.4895615 C42.4460769,71.2534846 42.6080769,71.3524846 42.7527692,71.2680231 C42.6267692,71.2119462 41.4152308,71.4196385 41.3813077,71.4923308 C41.3411538,71.5712538 41.4602308,71.6543308 41.3411538,71.8121769 C41.2643077,71.9111769 41.0531538,71.8405615 41.0213077,71.8841769 C40.9596923,72.0524077 41.742,72.0261 41.4408462,72.2566385 C41.4083077,72.2801769 40.7720769,72.2967923 40.6474615,72.3057923 C40.6433077,72.3951 41.4796154,72.5951769 41.5751538,72.7232538 C40.662,72.6027923 39.7100769,72.6803308 38.7096923,72.5190231 C38.9748462,72.7495615 39.3410769,72.6865615 39.6401538,72.8727923 C39.3279231,72.9226385 38.9568462,72.7641 38.6487692,72.7294846 C41.0386154,73.4571 43.6444615,73.6814077 46.1319231,73.5616385 C47.4466154,73.4986385 48.7446923,73.3276385 50.0247692,73.0604077 C50.3397692,72.9897923 53.4281538,72.1237154 53.3928462,72.0524077 C53.3963077,72.0558692 53.3672308,72.0524077 53.3603077,72.0503308 L53.3603077,72.0503308 Z M38.7346154,66.2335615 C38.7256154,66.1671 38.6896154,66.1158692 38.6273077,66.0916385 C38.3517692,66.1200231 38.7346154,66.4481769 38.7346154,66.2335615 L38.7346154,66.2335615 Z M68.6000769,49.5517154 C68.6319231,49.4118692 68.5952308,49.3197923 68.544,49.2083308 C68.1950769,49.4118692 68.3196923,50.0695615 68.3196923,50.4157154 C68.5952308,50.1609462 68.4927692,50.0162538 68.5952308,49.5669462 C68.6049231,49.5288692 68.6146154,49.4783308 68.6000769,49.5517154 L68.6000769,49.5517154 Z M68.2532308,53.3538692 C68.2428462,54.0060231 68.004,54.6021 67.9811538,55.2563308 C68.2317692,54.9558692 68.2906154,53.8959462 68.2989231,53.5061769 L68.2989231,53.5020231 C68.2989231,53.4584077 68.3086154,53.4154846 68.2532308,53.3538692 L68.2532308,53.3538692 Z M67.9167692,52.1534077 C67.9167692,52.3375615 67.9084615,52.8367154 68.0213077,52.9883308 C68.0427692,52.2634846 68.0109231,51.5344846 67.995,50.8124077 C67.9036154,51.2271 67.914,51.7276385 67.9167692,52.1534077 C67.9167692,52.0004077 67.9167692,52.3008692 67.9167692,52.1534077 L67.9167692,52.1534077 Z M67.8987692,52.9474846 C67.6606154,53.0956385 67.6495385,53.1060231 67.653,53.3386385 C67.6813846,53.1863308 67.8461538,53.1087923 67.8987692,52.9474846 L67.8987692,52.9474846 Z M67.5879231,55.8856385 C67.6010769,55.8690231 67.6010769,55.8503308 67.6149231,55.8060231 C67.6024615,55.8184846 67.3483846,55.9368692 67.4376923,55.9368692 C67.4813077,55.9223308 67.5380769,55.9015615 67.5879231,55.8856385 C67.5484615,55.9382538 67.6010769,55.8690231 67.5879231,55.8856385 L67.5879231,55.8856385 Z M68.0427692,49.6140231 C68.0933077,49.5420231 68.1272308,49.4859462 68.0898462,49.4063308 C68.0365385,49.4658692 68.0379231,49.5316385 68.0427692,49.6140231 L68.0427692,49.6140231 Z M68.1916154,48.8455615 C68.2130769,48.7195615 68.3030769,48.6018692 68.2449231,48.4364077 C68.2096154,48.5928692 68.1355385,48.7126385 68.1916154,48.8455615 L68.1916154,48.8455615 Z M68.931,51.1260231 C68.6693077,53.0831769 68.5377692,54.8374846 67.7693077,56.6624077 C67.4079231,57.5077154 67.0714615,58.3502538 66.7128462,59.1990231 C66.5598462,59.5313308 66.2448462,59.7528692 66.0849231,60.0934846 C65.9270769,60.4541769 65.7519231,60.8231769 65.4715385,61.1146385 C64.9536923,61.6671 64.6082308,62.4930231 63.8923846,62.8461 C63.54,63.0233308 63.0844615,62.9845615 62.7701538,63.2649462 C62.568,62.8225615 63.0906923,62.2064077 63.1903846,61.7785615 C63.342,61.1208692 63.2935385,60.4458692 63.5808462,59.8151769 C64.0467692,58.5801 63.522,57.2363308 64.0751538,56.0462538 C64.2856154,55.5844846 64.4330769,55.1511 64.701,54.7426385 C64.9675385,54.3334846 64.8346154,53.6003308 64.9024615,53.1392538 C64.9848462,52.5667154 64.7536154,51.6701769 64.4884615,51.1544077 C64.3991538,50.9702538 63.7366154,50.0591769 64.026,49.8480231 C64.4116154,49.5378692 64.2807692,47.8714846 63.8210769,47.6686385 C63.5628462,47.5551 63.1869231,48.0009462 63.0027692,47.6603308 C62.8698462,47.4180231 62.8587692,47.0829462 62.5804615,46.9444846 C62.2100769,46.7610231 60.8136923,47.7434077 60.6274615,47.6554846 C60.4986923,47.5945615 60.3671538,47.5557923 60.2231538,47.5371 C60.5416154,46.0597154 60.6987692,44.5366385 60.6987692,42.9747923 C60.6987692,40.1633308 60.1712308,37.4778692 59.2123846,35.0063308 C59.6063077,34.9426385 60.2196923,34.8824077 60.2854615,34.9384846 C60.4571538,35.0873308 60.9583846,35.4141 60.8538462,35.8073308 C60.7195385,36.2649462 61.7275385,36.3570231 61.9746923,36.4428692 C62.2848462,36.5467154 62.3810769,36.9074077 62.7244615,36.9413308 C62.9536154,36.9627923 63.0650769,37.1199462 63.2540769,37.2286385 C63.5808462,37.4162538 62.8414615,35.9215615 63.4022308,36.3258692 C63.7449231,36.5744077 64.2184615,36.8229462 64.6511538,36.9219462 C64.6573846,36.8388692 64.6836923,36.7710231 64.7196923,36.6990231 C64.9917692,36.6055615 65.223,37.0154077 64.8747692,36.3459462 C64.782,36.1777154 64.0433077,34.7321769 63.8646923,34.8277154 C63.7719231,34.8727154 63.9304615,34.9800231 63.8480769,35.0319462 C63.7449231,35.1011769 63.5517692,34.7612538 63.4936154,34.8339462 C63.4756154,34.8505615 63.5448462,34.9717154 63.522,35.0132538 C63.4347692,35.1309462 62.2100769,33.9588692 62.1484615,33.7290231 C62.2239231,33.7068692 62.2834615,33.6874846 62.3526923,33.6646385 C62.3450769,33.5843308 62.3125385,33.5116385 62.2412308,33.4597154 C62.2848462,33.4341 62.3374615,33.4202538 62.388,33.4174846 C62.3388462,33.3261 62.3360769,33.2374846 62.3713846,33.1426385 C62.5008462,33.0477923 62.8449231,33.4341 63.027,33.4140231 C62.9169231,32.9522538 62.0646923,32.2890231 61.6534615,32.1180231 C61.5925385,32.1893308 61.6416923,32.2426385 61.6333846,32.3125615 C61.5357692,32.1450231 61.2913846,32.1401769 61.2290769,31.9006385 C61.3273846,32.0037923 61.4353846,32.0647154 61.5669231,32.0681769 C61.6631538,31.9844077 61.1854615,31.5794077 61.1501538,31.5330231 C61.1383846,31.6382538 61.1501538,31.7393308 61.1951538,31.8355615 C61.0476923,31.9297154 60.9715385,31.7448692 60.8358462,31.7393308 C61.0116923,32.3091 61.6880769,33.1461 62.1920769,33.4334077 C62.2156154,33.4029462 61.9075385,33.6023308 62.0439231,33.6085615 C61.7787692,33.5988692 61.7656154,33.7290231 61.6465385,33.7151769 C61.6465385,34.0315615 62.1789231,34.1492538 62.316,34.3590231 C62.4156923,34.5161769 62.4828462,34.7612538 62.568,34.9551 C62.3769231,34.8886385 61.9075385,34.4656385 61.9144615,34.4704846 C61.7787692,34.4469462 61.2013846,33.7802538 61.0947692,33.6521769 C60.8150769,33.3281769 60.7306154,33.2111769 60.3567692,33.0131769 C59.8818462,32.7681 59.3806154,32.2980231 58.9146923,32.1387923 C58.6218462,32.0363308 59.0386154,32.5714846 59.0386154,32.5735615 C59.2774615,32.7736385 59.5793077,32.9294077 59.8119231,33.1246385 C60.2065385,33.4431 60.7714615,33.4846385 61.1217692,33.9097154 C61.0193077,33.8391 60.9154615,33.7913308 60.7984615,33.7802538 C60.7735385,33.9858692 61.1501538,34.2392538 61.1771538,34.4947154 C61.1854615,34.5618692 61.2803077,34.9315615 61.2664615,34.9938692 C61.1626154,35.0035615 60.5132308,34.7127923 60.5616923,34.5944077 C60.6018462,34.4905615 61.2844615,34.6387154 61.0033846,34.2766385 C60.7686923,33.9671769 60.4509231,33.7844077 60.1220769,33.5905615 C59.5793077,33.2804077 58.9707692,32.7480231 58.3698462,32.5604077 C58.4086154,32.7535615 58.3539231,32.8553308 58.2666923,32.9086385 C57.7308462,31.8480231 57.0994615,30.8407154 56.4002308,29.8867154 C56.5753846,29.8811769 56.8273846,29.8922538 56.8841538,29.8154077 C57.1181538,29.5329462 56.9651538,29.7953308 57.3154615,29.7413308 C57.2676923,29.3965615 56.6923846,29.1881769 56.6529231,28.9853308 C56.7519231,28.9929462 56.826,29.0781 56.9319231,29.0857154 C56.907,29.0171769 55.836,28.4238692 56.4230769,28.5263308 C56.6293846,28.2701769 56.0090769,28.0742538 55.8789231,28.0347923 C55.9730769,28.1171769 56.0720769,28.1933308 56.1745385,28.2618692 C55.593,28.7367923 54.9422308,27.8714077 54.3406154,27.4747154 C54.1010769,27.2282538 53.8456154,26.9859462 53.5929231,26.7484846 C53.9093077,26.8544077 54.1931538,26.9859462 54.3295385,27.0759462 C54.3357692,27.1271769 54.2859231,27.0939462 54.2693077,27.1271769 C54.2810769,27.1707923 54.9595385,27.4574077 55.2108462,27.5231769 C55.1644615,27.4733308 54.7843846,27.2808692 54.7788462,27.2047154 C54.8778462,27.3687923 55.5320769,27.5397923 55.7196923,27.6291 C56.1579231,27.8423308 56.5788462,28.0714846 56.9900769,28.3110231 C57.8651538,28.8081 58.7056154,29.3536385 59.5073077,29.9601 C61.1605385,31.1924077 62.6469231,32.6351769 63.9339231,34.2468692 C65.2977692,35.9527154 66.4283077,37.8468692 67.2819231,39.8566385 C67.608,40.6064077 67.8530769,41.3672538 68.0683846,42.1274077 C67.3767692,40.4312538 65.8917692,37.8821769 65.7671538,37.9631769 C65.6141538,38.0656385 66.9115385,39.9591 67.0105385,40.2034846 C67.005,40.1944846 67.1053846,40.4257154 67.0105385,40.2034846 C67.473,41.2987154 67.9811538,42.3807923 68.4034615,43.4961 C68.4110769,43.4753308 68.4145385,43.4455615 68.418,43.4123308 C68.5523077,43.9447154 68.6949231,44.4812538 68.8333846,45.0184846 L68.832,45.0164077 C69.2224615,47.0829462 69.2155385,49.0477154 68.931,51.1260231 L68.931,51.1260231 Z M63.3530769,35.4632538 C63.2256923,35.3607923 63.0713077,35.3981769 62.9363077,35.3234077 C62.9785385,35.4812538 63.1377692,35.4293308 63.2153077,35.5096385 C63.1571538,35.4549462 63.2021538,35.4944077 63.2187692,35.5096385 C63.2596154,35.5491 63.3115385,35.5027154 63.3530769,35.4632538 L63.3530769,35.4632538 Z M61.1217692,33.9090231 L61.1217692,33.9097154 L61.1259231,33.9117923 L61.1217692,33.9090231 Z M64.0599231,35.2797923 C64.0246154,35.4154846 64.0737692,35.4944077 64.1866154,35.5491 C64.1956154,35.4265615 64.1492308,35.3517923 64.0599231,35.2797923 L64.0599231,35.2797923 Z M68.5952308,49.5669462 C68.598,49.5627923 68.598,49.5579462 68.6000769,49.5517154 C68.58,49.6479462 68.5883077,49.6098692 68.5952308,49.5669462 L68.5952308,49.5669462 Z M68.0683846,42.1274077 C68.1964615,42.5580231 68.3086154,42.9865615 68.418,43.4123308 C68.445,43.1672538 68.3030769,42.6992538 68.0683846,42.1274077 L68.0683846,42.1274077 Z M68.2989231,53.5061769 L68.2989231,53.5020231 L68.2989231,53.5061769 Z M63.2187692,35.5096385 L63.2153077,35.5096385 C63.2270769,35.5214077 63.2256923,35.5158692 63.2187692,35.5096385 L63.2187692,35.5096385 Z M56.1696923,28.2736385 C56.1759231,28.3082538 56.3136923,28.3158692 56.1696923,28.2736385 L56.1696923,28.2736385 Z M55.0751538,28.2556385 C55.4261538,28.6544077 55.7736923,29.0656385 56.097,29.4921 C56.1759231,29.5260231 56.2389231,29.5281 56.2624615,29.4824077 C56.1364615,29.1784846 55.9433077,28.8357923 55.6241538,28.5491769 C55.4766923,28.4044846 55.2731538,28.3324846 55.0751538,28.2556385 L55.0751538,28.2556385 Z M39.3327692,69.6127154 L39.3279231,69.6127154 C39.3597692,69.6189462 39.348,69.6168692 39.3327692,69.6127154 L39.3327692,69.6127154 Z M36.1945385,66.6697154 C36.2028462,66.6676385 36.2139231,66.6655615 36.2256923,66.6607154 C36.2305385,66.6475615 36.2236154,66.6510231 36.1945385,66.6697154 L36.1945385,66.6697154 Z M38.0672308,69.1509462 C38.0686154,69.1509462 38.07,69.1523308 38.0755385,69.1523308 C38.0900769,69.1474846 38.0755385,69.1474846 38.0672308,69.1509462 L38.0672308,69.1509462 Z M38.1025385,69.0471 C37.9973077,69.0976385 37.9883077,69.1274077 38.0672308,69.1509462 C38.0616923,69.1509462 38.0596154,69.1523308 38.0755385,69.1523308 C38.1703846,69.1142538 38.1800769,69.0761769 38.1025385,69.0471 L38.1025385,69.0471 Z M37.197,68.6711769 C37.1139231,68.6857154 37.1139231,68.7189462 37.2032308,68.7701769 C37.1665385,68.7653308 37.2336923,68.7764077 37.2032308,68.7701769 C37.2987692,68.7473308 37.2953077,68.7106385 37.197,68.6711769 L37.197,68.6711769 Z M35.9543077,65.8098692 C35.946,65.8098692 35.9397692,65.8098692 35.9660769,65.8147154 C36.0671538,65.6679462 35.7957692,65.7724846 35.9543077,65.8098692 L35.9543077,65.8098692 Z M39.3279231,69.6127154 C38.7533077,69.4943308 37.9287692,69.5774077 37.4483077,69.0651 C37.1533846,68.7528692 36.7179231,68.3762538 36.4368462,67.9712538 C36.2949231,67.7704846 36.6715385,67.5191769 36.2949231,67.4354077 C36.0602308,67.3800231 36.1550769,67.5191769 36.135,67.2318692 C36.1031538,66.7424077 35.8594615,66.6406385 36.2395385,66.7652538 C36.2097692,66.7590231 36.2949231,65.7655615 35.8726154,66.0030231 C36.2284615,66.3602538 35.8352308,66.4717154 35.8373077,66.3817154 C35.8373077,66.0812538 35.4953077,65.1854077 35.3201538,64.8101769 C36.396,64.9749462 37.4960769,65.0573308 38.6134615,65.0573308 C38.6882308,65.0573308 38.7519231,65.0531769 38.8273846,65.0517923 C38.8031538,65.0531769 38.7837692,65.0538692 38.7685385,65.0538692 C38.7477692,65.1964846 38.9949231,65.5384846 38.9409231,65.6679462 C38.8045385,66.0203308 38.25,65.5412538 38.1212308,65.6762538 C38.0187692,65.7877154 38.4459231,66.3187154 38.5089231,66.3450231 C38.4673846,66.4253308 38.3566154,66.9487154 38.3393077,66.9487154 C38.1212308,66.9175615 37.9066154,67.2117923 38.1350769,67.3786385 C38.2956923,67.4901 38.4680769,67.4741769 38.6273077,67.5621 C38.9568462,67.7545615 38.3455385,67.9712538 38.4673846,68.1934846 C38.6501538,68.5216385 38.0388462,68.3617154 38.6134615,68.8774846 C37.7792308,68.9079462 38.61,69.3551769 38.61,69.3565615 C38.511,69.2984077 38.5504615,69.3413308 38.6397692,69.2056385 C38.5781538,69.1592538 38.4362308,69.2423308 38.3946923,69.1523308 C38.2375385,68.7764077 38.9838462,69.2319462 38.9665385,69.2208692 C39.1936154,69.3600231 39.5847692,69.3780231 39.762,69.5206385 C39.6886154,69.5434846 39.4331538,69.6327923 39.3327692,69.6127154 C39.3078462,69.6071769 39.2656154,69.6002538 39.3279231,69.6127154 L39.3279231,69.6127154 Z M58.8489231,33.1004077 C58.6945385,33.2264077 59.0884615,33.4673308 59.148,33.4901769 L59.1452308,33.4881 C59.13,33.4465615 58.9707692,33.0173308 58.8489231,33.1004077 L58.8489231,33.1004077 Z M59.0607692,33.7255615 C59.1230769,33.6847154 59.1874615,33.6383308 59.2366154,33.5864077 C59.3840769,33.5864077 59.7281538,34.1361 59.6748462,34.2261 C59.5086923,34.4857154 59.2324615,33.8280231 59.0607692,33.7255615 L59.0607692,33.7255615 Z" id="Fill-23" fill="#E6E5E5" sketch:type="MSShapeGroup"></path>
                <path d="M37.3237615,55.9315385 C36.0699923,55.9315385 35.0550692,56.9478462 35.0550692,58.2002308 C35.0550692,58.7222308 35.2440692,59.1902308 35.5251462,59.5834615 L37.3237615,62.1027692 L39.1223769,59.5820769 C39.4034538,59.1895385 39.5917615,58.7215385 39.5917615,58.2002308 C39.5917615,56.9478462 38.5768385,55.9315385 37.3237615,55.9315385" id="Fill-25" fill="#F87B55" sketch:type="MSShapeGroup"></path>
                <path d="M38.6928,58.2005077 C38.6928,58.9565077 38.0794154,59.5705846 37.3241077,59.5705846 C36.5681077,59.5705846 35.9540308,58.9565077 35.9540308,58.2005077 C35.9540308,57.4438154 36.5681077,56.8311231 37.3241077,56.8311231 C38.0794154,56.8311231 38.6928,57.4438154 38.6928,58.2005077" id="Fill-27" fill="#FFFFFF" sketch:type="MSShapeGroup"></path>
                <path d="M40.9617692,43.7462308 C39.708,43.7462308 38.6930769,44.7625385 38.6930769,46.0149231 C38.6930769,46.5369231 38.8820769,47.0049231 39.1631538,47.3981538 L40.9617692,49.9174615 L42.7603846,47.3967692 C43.0414615,47.0042308 43.2297692,46.5362308 43.2297692,46.0149231 C43.2297692,44.7625385 42.2148462,43.7462308 40.9617692,43.7462308" id="Fill-29" fill="#F87B55" sketch:type="MSShapeGroup"></path>
                <path d="M42.3308077,46.0151308 C42.3308077,46.7711308 41.7174231,47.3852077 40.9621154,47.3852077 C40.2061154,47.3852077 39.5920385,46.7711308 39.5920385,46.0151308 C39.5920385,45.2584385 40.2061154,44.6464385 40.9621154,44.6464385 C41.7174231,44.6464385 42.3308077,45.2584385 42.3308077,46.0151308" id="Fill-31" fill="#FFFFFF" sketch:type="MSShapeGroup"></path>
                <path d="M26.0082,31.8809769 C24.7544308,31.8809769 23.7395077,32.8972846 23.7395077,34.1496692 C23.7395077,34.6716692 23.9285077,35.1396692 24.2095846,35.5329 L26.0082,38.0522077 L27.8068154,35.5315154 C28.0878923,35.1389769 28.2762,34.6709769 28.2762,34.1496692 C28.2762,32.8972846 27.2612769,31.8809769 26.0082,31.8809769" id="Fill-33" fill="#F87B55" sketch:type="MSShapeGroup"></path>
                <path d="M27.3772385,34.1498769 C27.3772385,34.9058769 26.7638538,35.5199538 26.0085462,35.5199538 C25.2525462,35.5199538 24.6384692,34.9058769 24.6384692,34.1498769 C24.6384692,33.3931846 25.2525462,32.7811846 26.0085462,32.7811846 C26.7638538,32.7811846 27.3772385,33.3931846 27.3772385,34.1498769" id="Fill-35" fill="#FFFFFF" sketch:type="MSShapeGroup"></path>
                <path d="M62.1062308,37.9345846 C60.8524615,37.9345846 59.8375385,38.9508923 59.8375385,40.2032769 C59.8375385,40.7252769 60.0265385,41.1932769 60.3076154,41.5865077 L62.1062308,44.1058154 L63.9048462,41.5851231 C64.1859231,41.1925846 64.3742308,40.7245846 64.3742308,40.2032769 C64.3742308,38.9508923 63.3593077,37.9345846 62.1062308,37.9345846" id="Fill-37" fill="#F87B55" sketch:type="MSShapeGroup"></path>
                <path d="M63.4752692,40.2035538 C63.4752692,40.9595538 62.8618846,41.5736308 62.1065769,41.5736308 C61.3505769,41.5736308 60.7365,40.9595538 60.7365,40.2035538 C60.7365,39.4468615 61.3505769,38.8341692 62.1065769,38.8341692 C62.8618846,38.8341692 63.4752692,39.4468615 63.4752692,40.2035538" id="Fill-39" fill="#FFFFFF" sketch:type="MSShapeGroup"></path>
                <path d="M57.1295769,25.7096769 C55.8765,25.7096769 54.8608846,26.7259846 54.8608846,27.9783692 C54.8608846,28.5003692 55.0498846,28.9683692 55.3309615,29.3616 L57.1295769,31.8809077 L58.9281923,29.3602154 C59.2092692,28.9676769 59.3975769,28.4996769 59.3975769,27.9783692 C59.3975769,26.7259846 58.3826538,25.7096769 57.1295769,25.7096769" id="Fill-41" fill="#F87B55" sketch:type="MSShapeGroup"></path>
                <path d="M58.4986154,27.9786462 C58.4986154,28.7346462 57.8852308,29.3487231 57.1292308,29.3487231 C56.3739231,29.3487231 55.7598462,28.7346462 55.7598462,27.9786462 C55.7598462,27.2219538 56.3739231,26.6092615 57.1292308,26.6092615 C57.8852308,26.6092615 58.4986154,27.2219538 58.4986154,27.9786462" id="Fill-43" fill="#FFFFFF" sketch:type="MSShapeGroup"></path>
                <path d="M65.7442385,52.2929077 C64.4904692,52.2929077 63.4755462,53.3092154 63.4755462,54.5616 C63.4755462,55.0836 63.6645462,55.5516 63.9456231,55.9448308 L65.7442385,58.4641385 L67.5428538,55.9434462 C67.8239308,55.5509077 68.0122385,55.0829077 68.0122385,54.5616 C68.0122385,53.3092154 66.9966231,52.2929077 65.7442385,52.2929077" id="Fill-45" fill="#F87B55" sketch:type="MSShapeGroup"></path>
                <path d="M67.1132769,54.5618077 C67.1132769,55.3178077 66.4998923,55.9318846 65.7445846,55.9318846 C64.9885846,55.9318846 64.3745077,55.3178077 64.3745077,54.5618077 C64.3745077,53.8051154 64.9885846,53.1931154 65.7445846,53.1931154 C66.4998923,53.1931154 67.1132769,53.8051154 67.1132769,54.5618077" id="Fill-47" fill="#FFFFFF" sketch:type="MSShapeGroup"></path>
                <path d="M44.9966077,98.3076923 C44.3984538,98.3076923 43.8009923,98.1373846 43.2215308,97.8009231 L43.7082231,96.9625385 C44.1381462,97.2117692 44.5715308,97.3384615 44.9966077,97.3384615 L44.9966077,98.3076923 Z" id="Fill-49" fill="#474F59" sketch:type="MSShapeGroup"></path>
                <path d="M40.1673462,6.68104615 L39.2805,6.28989231 C39.7789615,5.16143077 40.3009615,4.18112308 40.8340385,3.37596923 L41.6426538,3.91112308 C41.1393462,4.67058462 40.6436538,5.60243077 40.1673462,6.68104615 L40.1673462,6.68104615 Z M38.1042692,12.7082769 L37.1682692,12.4542 C37.4687308,11.3499692 37.7851154,10.3018154 38.1091154,9.33950769 L39.0278077,9.64896923 C38.7100385,10.5925846 38.3985,11.6227385 38.1042692,12.7082769 L38.1042692,12.7082769 Z M36.6857308,18.9612 L35.7338077,18.7805077 C35.9394231,17.6949692 36.1595769,16.6267385 36.3887308,15.6062769 L37.3337308,15.8181231 C37.1073462,16.8288923 36.8892692,17.8860462 36.6857308,18.9612 L36.6857308,18.9612 Z M35.6701154,25.3041231 L34.7098846,25.1753538 C34.8566538,24.0801231 35.0138077,23.0118923 35.1792692,21.9720462 L36.1367308,22.1243538 C35.9726538,23.1565846 35.8168846,24.2172 35.6701154,25.3041231 L35.6701154,25.3041231 Z M34.9542692,31.6934308 L33.9885,31.6048154 C34.0895769,30.5123538 34.1982692,29.4385846 34.3159615,28.3869692 L35.2789615,28.4942769 C35.1626538,29.5403538 35.0532692,30.6072 34.9542692,31.6934308 L34.9542692,31.6934308 Z M34.4835,38.1090462 L33.5156538,38.0557385 C33.5765769,36.9653538 33.6451154,35.8888154 33.7226538,34.8282 L34.6898077,34.8988154 C34.6122692,35.9545846 34.5430385,37.0248923 34.4835,38.1090462 L34.4835,38.1090462 Z M34.2321923,44.5385077 L33.2622692,44.5163538 C33.2878846,43.4280462 33.3211154,42.3501231 33.3633462,41.2853538 L34.3311923,41.3234308 C34.2896538,42.3833538 34.2571154,43.4557385 34.2321923,44.5385077 L34.2321923,44.5385077 Z M33.2124231,50.9797385 C33.2082692,50.4418154 33.2061923,49.9018154 33.2068846,49.3597385 C33.2068846,48.8211231 33.2089615,48.2838923 33.2131154,47.7487385 L34.1830385,47.7563538 C34.1788846,48.2887385 34.1768077,48.8238923 34.1768077,49.3604308 C34.1761154,49.9004308 34.1781923,50.4376615 34.1823462,50.9728154 L33.2124231,50.9797385 Z M33.3640385,57.4438154 C33.3225,56.3776615 33.2885769,55.2997385 33.2629615,54.2128154 L34.2328846,54.1899692 C34.2578077,55.2727385 34.2910385,56.3451231 34.3318846,57.4057385 L33.3640385,57.4438154 Z M33.7233462,63.9002769 C33.6465,62.8403538 33.5779615,61.7645077 33.5163462,60.6741231 L34.4841923,60.6201231 C34.5444231,61.7049692 34.6136538,62.7752769 34.6905,63.8303538 L33.7233462,63.9002769 Z M34.3159615,70.3415077 C34.1975769,69.2892 34.0888846,68.2154308 33.9885,67.1229692 L34.9542692,67.0350462 C35.0525769,68.1205846 35.1619615,69.1874308 35.2789615,70.2335077 L34.3159615,70.3415077 Z M35.1799615,76.7564308 C35.0145,75.7165846 34.8573462,74.6483538 34.7105769,73.5538154 L35.6708077,73.4236615 C35.8175769,74.5112769 35.9726538,75.5718923 36.1374231,76.6034308 L35.1799615,76.7564308 Z M36.3908077,83.1222 C36.1623462,82.1093538 35.9421923,81.0411231 35.7351923,79.9465846 L36.6871154,79.7665846 C36.8927308,80.8500462 37.1108077,81.9072 37.3358077,82.9082769 L36.3908077,83.1222 Z M38.1105,89.3875846 C37.7871923,88.4287385 37.4708077,87.3798923 37.1689615,86.2728923 L38.1049615,86.0188154 C38.4005769,87.1078154 38.7121154,88.1365846 39.0291923,89.0781231 L38.1105,89.3875846 Z M40.8375,95.3511231 C40.3023462,94.5438923 39.7803462,93.5628923 39.2832692,92.4365077 L40.1701154,92.0460462 C40.6450385,93.1218923 41.1407308,94.0544308 41.6461154,94.8159692 L40.8375,95.3511231 Z" id="Fill-51" fill="#474F59" sketch:type="MSShapeGroup"></path>
                <path d="M43.7080154,1.76053846 L43.2213231,0.922153846 C43.8007846,0.585692308 44.3975538,0.415384615 44.9964,0.415384615 L44.9964,1.38461538 C44.5706308,1.38461538 44.1372462,1.51130769 43.7080154,1.76053846" id="Fill-53" fill="#474F59" sketch:type="MSShapeGroup"></path>
                <path d="M87.3869538,73.8362077 L86.5471846,73.3522846 C89.1606462,68.8239 75.2639538,54.3366692 50.4128769,39.9879 C25.5576462,25.6391308 6.06295385,20.8469769 3.45018462,25.3753615 L2.61041538,24.8900538 C5.91618462,19.1639769 27.1257231,25.4259 50.8968,39.1481308 C74.6644154,52.8717462 90.6927231,68.1087462 87.3869538,73.8362077" id="Fill-55" fill="#474F59" sketch:type="MSShapeGroup"></path>
                <path d="M8.17248462,76.0003615 C5.58948462,76.0003615 3.52225385,75.4112077 2.61325385,73.8355154 L3.45302308,73.3515923 C4.81825385,75.7165154 10.5498692,75.5725154 19.1774077,72.9562846 C28.1372538,70.2403615 39.2301,65.1892846 50.4129462,58.7342077 C75.2640231,44.3861308 89.1614077,29.9009769 86.5500231,25.3739769 L87.3897923,24.8893615 C90.6934846,30.6168231 74.6637923,45.8517462 50.8968692,59.5732846 C39.6524077,66.0643615 28.4875615,71.1465923 19.4584846,73.8832846 C15.7664077,75.0034385 11.5329462,76.0003615 8.17248462,76.0003615" id="Fill-57" fill="#474F59" sketch:type="MSShapeGroup"></path>
            </g>
        </g>
    </g>
</svg>