<?xml version="1.0" encoding="utf-8"?>
<!-- Generator: Adobe Illustrator 17.0.0, SVG Export Plug-In . SVG Version: 6.00 Build 0)  -->
<!DOCTYPE svg PUBLIC "-//W3C//DTD SVG 1.1//EN" "http://www.w3.org/Graphics/SVG/1.1/DTD/svg11.dtd">
<svg version="1.1" id="Слой_1" xmlns:sketch="http://www.bohemiancoding.com/sketch/ns"
	 xmlns="http://www.w3.org/2000/svg" xmlns:xlink="http://www.w3.org/1999/xlink" x="0px" y="0px" width="12.668px"
	 height="19.739px" viewBox="0.394 0.726 12.668 19.739" enable-background="new 0.394 0.726 12.668 19.739" xml:space="preserve">
<path id="Imported-Layers-Copy-2" sketch:type="MSShapeGroup" fill="#565654" d="M1.188,0.726c-0.439,0-0.794,0.351-0.794,0.783
	v18.172c0,0.433,0.355,0.783,0.794,0.783h11.08c0.439,0,0.794-0.351,0.794-0.783V1.509c0-0.433-0.355-0.783-0.794-0.783H1.188z
	 M5.06,1.921h3.336c0.23,0,0.417,0.184,0.417,0.411c0,0.227-0.187,0.411-0.417,0.411H5.06c-0.23,0-0.417-0.184-0.417-0.411
	C4.643,2.105,4.829,1.921,5.06,1.921L5.06,1.921z M6.728,19.486c-0.768,0-1.39-0.614-1.39-1.37c0-0.757,0.623-1.371,1.39-1.371
	s1.39,0.614,1.39,1.371C8.118,18.873,7.495,19.486,6.728,19.486L6.728,19.486z M2.081,3.977h9.293v11.828H2.081V3.977z"/>
</svg>
