<?xml version="1.0" encoding="utf-8"?>
<!-- Generator: Adobe Illustrator 17.0.0, SVG Export Plug-In . SVG Version: 6.00 Build 0)  -->
<!DOCTYPE svg PUBLIC "-//W3C//DTD SVG 1.1//EN" "http://www.w3.org/Graphics/SVG/1.1/DTD/svg11.dtd" [
	<!ENTITY st0 "fill:#010202;">
]>
<svg version="1.1" id="Слой_1" xmlns="http://www.w3.org/2000/svg" xmlns:xlink="http://www.w3.org/1999/xlink" x="0px" y="0px"
	 width="31.992px" height="26px" viewBox="0 0 31.992 26" style="enable-background:new 0 0 31.992 26;" xml:space="preserve">
<path style="&st0;" d="M31.992,3.077c-1.177,0.523-2.441,0.876-3.77,1.033c1.355-0.812,2.396-2.098,2.887-3.63
	c-1.269,0.751-2.673,1.299-4.168,1.592C25.743,0.797,24.037,0,22.148,0c-3.625,0-6.562,2.938-6.562,6.563
	c0,0.514,0.057,1.016,0.169,1.496C10.3,7.785,5.464,5.172,2.226,1.201c-0.564,0.97-0.888,2.097-0.888,3.3
	c0,2.278,1.159,4.286,2.919,5.464C3.182,9.93,2.17,9.636,1.285,9.144C1.284,9.171,1.284,9.2,1.284,9.226
	c0,3.181,2.262,5.834,5.265,6.437c-0.55,0.149-1.13,0.23-1.729,0.23c-0.424,0-0.834-0.041-1.234-0.117
	c0.834,2.606,3.259,4.504,6.13,4.558c-2.245,1.76-5.075,2.811-8.15,2.811c-0.53,0-1.053-0.031-1.566-0.092
	C2.904,24.913,6.354,26,10.061,26c12.072,0,18.675-10.001,18.675-18.675c0-0.284-0.008-0.568-0.02-0.85
	C29.999,5.55,31.111,4.395,31.992,3.077z"/>
</svg>
