<?xml version="1.0" encoding="utf-8"?>
<!-- Generator: Adobe Illustrator 17.0.0, SVG Export Plug-In . SVG Version: 6.00 Build 0)  -->
<!DOCTYPE svg PUBLIC "-//W3C//DTD SVG 1.1//EN" "http://www.w3.org/Graphics/SVG/1.1/DTD/svg11.dtd" [
	<!ENTITY st0 "fill:#010202;">
]>
<svg version="1.1" id="Слой_1" xmlns="http://www.w3.org/2000/svg" xmlns:xlink="http://www.w3.org/1999/xlink" x="0px" y="0px"
	 width="32px" height="32px" viewBox="0 0 32 32" style="enable-background:new 0 0 32 32;" xml:space="preserve">
<path style="&st0;" d="M30,0H2C0.896,0,0,0.896,0,2v28c0,1.104,0.896,2,2,2h15V20h-4v-5h4v-3c0-4.119,2.325-7,6-7c1.76,0,3,0,4,0v5
	h-2c-1.998,0-3,1-3,3v2h5l-1,5h-4v12h8c1.104,0,2-0.896,2-2V2C32,0.896,31.104,0,30,0z"/>
</svg>
