<?xml version="1.0" encoding="utf-8"?>
<!-- Generator: Adobe Illustrator 17.0.0, SVG Export Plug-In . SVG Version: 6.00 Build 0)  -->
<!DOCTYPE svg PUBLIC "-//W3C//DTD SVG 1.1//EN" "http://www.w3.org/Graphics/SVG/1.1/DTD/svg11.dtd">
<svg version="1.1" id="Layer_1" xmlns="http://www.w3.org/2000/svg" xmlns:xlink="http://www.w3.org/1999/xlink" x="0px" y="0px"
	 width="3.8px" height="3.592px" viewBox="3.1 2.583 3.8 3.592" style="enable-background:new 3.1 2.583 3.8 3.592;"
	 xml:space="preserve">
<path d="M6.735,3.704L5.165,2.63c-0.091-0.062-0.239-0.062-0.33,0l-1.57,1.074C3.174,3.766,3.1,3.907,3.1,4.017v1.95
	c0,0.11,0.09,0.208,0.2,0.208h3.4c0.11,0,0.2-0.098,0.2-0.208v-1.95C6.9,3.907,6.826,3.766,6.735,3.704z M6.625,4.228L5.243,5.245
	C5.177,5.295,5.09,5.322,5,5.322S4.823,5.296,4.757,5.248L3.376,4.234c-0.137-0.1-0.12-0.197-0.106-0.237
	c0.013-0.041,0.063-0.121,0.232-0.121h2.997c0.17,0,0.219,0.08,0.232,0.121C6.745,4.037,6.761,4.128,6.625,4.228z"/>
</svg>
