<?xml version="1.0" encoding="utf-8"?>
<!-- Generator: Adobe Illustrator 17.0.0, SVG Export Plug-In . SVG Version: 6.00 Build 0)  -->
<!DOCTYPE svg PUBLIC "-//W3C//DTD SVG 1.1//EN" "http://www.w3.org/Graphics/SVG/1.1/DTD/svg11.dtd" [
	<!ENTITY st0 "fill:#010202;">
]>
<svg version="1.1" id="Слой_1" xmlns="http://www.w3.org/2000/svg" xmlns:xlink="http://www.w3.org/1999/xlink" x="0px" y="0px"
	 width="136.433px" height="17.405px" viewBox="0 0 136.433 17.405" style="enable-background:new 0 0 136.433 17.405;"
	 xml:space="preserve">
<g>
	<path style="&st0;" d="M4.393,4.814c-2.03,0-3.595,0.542-4.2,0.8C0.067,5.668,0,5.826,0,5.846v7.496
		c0,0.128,0.092,0.202,0.256,0.202h1.601c0.128,0,0.202-0.074,0.202-0.202l0.018-6.325c0,0,0.992-0.328,1.783-0.328
		c1.268,0,1.893,0.753,1.893,2.242v4.393c0,0.146,0.074,0.22,0.202,0.22h1.635c0.166,0,0.238-0.074,0.238-0.22V8.618
		C7.829,6.118,6.617,4.814,4.393,4.814z"/>
	<path style="&st0;" d="M28.534,4.814c-2.028,0-3.595,0.542-4.2,0.8c-0.126,0.054-0.193,0.211-0.193,0.232v7.496
		c0,0.128,0.092,0.202,0.259,0.202h1.599c0.128,0,0.202-0.074,0.202-0.202l0.018-6.325c0,0,0.992-0.328,1.783-0.328
		c1.268,0,1.893,0.753,1.893,2.242v4.393c0,0.146,0.074,0.22,0.202,0.22h1.635c0.166,0,0.238-0.074,0.238-0.22V8.618
		C31.97,6.118,30.758,4.814,28.534,4.814z"/>
	<path style="&st0;" d="M13.266,4.998h-2.078V2.255c0-0.2-0.036-0.256-0.238-0.256H9.315c-0.13,0-0.205,0.092-0.205,0.256h0.002
		v7.926c0,2.518,1.25,3.494,4.025,3.548c0.164,0,0.238-0.074,0.238-0.202v-1.194c0-0.223-0.018-0.277-0.22-0.277
		c-1.268-0.056-1.967-0.625-1.967-2.149V6.873h2.113c0.202,0,0.202-0.038,0.202-0.202V5.183C13.504,5.016,13.448,4.998,13.266,4.998
		z"/>
	<path style="&st0;" d="M18.489,4.814c-1.048,0-1.985,0.148-2.831,0.423c-0.13,0.056-0.202,0.166-0.202,0.331v1.47
		c0,0.148,0.11,0.202,0.256,0.11c0.681-0.349,1.47-0.515,2.372-0.515c1.545,0,2.316,0.479,2.316,1.417v0.569
		c-0.753-0.292-1.524-0.441-2.334-0.441c-2.206,0-3.492,1.048-3.492,2.885c0,1.691,1.12,2.667,3.179,2.667
		c1.084,0,2.075-0.259,2.977-0.755l0.092,0.297c0.092,0.238,0.128,0.274,0.331,0.274h1.066c0.128,0,0.184-0.074,0.184-0.202V8.159
		C22.403,5.88,20.858,4.814,18.489,4.814z M20.4,11.503c-0.699,0.369-1.47,0.553-2.334,0.553c-0.902,0-1.545-0.461-1.545-1.068
		c0-0.661,0.679-1.12,1.563-1.12c0.881,0,1.655,0.128,2.316,0.405V11.503z"/>
	<path style="&st0;" d="M41.838,4.998h-1.417c-0.313,0-0.367,0.072-0.367,0.459v0.277c-0.755-0.607-1.601-0.92-2.538-0.92
		c-1.176,0-2.185,0.405-3.049,1.194C33.622,6.799,33.2,7.883,33.2,9.243c0,1.378,0.423,2.482,1.268,3.289
		c0.845,0.791,1.855,1.196,3.049,1.196c0.976,0,1.819-0.295,2.536-0.884v0.128c0,1.691-0.899,2.536-2.682,2.536
		c-0.771,0-1.527-0.146-2.262-0.441c-0.182-0.092-0.274-0.036-0.274,0.148v1.414c0,0.184,0.074,0.295,0.22,0.349
		c0.753,0.277,1.655,0.425,2.685,0.425c1.027,0,2.003-0.277,2.903-0.92c0.938-0.643,1.527-1.893,1.527-3.53v-7.57
		C42.169,5.016,42.133,4.998,41.838,4.998z M40.055,10.842c-0.571,0.753-1.324,1.122-2.262,1.122c-0.735,0-1.36-0.256-1.857-0.771
		c-0.495-0.515-0.733-1.158-0.733-1.949s0.256-1.414,0.771-1.911s1.122-0.753,1.819-0.753c0.938,0,1.691,0.367,2.262,1.12V10.842z"
		/>
	<path style="&st0;" d="M45.444,1.857h-1.673c-0.128,0-0.184,0.074-0.184,0.22v11.208c0,0.202,0.056,0.259,0.22,0.259h1.637
		c0.148,0,0.22-0.074,0.22-0.22V2.078C45.665,1.875,45.647,1.857,45.444,1.857z"/>
	<path style="&st0;" d="M65.005,1.857h-1.599c-0.128,0-0.202,0.074-0.202,0.22v3.6c-0.753-0.569-1.581-0.863-2.482-0.861
		c-1.176,0-2.185,0.402-3.031,1.194c-0.848,0.791-1.27,1.857-1.27,3.235c0,1.378,0.423,2.48,1.25,3.289
		c0.845,0.789,1.857,1.194,3.051,1.194c1.03,0,1.949-0.369,2.777-1.084l0.292,0.753c0.056,0.092,0.13,0.146,0.202,0.146h1.086
		c0.128,0,0.184-0.074,0.184-0.202V2.06C65.264,1.931,65.172,1.857,65.005,1.857z M63.205,10.934
		c-0.569,0.681-1.306,1.03-2.206,1.03c-0.735,0-1.342-0.256-1.837-0.771c-0.497-0.515-0.735-1.158-0.735-1.949
		c0-0.789,0.256-1.414,0.753-1.911c0.515-0.497,1.122-0.753,1.819-0.753c0.899,0,1.637,0.351,2.206,1.03V10.934z"/>
	<path style="&st0;" d="M68.191,12.251c-0.423,0-0.699,0.313-0.699,0.679c-0.092,0.92,1.488,0.92,1.378,0
		C68.87,12.564,68.576,12.251,68.191,12.251z"/>
	<path style="&st0;" d="M72.931,8.339c-0.863-0.295-1.545-0.717-1.545-1.452c0-0.807,0.735-1.194,1.783-1.192
		c0.789,0,1.432,0.184,1.947,0.533c0.166,0.11,0.238,0.092,0.238-0.074V5.659c0-0.128-0.072-0.22-0.202-0.295
		c-0.533-0.331-1.248-0.497-2.129-0.497c-1.599,0-2.626,0.735-2.626,2.003c0,1.763,1.578,2.113,2.828,2.572
		c0.861,0.313,1.542,0.899,1.542,1.909c0,1.066-0.699,1.599-2.093,1.599c-0.974,0-1.801-0.22-2.444-0.681
		c-0.128-0.092-0.184-0.072-0.184,0.056v0.587c0,0.092,0.038,0.166,0.11,0.22c0.625,0.423,1.506,0.643,2.626,0.643
		c1.983,0,2.977-0.789,2.977-2.388C75.778,9.331,74.161,8.724,72.931,8.339z"/>
	<path style="&st0;" d="M81.803,4.868c-1.232,0-2.298,0.441-3.179,1.304c-0.863,0.863-1.304,1.927-1.304,3.159
		c0,1.23,0.441,2.278,1.304,3.141c0.881,0.863,1.947,1.304,3.179,1.304c1.23,0,2.296-0.441,3.159-1.304
		c0.881-0.863,1.322-1.911,1.322-3.141c0-1.232-0.441-2.296-1.322-3.159C84.099,5.308,83.033,4.868,81.803,4.868z M84.281,11.829
		c-0.679,0.679-1.506,1.01-2.478,1.01c-0.974,0-1.801-0.331-2.48-1.01c-0.681-0.679-1.03-1.524-1.03-2.498
		c0-0.974,0.349-1.819,1.03-2.498c0.679-0.679,1.506-1.03,2.48-1.03c0.971,0,1.799,0.351,2.478,1.03s1.03,1.524,1.03,2.498
		C85.311,10.304,84.962,11.15,84.281,11.829z"/>
	<path style="&st0;" d="M89.205,0h-0.753c-0.074,0-0.11,0.054-0.11,0.164v13.225c0,0.128,0.054,0.202,0.146,0.202h0.699
		c0.092,0,0.146-0.056,0.146-0.166V0.164C89.333,0.054,89.295,0,89.205,0z"/>
	<path style="&st0;" d="M98.776,5.05h-0.699c-0.148,0-0.166,0.038-0.166,0.202v4.555c0,2.075-0.881,3.105-2.626,3.105
		s-2.626-1.028-2.626-3.105V5.252c0-0.164-0.018-0.202-0.166-0.202h-0.643c-0.128,0-0.182,0.074-0.182,0.202v4.573
		c0,2.628,1.212,3.95,3.618,3.95c2.408,0,3.62-1.322,3.62-3.95V5.198C98.904,5.106,98.866,5.05,98.776,5.05z"/>
	<path style="&st0;" d="M105.353,5.05h-2.224V1.781c0-0.128-0.056-0.202-0.166-0.202h-0.679c-0.092,0-0.148,0.074-0.148,0.202V5.05
		h-2.001c-0.128,0-0.184,0.056-0.184,0.166v0.569c0,0.128,0.036,0.166,0.184,0.166h2.001v4.519c0,2.275,1.068,3.287,3.197,3.305
		c0.11,0,0.166-0.036,0.166-0.128v-0.515c0-0.164-0.02-0.182-0.166-0.182c-1.468-0.038-2.203-0.902-2.203-2.59V5.951h2.26
		c0.092,0,0.146-0.056,0.146-0.148V5.198C105.535,5.106,105.481,5.05,105.353,5.05z"/>
	<path style="&st0;" d="M108.125,1.028c-0.441,0-0.735,0.331-0.735,0.753c0,0.441,0.277,0.735,0.735,0.735
		c0.441,0,0.735-0.294,0.735-0.735C108.86,1.358,108.566,1.028,108.125,1.028z"/>
	<path style="&st0;" d="M108.456,5.05h-0.587c-0.202,0-0.241,0.02-0.241,0.22v8.175c0,0.09,0.056,0.146,0.166,0.146h0.679
		c0.092,0,0.148-0.056,0.148-0.166V5.252C108.622,5.124,108.566,5.05,108.456,5.05z"/>
	<path style="&st0;" d="M115.217,4.868c-1.232,0-2.298,0.441-3.179,1.304c-0.863,0.863-1.304,1.927-1.304,3.159
		c0,1.23,0.441,2.278,1.304,3.141c0.881,0.863,1.947,1.304,3.179,1.304c1.23,0,2.296-0.441,3.159-1.304
		c0.881-0.863,1.322-1.911,1.322-3.141c0-1.232-0.441-2.296-1.322-3.159C117.512,5.308,116.446,4.868,115.217,4.868z
		 M117.694,11.829c-0.679,0.679-1.504,1.01-2.478,1.01c-0.974,0-1.801-0.331-2.48-1.01c-0.681-0.679-1.03-1.524-1.03-2.498
		c0-0.974,0.349-1.819,1.03-2.498c0.679-0.679,1.506-1.03,2.48-1.03c0.974,0,1.799,0.351,2.478,1.03
		c0.681,0.679,1.03,1.524,1.03,2.498C118.724,10.304,118.376,11.15,117.694,11.829z"/>
	<path style="&st0;" d="M125.595,4.868c-1.232,0-2.224,0.384-3.013,1.138V5.18c0-0.092-0.056-0.13-0.148-0.13h-0.715
		c-0.094,0-0.13,0.056-0.13,0.148v8.247c0,0.092,0.038,0.146,0.13,0.146h0.733c0.092,0,0.13-0.036,0.13-0.128V7.035
		c0.825-0.845,1.781-1.268,2.846-1.268c1.671,0,2.498,0.92,2.498,2.736v4.942c0,0.092,0.036,0.146,0.128,0.146h0.717
		c0.092,0,0.146-0.054,0.146-0.146V8.393C128.918,6.044,127.817,4.868,125.595,4.868z"/>
	<path style="&st0;" d="M133.604,8.339c-0.863-0.295-1.545-0.717-1.545-1.452c0-0.807,0.735-1.194,1.783-1.192
		c0.789,0,1.432,0.184,1.947,0.533c0.166,0.11,0.238,0.092,0.238-0.074V5.659c0-0.128-0.072-0.22-0.202-0.295
		c-0.531-0.331-1.248-0.497-2.129-0.497c-1.599,0-2.626,0.735-2.626,2.003c0,1.763,1.578,2.113,2.828,2.572
		c0.863,0.313,1.542,0.899,1.542,1.909c0,1.066-0.699,1.599-2.093,1.599c-0.974,0-1.801-0.22-2.444-0.681
		c-0.128-0.092-0.184-0.072-0.184,0.056v0.587c0,0.092,0.038,0.166,0.11,0.22c0.625,0.423,1.506,0.643,2.626,0.643
		c1.985,0,2.977-0.789,2.977-2.388C136.45,9.331,134.834,8.724,133.604,8.339z"/>
</g>
</svg>
