<?xml version="1.0" encoding="utf-8"?>
<!-- Generator: Adobe Illustrator 17.0.0, SVG Export Plug-In . SVG Version: 6.00 Build 0)  -->
<!DOCTYPE svg PUBLIC "-//W3C//DTD SVG 1.1//EN" "http://www.w3.org/Graphics/SVG/1.1/DTD/svg11.dtd" [
	<!ENTITY st0 "fill:#010202;">
]>
<svg version="1.1" id="Слой_1" xmlns="http://www.w3.org/2000/svg" xmlns:xlink="http://www.w3.org/1999/xlink" x="0px" y="0px"
	 width="30.896px" height="32.642px" viewBox="0 0 30.896 32.642" style="enable-background:new 0 0 30.896 32.642;"
	 xml:space="preserve">
<path style="&st0;" d="M30.896,17.566c0,0.538-0.269,0.807-0.742,0.807H7.541c0.605,5.183,3.903,7.809,9.893,7.809
	c3.231,0,5.922-0.54,8.076-1.683c0.605-0.202,0.941-0.067,0.941,0.403v4.643c0,0.607-0.202,1.011-0.605,1.212
	c-2.624,1.28-5.855,1.885-9.557,1.885c-5.519,0-9.624-1.548-12.318-4.578C1.347,25.034,0,21.198,0,16.622
	c0-4.979,1.481-9.019,4.441-12.046C7.471,1.546,11.173,0,15.547,0s8.076,1.481,10.971,4.441c2.893,2.895,4.374,6.731,4.374,11.509
	v1.616H30.896z M7.877,12.651h15.748c-1.008-4.105-3.767-6.662-8.073-6.662C11.713,5.99,8.955,8.546,7.877,12.651z"/>
</svg>
