<?xml version="1.0" encoding="utf-8"?>
<!-- Generator: Adobe Illustrator 17.1.0, SVG Export Plug-In . SVG Version: 6.00 Build 0)  -->
<!DOCTYPE svg PUBLIC "-//W3C//DTD SVG 1.1//EN" "http://www.w3.org/Graphics/SVG/1.1/DTD/svg11.dtd">
<svg version="1.1" id="Layer_1" xmlns="http://www.w3.org/2000/svg" xmlns:xlink="http://www.w3.org/1999/xlink" x="0px" y="0px"
	 viewBox="0 0 216.75 26.5" enable-background="new 0 0 216.75 26.5" xml:space="preserve">
<path fill="#FFFFFF" d="M21.648,7.314c3.271,0,5.056,1.919,5.056,5.596v6.921c0,0.216-0.108,0.324-0.351,0.324h-2.406
	c-0.189,0-0.297-0.108-0.297-0.324V13.37c0-2.19-0.919-3.298-2.785-3.298c-1.163,0-2.623,0.484-2.623,0.484l-0.027,9.302
	c0,0.189-0.108,0.298-0.298,0.298h-2.352c-0.243,0-0.378-0.108-0.378-0.298V8.832c0-0.032,0.1-0.263,0.284-0.341
	C16.359,8.109,18.664,7.314,21.648,7.314z"/>
<path fill="#FFFFFF" d="M57.16,7.314c3.271,0,5.056,1.919,5.056,5.596v6.921c0,0.216-0.108,0.324-0.351,0.324h-2.406
	c-0.189,0-0.297-0.108-0.297-0.324V13.37c0-2.19-0.919-3.298-2.785-3.298c-1.163,0-2.623,0.484-2.623,0.484l-0.027,9.302
	c0,0.189-0.108,0.298-0.298,0.298h-2.352c-0.243,0-0.378-0.108-0.378-0.298V8.832c0-0.032,0.1-0.263,0.284-0.341
	C51.872,8.109,54.176,7.314,57.16,7.314z"/>
<path fill="#FFFFFF" d="M28.59,3.551c0-0.244,0.108-0.378,0.298-0.378h2.406c0.297,0,0.351,0.081,0.351,0.378v4.033H34.7
	c0.27,0,0.351,0.027,0.351,0.271v2.19c0,0.243,0,0.297-0.297,0.297h-3.109v4.461c0,2.244,1.027,3.082,2.893,3.163
	c0.297,0,0.325,0.081,0.325,0.406v1.757c0,0.189-0.108,0.298-0.351,0.298c-4.082-0.081-5.921-1.514-5.921-5.218V3.551z"/>
<path fill="#FFFFFF" d="M45.681,19.317c-1.325,0.73-2.785,1.109-4.38,1.109c-3.028,0-4.677-1.433-4.677-3.92
	c0-2.704,1.893-4.245,5.137-4.245c1.19,0,2.325,0.217,3.434,0.649v-0.838c0-1.379-1.136-2.082-3.407-2.082
	c-1.325,0-2.487,0.244-3.488,0.757c-0.216,0.135-0.379,0.054-0.379-0.162V8.422c0-0.243,0.108-0.405,0.298-0.487
	c1.244-0.405,2.622-0.621,4.163-0.621c3.488,0,5.759,1.568,5.759,4.92v7.624c0,0.189-0.081,0.298-0.271,0.298h-1.568
	c-0.297,0-0.351-0.054-0.486-0.405L45.681,19.317z M41.761,17.965c1.271,0,2.406-0.27,3.434-0.811v-1.812
	c-0.973-0.405-2.109-0.595-3.407-0.595c-1.298,0-2.298,0.676-2.298,1.649C39.49,17.289,40.436,17.965,41.761,17.965z"/>
<path fill="#FFFFFF" d="M74.106,19.128c-1.054,0.865-2.298,1.298-3.731,1.298c-1.757,0-3.244-0.595-4.487-1.758
	c-1.244-1.189-1.866-2.812-1.866-4.839c0-2,0.622-3.595,1.866-4.758c1.271-1.163,2.757-1.757,4.487-1.757
	c1.379,0,2.623,0.459,3.731,1.352V8.26c0-0.568,0.081-0.676,0.541-0.676h2.082c0.433,0,0.487,0.027,0.487,0.568V19.29
	c0,2.406-0.865,4.245-2.244,5.191c-1.325,0.946-2.758,1.352-4.272,1.352c-1.514,0-2.839-0.216-3.947-0.622
	c-0.217-0.081-0.325-0.243-0.325-0.514v-2.082c0-0.27,0.135-0.351,0.405-0.216c1.081,0.432,2.19,0.649,3.325,0.649
	c2.622,0,3.947-1.244,3.947-3.731V19.128z M74.106,16.181v-4.623c-0.838-1.108-1.946-1.649-3.325-1.649
	c-1.027,0-1.92,0.378-2.677,1.108c-0.757,0.73-1.135,1.649-1.135,2.812c0,1.163,0.351,2.109,1.081,2.866
	c0.73,0.757,1.649,1.136,2.731,1.136C72.16,17.831,73.268,17.289,74.106,16.181z"/>
<path fill="#FFFFFF" d="M82.36,19.831c0,0.216-0.108,0.324-0.325,0.324h-2.406c-0.243,0-0.325-0.081-0.325-0.378V3.289
	c0-0.216,0.081-0.324,0.271-0.324h2.46c0.298,0,0.325,0.027,0.325,0.324V19.831z"/>
<path fill="#FFFFFF" d="M108.16,8.584V3.289c0-0.216,0.108-0.324,0.298-0.324h2.352c0.243,0,0.378,0.108,0.378,0.298v16.596
	c0,0.189-0.081,0.298-0.271,0.298h-1.595c-0.108,0-0.216-0.081-0.298-0.216l-0.432-1.109c-1.217,1.054-2.568,1.596-4.083,1.596
	c-1.757,0-3.244-0.595-4.488-1.758c-1.217-1.189-1.838-2.812-1.838-4.839c0-2.027,0.621-3.595,1.866-4.758
	c1.244-1.163,2.73-1.757,4.461-1.757C105.835,7.314,107.051,7.746,108.16,8.584z M108.16,16.317v-4.893
	c-0.838-1-1.92-1.514-3.244-1.514c-1.027,0-1.92,0.378-2.677,1.108c-0.73,0.73-1.108,1.649-1.108,2.812
	c0,1.163,0.351,2.109,1.081,2.866c0.73,0.757,1.622,1.136,2.704,1.136C106.24,17.831,107.322,17.317,108.16,16.317z"/>
<g>
	<path fill="#FFFFFF" d="M116.494,19.253c0.162,1.351-2.162,1.351-2.026,0c0-0.54,0.405-1,1.027-1
		C116.062,18.253,116.494,18.713,116.494,19.253z"/>
	<path fill="#FFFFFF" d="M120.196,10.364c0,1.081,1,1.702,2.27,2.135c1.81,0.567,4.188,1.458,4.161,4.485
		c0,2.35-1.459,3.512-4.377,3.512c-1.648,0-2.945-0.324-3.863-0.945c-0.108-0.081-0.162-0.189-0.162-0.324v-0.864
		c0-0.19,0.081-0.217,0.27-0.081c0.946,0.675,2.162,1,3.594,1c2.053,0,3.08-0.784,3.08-2.35c0-1.486-1-2.35-2.269-2.81
		c-1.837-0.675-4.161-1.189-4.161-3.783c0-1.864,1.513-2.945,3.863-2.945c1.297,0,2.351,0.243,3.134,0.73
		c0.19,0.108,0.298,0.243,0.298,0.432v0.729c0,0.243-0.108,0.27-0.351,0.108c-0.757-0.513-1.703-0.784-2.864-0.784
		C121.276,8.607,120.196,9.175,120.196,10.364z"/>
	<path fill="#FFFFFF" d="M130.842,9.31c1.297-1.27,2.864-1.918,4.675-1.918c1.81,0,3.377,0.648,4.647,1.918
		c1.297,1.27,1.946,2.837,1.946,4.647c0,1.81-0.649,3.351-1.946,4.62c-1.27,1.27-2.837,1.918-4.647,1.918
		c-1.81,0-3.378-0.648-4.675-1.918c-1.27-1.27-1.918-2.81-1.918-4.62C128.924,12.147,129.573,10.58,130.842,9.31z M130.356,13.957
		c0,1.432,0.513,2.675,1.513,3.675c1,1,2.216,1.486,3.648,1.486c1.431,0,2.648-0.486,3.647-1.486c1-1,1.513-2.243,1.513-3.675
		c0-1.431-0.514-2.675-1.513-3.674c-1-1-2.216-1.513-3.647-1.513c-1.432,0-2.648,0.513-3.648,1.513
		C130.869,11.282,130.356,12.526,130.356,13.957z"/>
	<path fill="#FFFFFF" d="M146.595,19.982c0,0.162-0.081,0.243-0.216,0.243h-1.027c-0.135,0-0.217-0.108-0.217-0.297V0.475
		c0-0.162,0.054-0.243,0.162-0.243h1.108c0.135,0,0.189,0.081,0.189,0.243V19.982z"/>
	<path fill="#FFFFFF" d="M150.027,7.959c0-0.189,0.081-0.297,0.27-0.297h0.945c0.217,0,0.244,0.054,0.244,0.297v6.701
		c0,3.054,1.297,4.566,3.863,4.566c2.567,0,3.864-1.513,3.864-4.566V7.959c0-0.243,0.027-0.297,0.244-0.297h1.027
		c0.135,0,0.189,0.081,0.189,0.216v6.809c0,3.864-1.783,5.809-5.323,5.809c-3.539,0-5.322-1.945-5.322-5.809V7.959z"/>
	<path fill="#FFFFFF" d="M170.373,20.307c0,0.135-0.081,0.189-0.243,0.189c-3.134-0.026-4.702-1.513-4.702-4.863V8.986h-2.945
		c-0.217,0-0.27-0.054-0.27-0.243V7.905c0-0.162,0.081-0.243,0.27-0.243h2.945v-4.81c0-0.189,0.081-0.297,0.217-0.297h1
		c0.162,0,0.243,0.108,0.243,0.297v4.81h3.27c0.189,0,0.27,0.081,0.27,0.216V8.77c0,0.135-0.081,0.216-0.217,0.216h-3.323v6.485
		c0,2.486,1.081,3.755,3.242,3.81c0.216,0,0.243,0.027,0.243,0.27V20.307z"/>
	<path fill="#FFFFFF" d="M174.237,3.933c-0.675,0-1.081-0.432-1.081-1.081c0-0.621,0.432-1.108,1.081-1.108
		c0.648,0,1.081,0.486,1.081,1.108C175.318,3.501,174.885,3.933,174.237,3.933z M174.967,19.982c0,0.162-0.081,0.243-0.216,0.243h-1
		c-0.162,0-0.243-0.081-0.243-0.216V7.986c0-0.297,0.054-0.324,0.351-0.324h0.865c0.162,0,0.243,0.108,0.243,0.297V19.982z"/>
	<path fill="#FFFFFF" d="M179.993,9.31c1.297-1.27,2.864-1.918,4.675-1.918c1.81,0,3.377,0.648,4.647,1.918
		c1.297,1.27,1.946,2.837,1.946,4.647c0,1.81-0.649,3.351-1.946,4.62c-1.27,1.27-2.837,1.918-4.647,1.918
		c-1.81,0-3.378-0.648-4.675-1.918c-1.27-1.27-1.918-2.81-1.918-4.62C178.075,12.147,178.723,10.58,179.993,9.31z M179.507,13.957
		c0,1.432,0.513,2.675,1.513,3.675c1,1,2.216,1.486,3.648,1.486s2.648-0.486,3.647-1.486c1-1,1.513-2.243,1.513-3.675
		c0-1.431-0.514-2.675-1.513-3.674c-1-1-2.215-1.513-3.647-1.513s-2.648,0.513-3.648,1.513
		C180.02,11.282,179.507,12.526,179.507,13.957z"/>
	<path fill="#FFFFFF" d="M195.503,9.067c1.162-1.108,2.62-1.675,4.431-1.675c3.27,0,4.89,1.729,4.89,5.188v7.43
		c0,0.135-0.081,0.216-0.216,0.216h-1.054c-0.135,0-0.19-0.081-0.19-0.216v-7.268c0-2.675-1.215-4.026-3.674-4.026
		c-1.567,0-2.972,0.621-4.188,1.864v9.457c0,0.135-0.054,0.189-0.19,0.189h-1.08c-0.135,0-0.19-0.081-0.19-0.216V7.878
		c0-0.135,0.054-0.216,0.19-0.216h1.054c0.135,0,0.216,0.054,0.216,0.189V9.067z"/>
	<path fill="#FFFFFF" d="M209.445,10.364c0,1.081,1,1.702,2.27,2.135c1.81,0.567,4.188,1.458,4.161,4.485
		c0,2.35-1.459,3.512-4.377,3.512c-1.648,0-2.945-0.324-3.863-0.945c-0.108-0.081-0.162-0.189-0.162-0.324v-0.864
		c0-0.19,0.081-0.217,0.27-0.081c0.946,0.675,2.162,1,3.594,1c2.053,0,3.08-0.784,3.08-2.35c0-1.486-1-2.35-2.269-2.81
		c-1.837-0.675-4.161-1.189-4.161-3.783c0-1.864,1.513-2.945,3.863-2.945c1.297,0,2.351,0.243,3.134,0.73
		c0.19,0.108,0.298,0.243,0.298,0.432v0.729c0,0.243-0.108,0.27-0.351,0.108c-0.757-0.513-1.703-0.784-2.864-0.784
		C210.526,8.607,209.445,9.175,209.445,10.364z"/>
</g>
</svg>
