<?xml version="1.0" encoding="utf-8"?>
<!-- Generator: Adobe Illustrator 17.1.0, SVG Export Plug-In . SVG Version: 6.00 Build 0)  -->
<!DOCTYPE svg PUBLIC "-//W3C//DTD SVG 1.1//EN" "http://www.w3.org/Graphics/SVG/1.1/DTD/svg11.dtd">
<svg version="1.1" id="Layer_1" xmlns="http://www.w3.org/2000/svg" xmlns:xlink="http://www.w3.org/1999/xlink" x="0px" y="0px"
	 viewBox="0 0 14.5 26.5" enable-background="new 0 0 14.5 26.5" xml:space="preserve">
<g>
	<g>
		<path fill="#F95373" d="M13.286,14.37c0,0.216-0.108,0.324-0.298,0.324H3.904c0.243,2.082,1.568,3.137,3.974,3.137
			c1.298,0,2.379-0.217,3.244-0.676c0.243-0.081,0.378-0.027,0.378,0.162v1.865c0,0.244-0.081,0.406-0.243,0.487
			c-1.054,0.514-2.352,0.757-3.839,0.757c-2.217,0-3.866-0.622-4.948-1.839c-1.054-1.217-1.595-2.758-1.595-4.596
			c0-2,0.595-3.623,1.784-4.839c1.217-1.217,2.704-1.838,4.461-1.838c1.757,0,3.244,0.595,4.407,1.784
			c1.162,1.163,1.757,2.704,1.757,4.623V14.37z M4.039,12.396h6.326C9.96,10.747,8.852,9.72,7.122,9.72
			C5.58,9.72,4.472,10.747,4.039,12.396z"/>
		<path fill="#F95373" d="M84.283,13.721c0-1.919,0.595-3.461,1.757-4.623c1.163-1.19,2.65-1.784,4.407-1.784
			s3.244,0.621,4.461,1.838c1.19,1.217,1.785,2.839,1.785,4.839c0,1.839-0.541,3.38-1.595,4.596
			c-1.082,1.217-2.731,1.839-4.948,1.839c-1.487,0-2.785-0.244-3.839-0.757c-0.162-0.081-0.244-0.243-0.244-0.487v-1.865
			c0-0.19,0.135-0.244,0.379-0.162c0.865,0.459,1.946,0.676,3.244,0.676c2.406,0,3.731-1.055,3.974-3.137h-9.084
			c-0.189,0-0.298-0.108-0.298-0.324V13.721z M90.448,9.72c-1.73,0-2.839,1.027-3.244,2.676h6.327
			C93.097,10.747,91.989,9.72,90.448,9.72z"/>
	</g>
</g>
</svg>
