<?xml version="1.0" encoding="utf-8"?>
<!-- Generator: Adobe Illustrator 17.0.0, SVG Export Plug-In . SVG Version: 6.00 Build 0)  -->
<!DOCTYPE svg PUBLIC "-//W3C//DTD SVG 1.1//EN" "http://www.w3.org/Graphics/SVG/1.1/DTD/svg11.dtd" [
	<!ENTITY st0 "fill:#FFFFFF;">
	<!ENTITY st1 "fill:#EB1460;">
]>
<svg version="1.1" id="Layer_1" xmlns="http://www.w3.org/2000/svg" xmlns:xlink="http://www.w3.org/1999/xlink" x="0px" y="0px"
	 width="979.906px" height="116.683px" viewBox="0 0 979.906 116.683" style="enable-background:new 0 0 979.906 116.683;"
	 xml:space="preserve">
<g>
	<path style="&st0;" d="M94.672,32.277c14.909,0,23.042,8.749,23.042,25.506v31.545c0,0.985-0.493,1.479-1.602,1.479h-10.967
		c-0.862,0-1.355-0.494-1.355-1.479V59.878c0-9.982-4.19-15.033-12.692-15.033c-5.299,0-11.954,2.208-11.954,2.208L79.021,89.45
		c0,0.862-0.494,1.356-1.356,1.356h-10.72c-1.109,0-1.725-0.494-1.725-1.356V39.196c0-0.148,0.457-1.197,1.297-1.556
		C70.568,35.904,81.071,32.277,94.672,32.277z"/>
	<path style="&st0;" d="M256.526,32.277c14.909,0,23.042,8.749,23.042,25.506v31.545c0,0.985-0.493,1.479-1.602,1.479H267
		c-0.862,0-1.355-0.494-1.355-1.479V59.878c0-9.982-4.19-15.033-12.692-15.033c-5.299,0-11.954,2.208-11.954,2.208l-0.123,42.397
		c0,0.862-0.494,1.356-1.356,1.356H228.8c-1.109,0-1.725-0.494-1.725-1.356V39.196c0-0.148,0.457-1.197,1.297-1.556
		C232.423,35.904,242.926,32.277,256.526,32.277z"/>
	<path style="&st0;" d="M126.312,15.128c0-1.111,0.494-1.725,1.356-1.725h10.967c1.355,0,1.602,0.368,1.602,1.725v18.379h13.924
		c1.232,0,1.602,0.125,1.602,1.233v9.982c0,1.108,0,1.354-1.355,1.354h-14.171v20.332c0,10.227,4.683,14.048,13.184,14.416
		c1.355,0,1.479,0.371,1.479,1.85v8.009c0,0.862-0.493,1.356-1.602,1.356c-18.606-0.371-26.986-6.901-26.986-23.784V15.128z"/>
	<path style="&st0;" d="M204.206,86.986c-6.038,3.326-12.692,5.054-19.962,5.054c-13.8,0-21.317-6.533-21.317-17.868
		c0-12.323,8.626-19.347,23.413-19.347c5.422,0,10.597,0.988,15.65,2.958v-3.82c0-6.284-5.176-9.488-15.527-9.488
		c-6.037,0-11.337,1.11-15.895,3.452c-0.986,0.614-1.726,0.246-1.726-0.739v-9.859c0-1.108,0.494-1.847,1.356-2.218
		c5.668-1.847,11.952-2.833,18.976-2.833c15.895,0,26.247,7.147,26.247,22.425V89.45c0,0.862-0.37,1.356-1.233,1.356h-7.147
		c-1.355,0-1.602-0.246-2.217-1.847L204.206,86.986z M186.34,80.824c5.791,0,10.967-1.231,15.65-3.695v-8.257
		c-4.437-1.847-9.612-2.71-15.527-2.71c-5.915,0-10.473,3.081-10.473,7.515C175.989,77.744,180.301,80.824,186.34,80.824z"/>
	<path style="&st0;" d="M333.762,86.124c-4.805,3.943-10.473,5.916-17.006,5.916c-8.009,0-14.785-2.712-20.452-8.012
		c-5.668-5.42-8.503-12.814-8.503-22.057c0-9.117,2.835-16.387,8.503-21.686c5.791-5.299,12.566-8.009,20.452-8.009
		c6.284,0,11.955,2.093,17.006,6.161v-1.85c0-2.587,0.368-3.081,2.464-3.081h9.488c1.973,0,2.219,0.125,2.219,2.589v50.766
		c0,10.967-3.943,19.347-10.228,23.659c-6.039,4.312-12.569,6.162-19.47,6.162c-6.898,0-12.937-0.985-17.988-2.835
		c-0.988-0.368-1.479-1.108-1.479-2.341v-9.488c0-1.231,0.617-1.602,1.848-0.985c4.928,1.97,9.982,2.958,15.156,2.958
		c11.952,0,17.991-5.668,17.991-17.006V86.124z M333.762,72.693V51.621c-3.82-5.051-8.871-7.515-15.156-7.515
		c-4.683,0-8.749,1.725-12.2,5.051c-3.449,3.326-5.174,7.518-5.174,12.814c0,5.299,1.602,9.613,4.928,13.063
		c3.326,3.449,7.518,5.176,12.446,5.176C324.89,80.21,329.941,77.744,333.762,72.693z"/>
	<path style="&st0;" d="M371.379,89.327c0,0.985-0.494,1.479-1.479,1.479h-10.967c-1.108,0-1.479-0.368-1.479-1.725V13.935
		c0-0.985,0.371-1.479,1.233-1.479H369.9c1.356,0,1.479,0.125,1.479,1.479V89.327z"/>
	<path style="&st0;" d="M488.967,38.067V13.935c0-0.985,0.494-1.479,1.356-1.479h10.721c1.108,0,1.725,0.494,1.725,1.356V89.45
		c0,0.862-0.368,1.356-1.233,1.356h-7.27c-0.491,0-0.985-0.368-1.356-0.985l-1.97-5.054c-5.545,4.805-11.706,7.272-18.607,7.272
		c-8.009,0-14.785-2.712-20.455-8.012c-5.545-5.42-8.377-12.814-8.377-22.057c0-9.24,2.833-16.387,8.503-21.686
		c5.668-5.299,12.444-8.009,20.33-8.009C478.371,32.277,483.916,34.247,488.967,38.067z M488.967,73.309V51.007
		c-3.818-4.56-8.749-6.901-14.785-6.901c-4.682,0-8.748,1.725-12.2,5.051c-3.327,3.326-5.051,7.518-5.051,12.814
		c0,5.299,1.602,9.613,4.928,13.063c3.327,3.449,7.392,5.176,12.323,5.176C480.218,80.21,485.149,77.869,488.967,73.309z"/>
	<g>
		<g>
			<path style="&st1;" d="M56.56,64.438c0,0.985-0.493,1.477-1.356,1.477H13.801c1.109,9.488,7.148,14.296,18.114,14.296
				c5.915,0,10.844-0.988,14.787-3.081c1.109-0.371,1.725-0.125,1.725,0.74v8.5c0,1.11-0.37,1.85-1.109,2.218
				c-4.805,2.341-10.72,3.452-17.497,3.452c-10.105,0-17.621-2.835-22.549-8.38C2.465,78.115,0,71.091,0,62.711
				c0-9.117,2.711-16.512,8.133-22.057c5.545-5.545,12.322-8.377,20.332-8.377c8.009,0,14.786,2.71,20.085,8.132
				c5.298,5.299,8.009,12.323,8.009,21.072V64.438z M14.417,55.441h28.834c-1.849-7.515-6.9-12.198-14.786-12.198
				C21.441,43.243,16.389,47.926,14.417,55.441z"/>
			<path style="&st1;" d="M380.146,61.48c0-8.749,2.712-15.772,8.009-21.072c5.299-5.422,12.077-8.132,20.086-8.132
				c8.009,0,14.785,2.833,20.33,8.377c5.422,5.545,8.134,12.94,8.134,22.057c0,8.38-2.464,15.404-7.27,20.949
				c-4.931,5.545-12.446,8.38-22.551,8.38c-6.778,0-12.692-1.11-17.497-3.452c-0.74-0.368-1.111-1.108-1.111-2.218v-8.5
				c0-0.865,0.617-1.111,1.727-0.74c3.943,2.093,8.871,3.081,14.785,3.081c10.967,0,17.006-4.808,18.114-14.296h-41.401
				c-0.862,0-1.356-0.491-1.356-1.477V61.48z M408.241,43.243c-7.886,0-12.94,4.683-14.787,12.198h28.835
				C420.316,47.926,415.265,43.243,408.241,43.243z"/>
		</g>
	</g>
	<g>
		<path style="&st0;" d="M526.954,86.692c0.737,6.157-9.852,6.157-9.235,0c0-2.461,1.848-4.556,4.679-4.556
			C524.983,82.136,526.954,84.231,526.954,86.692z"/>
		<path style="&st0;" d="M543.823,46.178c0,4.926,4.556,7.759,10.346,9.73c8.251,2.585,19.087,6.647,18.964,20.442
			c0,10.713-6.65,16.006-19.951,16.006c-7.511,0-13.421-1.478-17.607-4.309c-0.494-0.37-0.74-0.861-0.74-1.478V82.63
			c0-0.864,0.37-0.987,1.231-0.37c4.312,3.078,9.852,4.556,16.379,4.556c9.359,0,14.038-3.572,14.038-10.713
			c0-6.774-4.556-10.713-10.342-12.807c-8.375-3.078-18.964-5.42-18.964-17.241c0-8.497,6.894-13.423,17.607-13.423
			c5.913,0,10.716,1.109,14.285,3.325c0.864,0.492,1.357,1.109,1.357,1.971v3.324c0,1.109-0.494,1.232-1.601,0.494
			c-3.449-2.34-7.761-3.572-13.054-3.572C548.749,38.173,543.823,40.76,543.823,46.178z"/>
		<path style="&st0;" d="M592.347,41.375c5.91-5.788,13.054-8.743,21.305-8.743c8.248,0,15.392,2.955,21.179,8.743
			c5.91,5.788,8.868,12.932,8.868,21.18c0,8.251-2.958,15.272-8.868,21.058c-5.787,5.787-12.931,8.742-21.179,8.742
			c-8.251,0-15.395-2.955-21.305-8.742c-5.787-5.787-8.742-12.807-8.742-21.058C583.606,54.307,586.561,47.163,592.347,41.375z
			 M590.133,62.555c0,6.527,2.338,12.194,6.894,16.749s10.099,6.771,16.626,6.771c6.524,0,12.067-2.215,16.623-6.771
			s6.897-10.222,6.897-16.749c0-6.524-2.341-12.19-6.897-16.746c-4.556-4.557-10.099-6.897-16.623-6.897
			c-6.527,0-12.07,2.34-16.626,6.897C592.471,50.365,590.133,56.032,590.133,62.555z"/>
		<path style="&st0;" d="M664.144,90.018c0,0.737-0.37,1.107-0.984,1.107h-4.679c-0.617,0-0.987-0.49-0.987-1.354V1.107
			c0-0.739,0.247-1.107,0.74-1.107h5.05c0.614,0,0.86,0.368,0.86,1.107V90.018z"/>
		<path style="&st0;" d="M679.786,35.218c0-0.862,0.37-1.354,1.231-1.354h4.309c0.987,0,1.111,0.245,1.111,1.354v30.539
			c0,13.918,5.91,20.812,17.607,20.812c11.7,0,17.61-6.894,17.61-20.812V35.218c0-1.109,0.123-1.354,1.111-1.354h4.679
			c0.614,0,0.86,0.369,0.86,0.984v31.033c0,17.61-8.128,26.475-24.26,26.475c-16.129,0-24.257-8.865-24.257-26.475V35.218z"/>
		<path style="&st0;" d="M772.515,91.495c0,0.617-0.37,0.86-1.107,0.86c-14.285-0.12-21.429-6.894-21.429-22.163V39.898h-13.421
			c-0.987,0-1.231-0.247-1.231-1.109v-3.817c0-0.739,0.367-1.107,1.231-1.107h13.421V11.943c0-0.861,0.37-1.354,0.987-1.354h4.556
			c0.737,0,1.107,0.494,1.107,1.354v21.921h14.902c0.86,0,1.231,0.369,1.231,0.984v4.064c0,0.615-0.37,0.986-0.987,0.986H756.63
			v29.555c0,11.33,4.926,17.116,14.778,17.363c0.984,0,1.107,0.123,1.107,1.231V91.495z"/>
		<path style="&st0;" d="M790.129,16.869c-3.078,0-4.926-1.969-4.926-4.926c0-2.832,1.971-5.048,4.926-5.048
			c2.955,0,4.926,2.216,4.926,5.048C795.055,14.9,793.084,16.869,790.129,16.869z M793.454,90.018c0,0.737-0.37,1.107-0.984,1.107
			h-4.559c-0.737,0-1.107-0.37-1.107-0.984V35.342c0-1.356,0.247-1.477,1.601-1.477h3.942c0.737,0,1.107,0.492,1.107,1.354V90.018z"
			/>
		<path style="&st0;" d="M816.36,41.375c5.91-5.788,13.054-8.743,21.305-8.743c8.248,0,15.392,2.955,21.179,8.743
			c5.91,5.788,8.868,12.932,8.868,21.18c0,8.251-2.958,15.272-8.868,21.058c-5.787,5.787-12.931,8.742-21.179,8.742
			c-8.251,0-15.395-2.955-21.305-8.742c-5.787-5.787-8.742-12.807-8.742-21.058C807.618,54.307,810.573,47.163,816.36,41.375z
			 M814.145,62.555c0,6.527,2.338,12.194,6.894,16.749c4.556,4.556,10.099,6.771,16.626,6.771s12.067-2.215,16.623-6.771
			s6.897-10.222,6.897-16.749c0-6.524-2.341-12.19-6.897-16.746c-4.556-4.557-10.096-6.897-16.623-6.897s-12.07,2.34-16.626,6.897
			C816.483,50.365,814.145,56.032,814.145,62.555z"/>
		<path style="&st0;" d="M887.05,40.268c5.296-5.049,11.943-7.636,20.195-7.636c14.902,0,22.289,7.881,22.289,23.643v33.866
			c0,0.614-0.37,0.984-0.984,0.984h-4.803c-0.617,0-0.864-0.37-0.864-0.984V57.015c0-12.192-5.54-18.349-16.746-18.349
			c-7.144,0-13.548,2.832-19.087,8.496v43.101c0,0.614-0.247,0.861-0.864,0.861h-4.923c-0.617,0-0.864-0.37-0.864-0.984V34.848
			c0-0.615,0.247-0.984,0.864-0.984h4.803c0.614,0,0.984,0.245,0.984,0.862V40.268z"/>
		<path style="&st0;" d="M950.596,46.178c0,4.926,4.556,7.759,10.346,9.73c8.251,2.585,19.087,6.647,18.964,20.442
			c0,10.713-6.65,16.006-19.951,16.006c-7.511,0-13.421-1.478-17.607-4.309c-0.494-0.37-0.74-0.861-0.74-1.478V82.63
			c0-0.864,0.37-0.987,1.231-0.37c4.312,3.078,9.852,4.556,16.379,4.556c9.359,0,14.038-3.572,14.038-10.713
			c0-6.774-4.556-10.713-10.343-12.807c-8.375-3.078-18.964-5.42-18.964-17.241c0-8.497,6.894-13.423,17.607-13.423
			c5.913,0,10.716,1.109,14.285,3.325c0.864,0.492,1.357,1.109,1.357,1.971v3.324c0,1.109-0.494,1.232-1.601,0.494
			c-3.449-2.34-7.761-3.572-13.054-3.572C955.522,38.173,950.596,40.76,950.596,46.178z"/>
	</g>
</g>
<g>
</g>
<g>
</g>
<g>
</g>
<g>
</g>
<g>
</g>
<g>
</g>
<g>
</g>
<g>
</g>
<g>
</g>
<g>
</g>
<g>
</g>
<g>
</g>
<g>
</g>
<g>
</g>
<g>
</g>
</svg>
